<svg width="68" height="81" viewBox="0 0 68 81" fill="none" xmlns="http://www.w3.org/2000/svg">
    <path d="M63.2378 32.6693C59.9461 27.2194 55.2716 23.9594 48.7018 24.694C46.1537 24.9751 43.6962 26.1448 41.2025 26.9338C40.0781 27.2874 38.9582 27.6501 37.8247 28.0219H37.8202C36.7229 28.3756 35.6212 28.7383 34.4877 29.1056C34.397 29.1373 34.3018 29.1645 34.2111 29.1962C34.0479 28.3756 33.9572 28.1579 33.9753 27.9539C33.9935 27.7272 34.0297 27.5005 34.0796 27.2738C34.1068 27.1333 34.1385 26.9882 34.1748 26.8476C34.7416 24.5262 35.5668 22.3454 36.7139 20.3368C37.6025 18.7862 38.6816 17.3398 39.9783 16.0113C41.3068 14.6466 40.6312 13.5176 39.5431 12.5383C38.4187 11.5272 37.2987 11.7494 36.5189 13.028C35.4579 14.7554 34.134 16.4285 33.5491 18.3191C33.3859 18.8496 33.2363 19.3846 33.0912 19.9242C32.4791 22.2411 32.0393 24.6532 31.4998 27.2738C31.3909 27.7998 31.2776 28.3302 31.1597 28.8743C31.1552 28.8743 31.1552 28.8743 31.1506 28.8698C30.3209 28.5615 29.4277 28.2169 28.5073 27.8678C27.6776 27.5549 26.8252 27.2421 25.9592 26.9564C23.6559 26.1902 21.3617 25.1156 19.0086 24.771C18.8317 24.7438 18.6504 24.7257 18.469 24.7076C11.2781 24.032 5.665 27.9811 2.45945 35.4667C-4.50478 51.7257 3.96475 71.6028 19.7567 78.5262C21.2983 79.2063 22.9124 79.7595 24.5899 80.1721C26.0454 80.5303 27.6821 80.1766 29.2328 80.1177C31.6811 80.0224 34.2882 79.306 36.5416 79.9181C40.3547 80.9564 43.6464 80.1131 46.997 78.635C52.3426 76.2774 56.7768 72.7499 60.3134 68.0889C68.0529 57.892 69.3315 42.7529 63.2378 32.6693ZM11.192 38.9942C10.3577 41.5423 8.97029 43.9408 8.36273 46.5297C7.14308 51.7302 7.89573 56.8763 9.65946 61.8819C9.92696 62.639 10.1491 63.4098 10.394 64.1761C10.2081 64.2441 10.0267 64.3166 9.84535 64.3846C7.29271 61.3423 5.98238 57.7287 5.32042 53.8295C4.50883 49.0551 4.799 44.3489 6.48565 39.7877C6.87104 38.7403 7.43779 37.7247 8.08616 36.8179C8.86601 35.7343 10.0721 34.6869 11.2418 35.8249C11.7678 36.3373 11.5184 37.9967 11.192 38.9942ZM43.3335 30.4884C47.8902 27.564 52.3562 26.0859 56.8267 29.7766C59.8418 32.2658 60.9527 35.5302 59.9869 40.0189C57.8423 30.2345 51.7396 28.2894 43.3335 30.4884ZM60.4176 61.6325C57.7108 66.4204 54.2423 70.5373 49.8217 73.8199C49.0736 74.3776 48.2212 74.7993 47.4141 75.2844C47.2826 75.1166 47.1511 74.9489 47.0151 74.7857C47.6136 74.033 48.2756 73.3257 48.8015 72.5277C51.5718 68.3293 54.3602 64.1444 57.0262 59.8779C57.8197 58.6129 58.527 57.4159 60.1365 58.3181C61.66 59.166 61.1023 60.4174 60.4176 61.6325ZM61.2474 55.9605C60.7033 55.3665 59.7874 54.8133 59.7239 54.1695C59.6695 53.5801 60.5265 52.9 61.4106 51.6532C62.195 52.9635 63.002 53.7071 62.9023 54.2965C62.7935 54.9267 61.8368 55.4119 61.2474 55.9605Z" fill="#ED5463"/>
    <path d="M60.3132 68.0889C56.7767 72.7499 52.3424 76.2773 46.9968 78.635C43.6462 80.1131 40.3545 80.9564 36.5414 79.9181C34.288 79.306 31.681 80.0224 29.2326 80.1176C27.682 80.1766 26.0452 80.5302 24.5898 80.1721C22.9122 79.7595 21.2981 79.2063 19.7565 78.5262C21.3797 78.3902 23.1933 78.227 25.2109 78.0229C52.415 75.3025 52.8684 41.7509 48.7878 37.2169C44.7072 32.6829 40.1732 35.4033 32.9188 35.4033C25.6643 35.4033 23.8507 32.6829 21.5837 30.8693C19.9742 29.5816 19.2805 26.4713 19.0084 24.771C21.3616 25.1156 23.6558 26.1902 25.9591 26.9564C27.7863 27.564 29.5727 28.2849 31.1596 28.8743C31.8714 25.628 32.3565 22.7035 33.091 19.9242L36.7137 20.3368C35.5666 22.3453 34.7414 24.5262 34.1747 26.8476C34.084 27.2103 34.0069 27.5821 33.9752 27.9539C33.957 28.1579 34.0477 28.3756 34.2109 29.1962C36.614 28.4164 38.9036 27.6592 41.2024 26.9337C43.6961 26.1448 46.1535 24.9751 48.7016 24.6939C55.2714 23.9594 59.946 27.2194 63.2377 32.6693C69.3314 42.7529 68.0528 57.8919 60.3132 68.0889Z" fill="#DC4453"/>
    <path d="M9.84526 64.3846C7.29715 61.3377 5.98682 57.7242 5.32486 53.8249C4.51327 49.0506 4.80344 44.3443 6.48556 39.7831C6.87095 38.7357 7.43771 37.7201 8.0906 36.8088C8.86592 35.7252 10.0765 34.6778 11.2417 35.8158C11.7722 36.3282 11.5183 37.9876 11.1919 38.9896C10.3576 41.5377 8.9702 43.9362 8.36264 46.5251C7.14299 51.7256 7.89564 56.8717 9.65936 61.8773C9.92687 62.6345 10.149 63.4053 10.3893 64.1715C10.208 64.2441 10.0266 64.3166 9.84526 64.3846Z" fill="white"/>
    <path d="M47.015 74.7856C47.6135 74.0375 48.2755 73.3302 48.8014 72.5322C51.5717 68.3337 54.3601 64.1443 57.0261 59.8824C57.8195 58.6174 58.5268 57.4158 60.1364 58.3181C61.6553 59.1705 61.0976 60.4174 60.413 61.6325C57.7062 66.4249 54.2422 70.5418 49.8216 73.8199C49.0689 74.3776 48.2165 74.7992 47.414 75.2844C47.2825 75.1166 47.151 74.9489 47.015 74.7856Z" fill="white"/>
    <path d="M43.3335 30.4884C47.8902 27.564 52.3562 26.0904 56.8267 29.7766C59.8418 32.2657 60.9526 35.5302 59.9869 40.0189C57.8423 30.2345 51.7395 28.2894 43.3335 30.4884Z" fill="white"/>
    <path d="M61.4105 51.6531C62.1995 52.9635 63.002 53.707 62.9022 54.2965C62.7979 54.9267 61.8367 55.4118 61.2473 55.9605C60.7032 55.3665 59.7874 54.8133 59.7239 54.1695C59.6695 53.5801 60.5264 52.9 61.4105 51.6531Z" fill="white"/>
    <path d="M37.8201 28.0219C37.2352 29.3957 35.6211 32.1479 32.2024 31.8078C28.752 31.4632 28.4528 29.0149 28.5072 27.8678C29.4321 28.2169 30.3253 28.566 31.1596 28.8743C31.2775 28.3302 31.3908 27.7997 31.4996 27.2738H34.0795C34.0296 27.5005 33.9934 27.7272 33.9752 27.9539C33.9571 28.1579 34.0478 28.3756 34.211 29.1962C35.4397 28.7972 36.6321 28.4028 37.8201 28.0219Z" fill="#C63E52"/>
    <path d="M39.9783 16.0113C38.6816 17.3398 37.6025 18.7862 36.7139 20.3368C35.5668 22.3454 34.7416 24.5262 34.1748 26.8476C34.1386 26.9882 34.1068 27.1333 34.0796 27.2738C34.0297 27.5005 33.9935 27.7272 33.9753 27.9539C33.9572 28.1579 34.0479 28.3756 34.2111 29.1962C34.3018 29.1645 34.397 29.1373 34.4877 29.1056C34.0569 29.8446 33.2907 30.7197 32.2025 30.4476C31.5768 30.2889 31.2731 29.6451 31.1506 28.8698C31.1552 28.8743 31.1552 28.8743 31.1597 28.8743C31.2776 28.3302 31.3909 27.7998 31.4998 27.2738C32.0393 24.6532 32.4791 22.2411 33.0912 19.9242C33.2363 19.3846 33.3859 18.8496 33.5491 18.3191C34.134 16.4285 35.4579 14.7554 36.5189 13.028C37.2987 11.7494 38.4186 11.5272 39.5431 12.5383C40.6312 13.5176 41.3068 14.6466 39.9783 16.0113Z" fill="#5F3713"/>
    <path d="M7.26536 0.0697754C7.26536 0.0697754 26.7616 -2.19723 32.2024 19.1126C32.2024 19.1126 23.1344 9.13779 14.5198 6.87078C14.5198 6.87078 22.681 12.765 29.9354 24.1C29.9354 24.1 19.0538 25.4602 10.8926 15.9388C2.73135 6.41738 7.26536 0.0697754 7.26536 0.0697754Z" fill="#8BC733"/>
</svg>
