<svg width="375" height="812" viewBox="0 0 375 812" fill="none" xmlns="http://www.w3.org/2000/svg">
    <g clip-path="url(#clip0)">
        <rect width="375" height="812" fill="white"/>
        <g clip-path="url(#clip1)">
            <rect width="375" height="812" fill="#92DDC9"/>
            <g clip-path="url(#clip2)">
                <path d="M105.334 104.446C99.4804 97.3788 92.0816 93.4866 84.5001 93.4866C76.9185 93.4866 69.5196 97.3788 63.6665 104.446C58.4052 110.799 55.2642 118.805 55.2642 125.862C55.2642 129.291 56.3122 131.902 58.3792 133.624C60.4193 135.324 63.1127 135.899 66.1176 135.899C69.315 135.899 72.8653 135.248 76.3537 134.608C79.4019 134.049 82.2811 133.521 84.5002 133.521C86.4156 133.521 89.1162 134.022 91.9748 134.552C98.6556 135.793 106.228 137.198 110.602 133.561C112.682 131.833 113.736 129.242 113.736 125.862C113.736 118.805 110.595 110.799 105.334 104.446Z" fill="#7DD6BE"/>
                <path d="M105.932 66.0697C103.791 62.9121 100.724 61.1012 97.5182 61.1012C94.3124 61.1012 91.2459 62.9122 89.1042 66.0697C87.1368 68.9704 86.0532 72.7798 86.0532 76.796C86.0532 80.8123 87.1366 84.6216 89.1042 87.5223C91.2459 90.6798 94.3126 92.4909 97.5182 92.4909C100.724 92.4909 103.791 90.6798 105.932 87.5223C107.9 84.6216 108.983 80.8123 108.983 76.796C108.983 72.7798 107.9 68.9703 105.932 66.0697Z" fill="#7DD6BE"/>
                <path d="M79.8958 66.0696C77.7541 62.9119 74.6876 61.1011 71.4818 61.1011C68.2761 61.1011 65.2093 62.9121 63.0678 66.0696C61.1004 68.9703 60.0168 72.7796 60.0168 76.7959C60.0168 80.8122 61.1003 84.6215 63.0678 87.5222C65.2095 90.6799 68.2761 92.4909 71.4818 92.4909C74.6876 92.4909 77.7541 90.6799 79.8958 87.5222C81.8632 84.6215 82.9468 80.8124 82.9468 76.7959C82.9466 72.7796 81.8632 68.9702 79.8958 66.0696Z" fill="#7DD6BE"/>
                <path d="M127.494 90.7062C126.63 87.7693 124.78 85.6352 122.283 84.6974C120.274 83.9428 118.006 84.0708 115.897 85.0578C112.99 86.4179 110.615 89.2264 109.379 92.7629C108.37 95.653 108.244 98.7077 109.025 101.365C109.888 104.302 111.739 106.436 114.236 107.374C115.1 107.698 116.011 107.859 116.938 107.859C118.166 107.859 119.42 107.576 120.622 107.013C123.529 105.653 125.904 102.845 127.14 99.3082V99.308C128.149 96.4181 128.275 93.3633 127.494 90.7062Z" fill="#7DD6BE"/>
                <path d="M59.6211 92.7626C58.3856 89.226 56.0099 86.4177 53.1036 85.0576C50.9943 84.0706 48.7262 83.9428 46.7172 84.6972C44.2204 85.6352 42.3698 87.7693 41.5064 90.706C40.7253 93.3631 40.8512 96.4179 41.8607 99.3078V99.308C43.0964 102.845 45.4719 105.653 48.3782 107.013C49.5806 107.576 50.8344 107.859 52.0625 107.859C52.9889 107.859 53.9007 107.698 54.7646 107.373C57.2617 106.435 59.1122 104.301 59.9756 101.365C60.7563 98.7076 60.6304 95.6528 59.6211 92.7626Z" fill="#7DD6BE"/>
            </g>
            <g clip-path="url(#clip3)">
                <path d="M327.334 98.4462C321.48 91.3788 314.082 87.4866 306.5 87.4866C298.918 87.4866 291.519 91.3788 285.666 98.4462C280.405 104.799 277.264 112.805 277.264 119.862C277.264 123.291 278.312 125.902 280.379 127.624C282.419 129.324 285.113 129.899 288.117 129.899C291.315 129.899 294.865 129.248 298.354 128.608C301.402 128.049 304.281 127.521 306.5 127.521C308.415 127.521 311.116 128.022 313.975 128.552C320.655 129.793 328.228 131.198 332.602 127.561C334.682 125.833 335.736 123.242 335.736 119.862C335.736 112.805 332.595 104.799 327.334 98.4462Z" fill="#7DD6BE"/>
                <path d="M327.932 60.0697C325.791 56.9121 322.724 55.1012 319.518 55.1012C316.312 55.1012 313.246 56.9122 311.104 60.0697C309.137 62.9704 308.053 66.7798 308.053 70.796C308.053 74.8123 309.137 78.6216 311.104 81.5223C313.246 84.6798 316.313 86.4909 319.518 86.4909C322.724 86.4909 325.791 84.6798 327.932 81.5223C329.9 78.6216 330.983 74.8123 330.983 70.796C330.983 66.7798 329.9 62.9703 327.932 60.0697Z" fill="#7DD6BE"/>
                <path d="M301.896 60.0696C299.754 56.9119 296.688 55.1011 293.482 55.1011C290.276 55.1011 287.209 56.9121 285.068 60.0696C283.101 62.9703 282.017 66.7796 282.017 70.7959C282.017 74.8122 283.1 78.6215 285.068 81.5222C287.21 84.6799 290.276 86.4909 293.482 86.4909C296.688 86.4909 299.754 84.6799 301.896 81.5222C303.863 78.6215 304.947 74.8124 304.947 70.7959C304.947 66.7796 303.863 62.9702 301.896 60.0696Z" fill="#7DD6BE"/>
                <path d="M349.493 84.7062C348.63 81.7693 346.779 79.6352 344.283 78.6974C342.274 77.9428 340.006 78.0708 337.897 79.0578C334.99 80.4179 332.614 83.2264 331.379 86.7629C330.37 89.653 330.244 92.7077 331.025 95.3647C331.888 98.3017 333.739 100.436 336.236 101.374C337.1 101.698 338.011 101.859 338.938 101.859C340.166 101.859 341.42 101.576 342.622 101.013C345.529 99.6531 347.904 96.8446 349.14 93.3082V93.308C350.149 90.4181 350.275 87.3633 349.493 84.7062Z" fill="#7DD6BE"/>
                <path d="M281.621 86.7626C280.386 83.226 278.01 80.4177 275.104 79.0576C272.994 78.0706 270.726 77.9428 268.717 78.6972C266.221 79.6352 264.37 81.7693 263.507 84.706C262.725 87.3631 262.851 90.4179 263.861 93.3078V93.308C265.096 96.8445 267.472 99.6528 270.378 101.013C271.581 101.576 272.835 101.859 274.063 101.859C274.989 101.859 275.901 101.698 276.765 101.373C279.262 100.435 281.112 98.3013 281.976 95.3645C282.756 92.7076 282.631 89.6528 281.621 86.7626Z" fill="#7DD6BE"/>
            </g>
            <g clip-path="url(#clip4)">
                <path d="M105.334 581.446C99.4804 574.379 92.0816 570.487 84.5001 570.487C76.9185 570.487 69.5196 574.379 63.6665 581.446C58.4052 587.799 55.2642 595.805 55.2642 602.862C55.2642 606.291 56.3122 608.902 58.3792 610.624C60.4193 612.324 63.1127 612.899 66.1176 612.899C69.315 612.899 72.8653 612.248 76.3537 611.608C79.4019 611.049 82.2811 610.521 84.5002 610.521C86.4156 610.521 89.1162 611.022 91.9748 611.553C98.6556 612.793 106.228 614.199 110.602 610.562C112.682 608.833 113.736 606.242 113.736 602.862C113.736 595.805 110.595 587.799 105.334 581.446Z" fill="#7DD6BE"/>
                <path d="M105.932 543.07C103.791 539.912 100.724 538.101 97.5182 538.101C94.3124 538.101 91.2459 539.912 89.1042 543.07C87.1368 545.97 86.0532 549.78 86.0532 553.796C86.0532 557.812 87.1366 561.622 89.1042 564.522C91.2459 567.68 94.3126 569.491 97.5182 569.491C100.724 569.491 103.791 567.68 105.932 564.522C107.9 561.622 108.983 557.812 108.983 553.796C108.983 549.78 107.9 545.97 105.932 543.07Z" fill="#7DD6BE"/>
                <path d="M79.8958 543.07C77.7541 539.912 74.6876 538.101 71.4818 538.101C68.2761 538.101 65.2093 539.912 63.0678 543.07C61.1004 545.97 60.0168 549.78 60.0168 553.796C60.0168 557.812 61.1003 561.621 63.0678 564.522C65.2095 567.68 68.2761 569.491 71.4818 569.491C74.6876 569.491 77.7541 567.68 79.8958 564.522C81.8632 561.621 82.9468 557.812 82.9468 553.796C82.9466 549.78 81.8632 545.97 79.8958 543.07Z" fill="#7DD6BE"/>
                <path d="M127.494 567.706C126.63 564.769 124.78 562.635 122.283 561.697C120.274 560.943 118.006 561.071 115.897 562.058C112.99 563.418 110.615 566.226 109.379 569.763C108.37 572.653 108.244 575.708 109.025 578.365C109.888 581.302 111.739 583.436 114.236 584.374C115.1 584.698 116.011 584.859 116.938 584.859C118.166 584.859 119.42 584.576 120.622 584.013C123.529 582.653 125.904 579.845 127.14 576.308V576.308C128.149 573.418 128.275 570.363 127.494 567.706Z" fill="#7DD6BE"/>
                <path d="M59.6211 569.763C58.3856 566.226 56.0099 563.418 53.1036 562.058C50.9943 561.071 48.7262 560.943 46.7172 561.697C44.2204 562.635 42.3698 564.769 41.5064 567.706C40.7253 570.363 40.8512 573.418 41.8607 576.308V576.308C43.0964 579.845 45.4719 582.653 48.3782 584.013C49.5806 584.576 50.8344 584.859 52.0625 584.859C52.9889 584.859 53.9007 584.698 54.7646 584.373C57.2617 583.435 59.1122 581.301 59.9756 578.365C60.7563 575.708 60.6304 572.653 59.6211 569.763Z" fill="#7DD6BE"/>
            </g>
            <g clip-path="url(#clip5)">
                <path d="M105.334 342.446C99.4804 335.379 92.0816 331.487 84.5001 331.487C76.9185 331.487 69.5196 335.379 63.6665 342.446C58.4052 348.799 55.2642 356.805 55.2642 363.862C55.2642 367.291 56.3122 369.902 58.3792 371.624C60.4193 373.324 63.1127 373.899 66.1176 373.899C69.315 373.899 72.8653 373.248 76.3537 372.608C79.4019 372.049 82.2811 371.521 84.5002 371.521C86.4156 371.521 89.1162 372.022 91.9748 372.552C98.6556 373.793 106.228 375.198 110.602 371.561C112.682 369.833 113.736 367.242 113.736 363.862C113.736 356.805 110.595 348.799 105.334 342.446Z" fill="#7DD6BE"/>
                <path d="M105.932 304.07C103.791 300.912 100.724 299.101 97.5182 299.101C94.3124 299.101 91.2459 300.912 89.1042 304.07C87.1368 306.97 86.0532 310.78 86.0532 314.796C86.0532 318.812 87.1366 322.622 89.1042 325.522C91.2459 328.68 94.3126 330.491 97.5182 330.491C100.724 330.491 103.791 328.68 105.932 325.522C107.9 322.622 108.983 318.812 108.983 314.796C108.983 310.78 107.9 306.97 105.932 304.07Z" fill="#7DD6BE"/>
                <path d="M79.8958 304.07C77.7541 300.912 74.6876 299.101 71.4818 299.101C68.2761 299.101 65.2093 300.912 63.0678 304.07C61.1004 306.97 60.0168 310.78 60.0168 314.796C60.0168 318.812 61.1003 322.621 63.0678 325.522C65.2095 328.68 68.2761 330.491 71.4818 330.491C74.6876 330.491 77.7541 328.68 79.8958 325.522C81.8632 322.621 82.9468 318.812 82.9468 314.796C82.9466 310.78 81.8632 306.97 79.8958 304.07Z" fill="#7DD6BE"/>
                <path d="M127.494 328.706C126.63 325.769 124.78 323.635 122.283 322.697C120.274 321.943 118.006 322.071 115.897 323.058C112.99 324.418 110.615 327.226 109.379 330.763C108.37 333.653 108.244 336.708 109.025 339.365C109.888 342.302 111.739 344.436 114.236 345.374C115.1 345.698 116.011 345.859 116.938 345.859C118.166 345.859 119.42 345.576 120.622 345.013C123.529 343.653 125.904 340.845 127.14 337.308V337.308C128.149 334.418 128.275 331.363 127.494 328.706Z" fill="#7DD6BE"/>
                <path d="M59.6211 330.763C58.3856 327.226 56.0099 324.418 53.1036 323.058C50.9943 322.071 48.7262 321.943 46.7172 322.697C44.2204 323.635 42.3698 325.769 41.5064 328.706C40.7253 331.363 40.8512 334.418 41.8607 337.308V337.308C43.0964 340.845 45.4719 343.653 48.3782 345.013C49.5806 345.576 50.8344 345.859 52.0625 345.859C52.9889 345.859 53.9007 345.698 54.7646 345.373C57.2617 344.435 59.1122 342.301 59.9756 339.365C60.7563 336.708 60.6304 333.653 59.6211 330.763Z" fill="#7DD6BE"/>
            </g>
            <g clip-path="url(#clip6)">
                <path d="M328.334 338.446C322.48 331.379 315.082 327.487 307.5 327.487C299.918 327.487 292.519 331.379 286.666 338.446C281.405 344.799 278.264 352.805 278.264 359.862C278.264 363.291 279.312 365.902 281.379 367.624C283.419 369.324 286.113 369.899 289.117 369.899C292.315 369.899 295.865 369.248 299.354 368.608C302.402 368.049 305.281 367.521 307.5 367.521C309.415 367.521 312.116 368.022 314.975 368.552C321.655 369.793 329.228 371.198 333.602 367.561C335.682 365.833 336.736 363.242 336.736 359.862C336.736 352.805 333.595 344.799 328.334 338.446Z" fill="#7DD6BE"/>
                <path d="M328.932 300.07C326.791 296.912 323.724 295.101 320.518 295.101C317.312 295.101 314.246 296.912 312.104 300.07C310.137 302.97 309.053 306.78 309.053 310.796C309.053 314.812 310.137 318.622 312.104 321.522C314.246 324.68 317.313 326.491 320.518 326.491C323.724 326.491 326.791 324.68 328.932 321.522C330.9 318.622 331.983 314.812 331.983 310.796C331.983 306.78 330.9 302.97 328.932 300.07Z" fill="#7DD6BE"/>
                <path d="M302.896 300.07C300.754 296.912 297.688 295.101 294.482 295.101C291.276 295.101 288.209 296.912 286.068 300.07C284.101 302.97 283.017 306.78 283.017 310.796C283.017 314.812 284.1 318.621 286.068 321.522C288.21 324.68 291.276 326.491 294.482 326.491C297.688 326.491 300.754 324.68 302.896 321.522C304.863 318.621 305.947 314.812 305.947 310.796C305.947 306.78 304.863 302.97 302.896 300.07Z" fill="#7DD6BE"/>
                <path d="M350.493 324.706C349.63 321.769 347.779 319.635 345.283 318.697C343.274 317.943 341.006 318.071 338.897 319.058C335.99 320.418 333.614 323.226 332.379 326.763C331.37 329.653 331.244 332.708 332.025 335.365C332.888 338.302 334.739 340.436 337.236 341.374C338.1 341.698 339.011 341.859 339.938 341.859C341.166 341.859 342.42 341.576 343.622 341.013C346.529 339.653 348.904 336.845 350.14 333.308V333.308C351.149 330.418 351.275 327.363 350.493 324.706Z" fill="#7DD6BE"/>
                <path d="M282.621 326.763C281.386 323.226 279.01 320.418 276.104 319.058C273.994 318.071 271.726 317.943 269.717 318.697C267.221 319.635 265.37 321.769 264.507 324.706C263.725 327.363 263.851 330.418 264.861 333.308V333.308C266.096 336.845 268.472 339.653 271.378 341.013C272.581 341.576 273.835 341.859 275.063 341.859C275.989 341.859 276.901 341.698 277.765 341.373C280.262 340.435 282.112 338.301 282.976 335.365C283.756 332.708 283.631 329.653 282.621 326.763Z" fill="#7DD6BE"/>
            </g>
            <g clip-path="url(#clip7)">
                <path d="M328.334 818.446C322.48 811.379 315.082 807.487 307.5 807.487C299.918 807.487 292.519 811.379 286.666 818.446C281.405 824.799 278.264 832.805 278.264 839.862C278.264 843.291 279.312 845.902 281.379 847.624C283.419 849.324 286.113 849.899 289.117 849.899C292.315 849.899 295.865 849.248 299.354 848.608C302.402 848.049 305.281 847.521 307.5 847.521C309.415 847.521 312.116 848.022 314.975 848.553C321.655 849.793 329.228 851.199 333.602 847.562C335.682 845.833 336.736 843.242 336.736 839.862C336.736 832.805 333.595 824.799 328.334 818.446Z" fill="#7DD6BE"/>
                <path d="M328.932 780.07C326.791 776.912 323.724 775.101 320.518 775.101C317.312 775.101 314.246 776.912 312.104 780.07C310.137 782.97 309.053 786.78 309.053 790.796C309.053 794.812 310.137 798.622 312.104 801.522C314.246 804.68 317.313 806.491 320.518 806.491C323.724 806.491 326.791 804.68 328.932 801.522C330.9 798.622 331.983 794.812 331.983 790.796C331.983 786.78 330.9 782.97 328.932 780.07Z" fill="#7DD6BE"/>
                <path d="M302.896 780.07C300.754 776.912 297.688 775.101 294.482 775.101C291.276 775.101 288.209 776.912 286.068 780.07C284.101 782.97 283.017 786.78 283.017 790.796C283.017 794.812 284.1 798.621 286.068 801.522C288.21 804.68 291.276 806.491 294.482 806.491C297.688 806.491 300.754 804.68 302.896 801.522C304.863 798.621 305.947 794.812 305.947 790.796C305.947 786.78 304.863 782.97 302.896 780.07Z" fill="#7DD6BE"/>
                <path d="M350.493 804.706C349.63 801.769 347.779 799.635 345.283 798.697C343.274 797.943 341.006 798.071 338.897 799.058C335.99 800.418 333.614 803.226 332.379 806.763C331.37 809.653 331.244 812.708 332.025 815.365C332.888 818.302 334.739 820.436 337.236 821.374C338.1 821.698 339.011 821.859 339.938 821.859C341.166 821.859 342.42 821.576 343.622 821.013C346.529 819.653 348.904 816.845 350.14 813.308V813.308C351.149 810.418 351.275 807.363 350.493 804.706Z" fill="#7DD6BE"/>
                <path d="M282.621 806.763C281.386 803.226 279.01 800.418 276.104 799.058C273.994 798.071 271.726 797.943 269.717 798.697C267.221 799.635 265.37 801.769 264.507 804.706C263.725 807.363 263.851 810.418 264.861 813.308V813.308C266.096 816.845 268.472 819.653 271.378 821.013C272.581 821.576 273.835 821.859 275.063 821.859C275.989 821.859 276.901 821.698 277.765 821.373C280.262 820.435 282.112 818.301 282.976 815.365C283.756 812.708 283.631 809.653 282.621 806.763Z" fill="#7DD6BE"/>
            </g>
            <g clip-path="url(#clip8)">
                <path d="M328.334 578.446C322.48 571.379 315.082 567.487 307.5 567.487C299.918 567.487 292.519 571.379 286.666 578.446C281.405 584.799 278.264 592.805 278.264 599.862C278.264 603.291 279.312 605.902 281.379 607.624C283.419 609.324 286.113 609.899 289.117 609.899C292.315 609.899 295.865 609.248 299.354 608.608C302.402 608.049 305.281 607.521 307.5 607.521C309.415 607.521 312.116 608.022 314.975 608.552C321.655 609.793 329.228 611.198 333.602 607.561C335.682 605.833 336.736 603.242 336.736 599.862C336.736 592.805 333.595 584.799 328.334 578.446Z" fill="#7DD6BE"/>
                <path d="M328.932 540.07C326.791 536.912 323.724 535.101 320.518 535.101C317.312 535.101 314.246 536.912 312.104 540.07C310.137 542.97 309.053 546.78 309.053 550.796C309.053 554.812 310.137 558.622 312.104 561.522C314.246 564.68 317.313 566.491 320.518 566.491C323.724 566.491 326.791 564.68 328.932 561.522C330.9 558.622 331.983 554.812 331.983 550.796C331.983 546.78 330.9 542.97 328.932 540.07Z" fill="#7DD6BE"/>
                <path d="M302.896 540.07C300.754 536.912 297.688 535.101 294.482 535.101C291.276 535.101 288.209 536.912 286.068 540.07C284.101 542.97 283.017 546.78 283.017 550.796C283.017 554.812 284.1 558.621 286.068 561.522C288.21 564.68 291.276 566.491 294.482 566.491C297.688 566.491 300.754 564.68 302.896 561.522C304.863 558.621 305.947 554.812 305.947 550.796C305.947 546.78 304.863 542.97 302.896 540.07Z" fill="#7DD6BE"/>
                <path d="M350.493 564.706C349.63 561.769 347.779 559.635 345.283 558.697C343.274 557.943 341.006 558.071 338.897 559.058C335.99 560.418 333.614 563.226 332.379 566.763C331.37 569.653 331.244 572.708 332.025 575.365C332.888 578.302 334.739 580.436 337.236 581.374C338.1 581.698 339.011 581.859 339.938 581.859C341.166 581.859 342.42 581.576 343.622 581.013C346.529 579.653 348.904 576.845 350.14 573.308V573.308C351.149 570.418 351.275 567.363 350.493 564.706Z" fill="#7DD6BE"/>
                <path d="M282.621 566.763C281.386 563.226 279.01 560.418 276.104 559.058C273.994 558.071 271.726 557.943 269.717 558.697C267.221 559.635 265.37 561.769 264.507 564.706C263.725 567.363 263.851 570.418 264.861 573.308V573.308C266.096 576.845 268.472 579.653 271.378 581.013C272.581 581.576 273.835 581.859 275.063 581.859C275.989 581.859 276.901 581.698 277.765 581.373C280.262 580.435 282.112 578.301 282.976 575.365C283.756 572.708 283.631 569.653 282.621 566.763Z" fill="#7DD6BE"/>
            </g>
            <g clip-path="url(#clip9)">
                <path d="M224.334 230.446C218.48 223.379 211.082 219.487 203.5 219.487C195.918 219.487 188.52 223.379 182.666 230.446C177.405 236.799 174.264 244.805 174.264 251.862C174.264 255.291 175.312 257.902 177.379 259.624C179.419 261.324 182.113 261.899 185.118 261.899C188.315 261.899 191.865 261.248 195.354 260.608C198.402 260.049 201.281 259.521 203.5 259.521C205.416 259.521 208.116 260.022 210.975 260.552C217.656 261.793 225.228 263.198 229.602 259.561C231.682 257.833 232.736 255.242 232.736 251.862C232.736 244.805 229.595 236.799 224.334 230.446Z" fill="#7DD6BE"/>
                <path d="M224.932 192.07C222.791 188.912 219.724 187.101 216.518 187.101C213.312 187.101 210.246 188.912 208.104 192.07C206.137 194.97 205.053 198.78 205.053 202.796C205.053 206.812 206.137 210.622 208.104 213.522C210.246 216.68 213.313 218.491 216.518 218.491C219.724 218.491 222.791 216.68 224.932 213.522C226.9 210.622 227.983 206.812 227.983 202.796C227.983 198.78 226.9 194.97 224.932 192.07Z" fill="#7DD6BE"/>
                <path d="M198.896 192.07C196.754 188.912 193.688 187.101 190.482 187.101C187.276 187.101 184.209 188.912 182.068 192.07C180.1 194.97 179.017 198.78 179.017 202.796C179.017 206.812 180.1 210.621 182.068 213.522C184.209 216.68 187.276 218.491 190.482 218.491C193.688 218.491 196.754 216.68 198.896 213.522C200.863 210.621 201.947 206.812 201.947 202.796C201.947 198.78 200.863 194.97 198.896 192.07Z" fill="#7DD6BE"/>
                <path d="M246.494 216.706C245.63 213.769 243.78 211.635 241.283 210.697C239.274 209.943 237.006 210.071 234.897 211.058C231.99 212.418 229.615 215.226 228.379 218.763C227.37 221.653 227.244 224.708 228.025 227.365C228.888 230.302 230.739 232.436 233.236 233.374C234.1 233.698 235.011 233.859 235.938 233.859C237.166 233.859 238.42 233.576 239.622 233.013C242.529 231.653 244.904 228.845 246.14 225.308V225.308C247.149 222.418 247.275 219.363 246.494 216.706Z" fill="#7DD6BE"/>
                <path d="M178.621 218.763C177.386 215.226 175.01 212.418 172.104 211.058C169.994 210.071 167.726 209.943 165.717 210.697C163.22 211.635 161.37 213.769 160.506 216.706C159.725 219.363 159.851 222.418 160.861 225.308V225.308C162.096 228.845 164.472 231.653 167.378 233.013C168.581 233.576 169.834 233.859 171.062 233.859C171.989 233.859 172.901 233.698 173.765 233.373C176.262 232.435 178.112 230.301 178.976 227.365C179.756 224.708 179.63 221.653 178.621 218.763Z" fill="#7DD6BE"/>
            </g>
            <g clip-path="url(#clip10)">
                <path d="M224.334 706.446C218.48 699.379 211.082 695.487 203.5 695.487C195.918 695.487 188.52 699.379 182.666 706.446C177.405 712.799 174.264 720.805 174.264 727.862C174.264 731.291 175.312 733.902 177.379 735.624C179.419 737.324 182.113 737.899 185.118 737.899C188.315 737.899 191.865 737.248 195.354 736.608C198.402 736.049 201.281 735.521 203.5 735.521C205.416 735.521 208.116 736.022 210.975 736.553C217.656 737.793 225.228 739.199 229.602 735.562C231.682 733.833 232.736 731.242 232.736 727.862C232.736 720.805 229.595 712.799 224.334 706.446Z" fill="#7DD6BE"/>
                <path d="M224.932 668.07C222.791 664.912 219.724 663.101 216.518 663.101C213.312 663.101 210.246 664.912 208.104 668.07C206.137 670.97 205.053 674.78 205.053 678.796C205.053 682.812 206.137 686.622 208.104 689.522C210.246 692.68 213.313 694.491 216.518 694.491C219.724 694.491 222.791 692.68 224.932 689.522C226.9 686.622 227.983 682.812 227.983 678.796C227.983 674.78 226.9 670.97 224.932 668.07Z" fill="#7DD6BE"/>
                <path d="M198.896 668.07C196.754 664.912 193.688 663.101 190.482 663.101C187.276 663.101 184.209 664.912 182.068 668.07C180.1 670.97 179.017 674.78 179.017 678.796C179.017 682.812 180.1 686.621 182.068 689.522C184.209 692.68 187.276 694.491 190.482 694.491C193.688 694.491 196.754 692.68 198.896 689.522C200.863 686.621 201.947 682.812 201.947 678.796C201.947 674.78 200.863 670.97 198.896 668.07Z" fill="#7DD6BE"/>
                <path d="M246.494 692.706C245.63 689.769 243.78 687.635 241.283 686.697C239.274 685.943 237.006 686.071 234.897 687.058C231.99 688.418 229.615 691.226 228.379 694.763C227.37 697.653 227.244 700.708 228.025 703.365C228.888 706.302 230.739 708.436 233.236 709.374C234.1 709.698 235.011 709.859 235.938 709.859C237.166 709.859 238.42 709.576 239.622 709.013C242.529 707.653 244.904 704.845 246.14 701.308V701.308C247.149 698.418 247.275 695.363 246.494 692.706Z" fill="#7DD6BE"/>
                <path d="M178.621 694.763C177.386 691.226 175.01 688.418 172.104 687.058C169.994 686.071 167.726 685.943 165.717 686.697C163.22 687.635 161.37 689.769 160.506 692.706C159.725 695.363 159.851 698.418 160.861 701.308V701.308C162.096 704.845 164.472 707.653 167.378 709.013C168.581 709.576 169.834 709.859 171.062 709.859C171.989 709.859 172.901 709.698 173.765 709.373C176.262 708.435 178.112 706.301 178.976 703.365C179.756 700.708 179.63 697.653 178.621 694.763Z" fill="#7DD6BE"/>
            </g>
            <g clip-path="url(#clip11)">
                <path d="M224.334 468.446C218.48 461.379 211.082 457.487 203.5 457.487C195.918 457.487 188.52 461.379 182.666 468.446C177.405 474.799 174.264 482.805 174.264 489.862C174.264 493.291 175.312 495.902 177.379 497.624C179.419 499.324 182.113 499.899 185.118 499.899C188.315 499.899 191.865 499.248 195.354 498.608C198.402 498.049 201.281 497.521 203.5 497.521C205.416 497.521 208.116 498.022 210.975 498.552C217.656 499.793 225.228 501.198 229.602 497.561C231.682 495.833 232.736 493.242 232.736 489.862C232.736 482.805 229.595 474.799 224.334 468.446Z" fill="#7DD6BE"/>
                <path d="M224.932 430.07C222.791 426.912 219.724 425.101 216.518 425.101C213.312 425.101 210.246 426.912 208.104 430.07C206.137 432.97 205.053 436.78 205.053 440.796C205.053 444.812 206.137 448.622 208.104 451.522C210.246 454.68 213.313 456.491 216.518 456.491C219.724 456.491 222.791 454.68 224.932 451.522C226.9 448.622 227.983 444.812 227.983 440.796C227.983 436.78 226.9 432.97 224.932 430.07Z" fill="#7DD6BE"/>
                <path d="M198.896 430.07C196.754 426.912 193.688 425.101 190.482 425.101C187.276 425.101 184.209 426.912 182.068 430.07C180.1 432.97 179.017 436.78 179.017 440.796C179.017 444.812 180.1 448.621 182.068 451.522C184.209 454.68 187.276 456.491 190.482 456.491C193.688 456.491 196.754 454.68 198.896 451.522C200.863 448.621 201.947 444.812 201.947 440.796C201.947 436.78 200.863 432.97 198.896 430.07Z" fill="#7DD6BE"/>
                <path d="M246.494 454.706C245.63 451.769 243.78 449.635 241.283 448.697C239.274 447.943 237.006 448.071 234.897 449.058C231.99 450.418 229.615 453.226 228.379 456.763C227.37 459.653 227.244 462.708 228.025 465.365C228.888 468.302 230.739 470.436 233.236 471.374C234.1 471.698 235.011 471.859 235.938 471.859C237.166 471.859 238.42 471.576 239.622 471.013C242.529 469.653 244.904 466.845 246.14 463.308V463.308C247.149 460.418 247.275 457.363 246.494 454.706Z" fill="#7DD6BE"/>
                <path d="M178.621 456.763C177.386 453.226 175.01 450.418 172.104 449.058C169.994 448.071 167.726 447.943 165.717 448.697C163.22 449.635 161.37 451.769 160.506 454.706C159.725 457.363 159.851 460.418 160.861 463.308V463.308C162.096 466.845 164.472 469.653 167.378 471.013C168.581 471.576 169.834 471.859 171.062 471.859C171.989 471.859 172.901 471.698 173.765 471.373C176.262 470.435 178.112 468.301 178.976 465.365C179.756 462.708 179.63 459.653 178.621 456.763Z" fill="#7DD6BE"/>
            </g>
            <g clip-path="url(#clip12)">
                <path d="M105.334 816.446C99.4804 809.379 92.0816 805.487 84.5001 805.487C76.9185 805.487 69.5196 809.379 63.6665 816.446C58.4052 822.799 55.2642 830.805 55.2642 837.862C55.2642 841.291 56.3122 843.902 58.3792 845.624C60.4193 847.324 63.1127 847.899 66.1176 847.899C69.315 847.899 72.8653 847.248 76.3537 846.608C79.4019 846.049 82.2811 845.521 84.5002 845.521C86.4156 845.521 89.1162 846.022 91.9748 846.553C98.6556 847.793 106.228 849.199 110.602 845.562C112.682 843.833 113.736 841.242 113.736 837.862C113.736 830.805 110.595 822.799 105.334 816.446Z" fill="#7DD6BE"/>
                <path d="M105.932 778.07C103.791 774.912 100.724 773.101 97.5182 773.101C94.3124 773.101 91.2459 774.912 89.1042 778.07C87.1368 780.97 86.0532 784.78 86.0532 788.796C86.0532 792.812 87.1366 796.622 89.1042 799.522C91.2459 802.68 94.3126 804.491 97.5182 804.491C100.724 804.491 103.791 802.68 105.932 799.522C107.9 796.622 108.983 792.812 108.983 788.796C108.983 784.78 107.9 780.97 105.932 778.07Z" fill="#7DD6BE"/>
                <path d="M79.8958 778.07C77.7541 774.912 74.6876 773.101 71.4818 773.101C68.2761 773.101 65.2093 774.912 63.0678 778.07C61.1004 780.97 60.0168 784.78 60.0168 788.796C60.0168 792.812 61.1003 796.621 63.0678 799.522C65.2095 802.68 68.2761 804.491 71.4818 804.491C74.6876 804.491 77.7541 802.68 79.8958 799.522C81.8632 796.621 82.9468 792.812 82.9468 788.796C82.9466 784.78 81.8632 780.97 79.8958 778.07Z" fill="#7DD6BE"/>
                <path d="M127.494 802.706C126.63 799.769 124.78 797.635 122.283 796.697C120.274 795.943 118.006 796.071 115.897 797.058C112.99 798.418 110.615 801.226 109.379 804.763C108.37 807.653 108.244 810.708 109.025 813.365C109.888 816.302 111.739 818.436 114.236 819.374C115.1 819.698 116.011 819.859 116.938 819.859C118.166 819.859 119.42 819.576 120.622 819.013C123.529 817.653 125.904 814.845 127.14 811.308V811.308C128.149 808.418 128.275 805.363 127.494 802.706Z" fill="#7DD6BE"/>
                <path d="M59.6211 804.763C58.3856 801.226 56.0099 798.418 53.1036 797.058C50.9943 796.071 48.7262 795.943 46.7172 796.697C44.2204 797.635 42.3698 799.769 41.5064 802.706C40.7253 805.363 40.8512 808.418 41.8607 811.308V811.308C43.0964 814.845 45.4719 817.653 48.3782 819.013C49.5806 819.576 50.8344 819.859 52.0625 819.859C52.9889 819.859 53.9007 819.698 54.7646 819.373C57.2617 818.435 59.1122 816.301 59.9756 813.365C60.7563 810.708 60.6304 807.653 59.6211 804.763Z" fill="#7DD6BE"/>
            </g>
        </g>
    </g>
    <defs>
        <filter id="filter0_d" x="18" y="202" width="339" height="322" filterUnits="userSpaceOnUse" color-interpolation-filters="sRGB">
            <feFlood flood-opacity="0" result="BackgroundImageFix"/>
            <feColorMatrix in="SourceAlpha" type="matrix" values="0 0 0 0 0 0 0 0 0 0 0 0 0 0 0 0 0 0 127 0"/>
            <feOffset dy="2"/>
            <feGaussianBlur stdDeviation="1"/>
            <feColorMatrix type="matrix" values="0 0 0 0 0 0 0 0 0 0 0 0 0 0 0 0 0 0 0.25 0"/>
            <feBlend mode="normal" in2="BackgroundImageFix" result="effect1_dropShadow"/>
            <feBlend mode="normal" in="SourceGraphic" in2="effect1_dropShadow" result="shape"/>
        </filter>
        <clipPath id="clip0">
            <rect width="375" height="812" fill="white"/>
        </clipPath>
        <clipPath id="clip1">
            <rect width="375" height="812" fill="white"/>
        </clipPath>
        <clipPath id="clip2">
            <rect width="87" height="87" fill="white" transform="translate(41 55)"/>
        </clipPath>
        <clipPath id="clip3">
            <rect width="87" height="87" fill="white" transform="translate(263 49)"/>
        </clipPath>
        <clipPath id="clip4">
            <rect width="87" height="87" fill="white" transform="translate(41 532)"/>
        </clipPath>
        <clipPath id="clip5">
            <rect width="87" height="87" fill="white" transform="translate(41 293)"/>
        </clipPath>
        <clipPath id="clip6">
            <rect width="87" height="87" fill="white" transform="translate(264 289)"/>
        </clipPath>
        <clipPath id="clip7">
            <rect width="87" height="87" fill="white" transform="translate(264 769)"/>
        </clipPath>
        <clipPath id="clip8">
            <rect width="87" height="87" fill="white" transform="translate(264 529)"/>
        </clipPath>
        <clipPath id="clip9">
            <rect width="87" height="87" fill="white" transform="translate(160 181)"/>
        </clipPath>
        <clipPath id="clip10">
            <rect width="87" height="87" fill="white" transform="translate(160 657)"/>
        </clipPath>
        <clipPath id="clip11">
            <rect width="87" height="87" fill="white" transform="translate(160 419)"/>
        </clipPath>
        <clipPath id="clip12">
            <rect width="87" height="87" fill="white" transform="translate(41 767)"/>
        </clipPath>
    </defs>
</svg>
