<svg width="157" height="125" viewBox="0 0 157 125" fill="none" xmlns="http://www.w3.org/2000/svg">
    <path d="M57.6999 12.7984C57.6999 12.7984 66.5999 8.29842 78.7999 8.79842C90.9999 9.29842 98.4999 12.6984 98.4999 12.6984C98.4999 12.6984 115 -1.30159 132.9 0.0984127C132.9 0.0984127 137.5 7.49843 136.4 18.2984C135.3 29.0984 131.7 33.9984 131.7 33.9984C131.7 33.9984 137.6 42.3984 137.5 51.1984C137.5 54.2984 137.5 55.1984 137.5 55.1984C137.5 55.1984 136.5 62.1984 134.5 67.5984C134.2 72.9984 134.1 74.7984 134.1 74.7984C134.1 74.7984 108.9 65.7984 76.3999 67.5984C49.1999 67.5984 33.9999 69.8984 21.3999 75.8984C21.3999 75.8984 22.2999 72.5984 21.9999 70.1984C21.6999 67.7984 18.5999 57.2984 18.5999 53.1984C18.5999 49.0984 21.3999 39.2984 24.6999 34.9984L23.1999 31.8984C23.1999 31.8984 15.4999 17.5984 23.0999 0.198419C23.0999 0.198419 33.5999 -0.601578 44.9999 4.99842C56.4999 10.3984 57.6999 12.7984 57.6999 12.7984Z" fill="#CDD0DA"/>
    <path d="M137.5 55.0984C137.5 55.0984 143.4 56.1984 146.5 59.4984C149.6 62.7984 154 67.8984 155.3 71.5984C156.5 75.3984 154 78.2984 151.1 77.6984C151.1 77.6984 149.1 79.8984 147.3 79.3984C145.5 78.8984 143.5 76.4984 143.5 75.4984L142.5 74.8984C142.5 74.8984 136.3 70.1984 134.3 69.9984C134.3 69.9984 134.2 67.4984 135.6 63.8984C137.1 60.4984 137.5 55.0984 137.5 55.0984Z" fill="#CDD0DA"/>
    <path d="M19.0999 54.8984C19.0999 54.8984 13.1999 55.9984 10.0999 59.2984C6.99993 62.5984 2.59994 67.6984 1.29994 71.3984C0.0999438 75.1984 2.59996 78.0984 5.49996 77.4984C5.49996 77.4984 7.49994 79.6984 9.29994 79.1984C11.0999 78.6984 13.0999 76.2984 13.0999 75.2984L14.0999 74.6984C14.0999 74.6984 20.2999 69.9984 22.2999 69.7984C22.2999 69.7984 22.4 67.2984 21 63.6984C19.6 60.0984 19.0999 54.8984 19.0999 54.8984Z" fill="#CDD0DA"/>
    <path d="M125 101.698C125 101.698 127.5 101.198 128.6 102.798C129.7 104.298 127.8 107.898 127.8 107.898C127.8 107.898 129.2 107.598 129.9 108.698C130.6 109.798 130 115.998 116 121.098C102 126.198 91.0999 121.198 90.5999 116.598C90.0999 111.998 98.5999 102.598 106.8 100.598C115 98.5985 122.9 96.7985 124.6 99.1985C125.4 100.898 125 101.698 125 101.698Z" fill="#CDD0DA"/>
    <path d="M65.7999 116.598C65.2999 121.198 54.3999 126.198 40.3999 121.098C31.8999 117.998 28.2999 114.498 26.9999 111.898C26.1999 110.298 26.1999 109.098 26.4999 108.598C27.1999 107.498 28.5999 107.798 28.5999 107.798C28.5999 107.798 26.6999 104.298 27.7999 102.698C28.8999 101.098 31.3999 101.598 31.3999 101.598C31.3999 101.598 30.9999 100.798 31.8999 99.0984C33.5999 96.6984 41.5999 98.4984 49.6999 100.498C53.1999 101.398 56.8999 103.698 59.7999 106.398C63.5999 109.898 66.0999 113.998 65.7999 116.598Z" fill="#CDD0DA"/>
    <path opacity="0.71" d="M65.9999 27.5984C65.9999 27.5984 70.9999 23.8984 77.9999 23.8984C84.9999 23.8984 90.0999 27.5984 90.0999 27.5984L93.1999 26.9984C93.1999 26.9984 87.6999 34.1984 85.5999 41.0984C84.0999 44.4984 78.6999 44.6984 78.6999 44.6984C78.6999 44.6984 71.4999 43.5984 70.9999 42.2984C70.5999 41.0984 66.7999 29.1984 63.5999 26.9984L65.9999 27.5984Z" fill="#A3A7AF"/>
    <path d="M19.2 48.6985C19.2 48.6985 16.9 54.3985 23.5 57.6985C23.5 57.6985 20.2 67.6985 30 72.0985L21.4 75.7985C21.4 75.7985 22.4999 70.6985 22.0999 68.3985C21.6999 66.0985 15.7 54.4985 19.2 48.6985Z" fill="#646D78"/>
    <path d="M11.6999 57.9984C11.5999 58.0984 19.7999 60.9984 16.6999 67.4984C13.6999 73.9984 11.6999 71.5984 11.6999 71.5984L13.1999 75.3984C13.1999 75.3984 19.6999 69.9984 21.4999 69.9984C21.4999 69.9984 20.5999 65.1984 19.8999 62.1984C19.0999 59.0984 19.1999 54.8984 19.1999 54.8984C19.1999 54.8984 12.4999 57.3984 11.6999 57.9984Z" fill="#646D78"/>
    <path d="M26.6999 5.49837C26.6999 5.49837 22.0999 2.49837 20.5999 23.3984L24.3999 33.9984L29.9999 27.4984L26.6999 5.49837Z" fill="#646D78"/>
    <path d="M137 48.2985C137 48.2985 139.3 53.9985 132.7 57.2985C132.7 57.2985 136 67.2985 126.2 71.6985L134.8 75.3985C134.8 75.3985 133.7 70.2985 134.1 67.9985C134.4 65.6985 140.6 54.0985 137 48.2985Z" fill="#646D78"/>
    <path d="M144.6 57.6984C144.7 57.7984 136.5 60.6984 139.6 67.1984C142.6 73.6984 144.6 71.2984 144.6 71.2984L143.1 75.0984C143.1 75.0984 136.6 69.6984 134.8 69.6984C134.8 69.6984 135.7 64.8984 136.4 61.8984C137.2 58.7984 137.1 54.5984 137.1 54.5984C137.1 54.5984 143.8 57.0984 144.6 57.6984Z" fill="#646D78"/>
    <path d="M129.5 5.09847C129.5 5.09847 134.1 2.09848 135.6 22.9985L131.8 33.5985L126.2 27.0985L129.5 5.09847Z" fill="#646D78"/>
    <path d="M30.7999 52.2984C30.7999 52.2984 52.8999 45.8984 79.2999 45.8984C105.7 45.8984 124.8 52.2984 124.8 52.2984" stroke="white" stroke-width="2" stroke-miterlimit="10" stroke-linecap="round" stroke-linejoin="round"/>
    <path d="M73.5998 43.7984L73.1999 44.8984C73.1999 44.8984 72.8999 44.8984 72.3999 44.8984C72.1999 44.8984 71.9999 44.8984 71.6999 44.8984C71.6999 44.8984 71.5999 44.8984 71.4999 44.8984C65.6999 45.1984 46.1999 46.1984 42.9999 47.3984C42.9999 47.3984 42.3999 42.1984 42.8999 37.7984C43.0999 36.2984 43.3999 34.9984 43.8999 33.8984C45.8999 29.4984 48.8999 26.3984 48.8999 26.3984C48.8999 26.3984 56.0999 24.4984 62.1999 26.5984C62.1999 26.5984 64.4999 27.8984 66.3999 31.4984C68.2999 35.0984 70.7999 42.3984 70.7999 42.3984L73.5998 43.7984Z" fill="#F8F8F9"/>
    <path d="M93.8999 26.4985C93.8999 26.4985 91.5999 27.7985 89.6999 31.3985C87.7999 34.9985 85.2999 42.2985 85.2999 42.2985L82.5999 43.6985L82.9999 44.7985C82.9999 44.7985 109.3 45.8985 113.1 47.3985C113.1 47.3985 114.2 38.2985 112.2 33.8985C110.2 29.4985 107.2 26.3985 107.2 26.3985C107.2 26.3985 99.9999 24.4985 93.8999 26.4985Z" fill="#F8F8F9"/>
    <path d="M29.9998 72.0984C29.9998 72.0984 79.6999 61.0985 125.4 72.1985C125.4 72.1985 132.4 69.9984 133.3 63.5984C134.2 57.1985 134.2 45.8985 82.8999 44.7985C82.8999 44.7985 81.7998 47.6985 77.9998 47.6985C74.1998 47.6985 73.0998 44.8985 73.0998 44.8985C73.0998 44.8985 37.4999 46.3985 30.6999 50.6985C27.6999 52.5985 25.6999 54.5985 24.3999 56.3985C22.7999 58.6985 22.2998 60.8985 22.5998 62.3985C23.1998 65.1985 25.2998 70.2985 29.9998 72.0984Z" fill="#FFF7E4"/>
    <path d="M71.5999 44.8985C71.5999 44.8985 75.6999 47.5985 78.1999 47.5985C80.6999 47.5985 83.0999 47.0985 84.8999 44.6985L78.0999 45.5985L71.5999 44.8985Z" fill="#E49B56"/>
    <path d="M73.2999 44.5984C73.2999 44.5984 75.1 42.0984 78.2 42.0984C81.3 42.0984 82.9999 44.6984 82.9999 44.6984C82.9999 44.6984 81.8999 47.3984 78.0999 47.5984C74.2999 47.7984 73.2999 44.5984 73.2999 44.5984Z" fill="black"/>
    <path d="M135.4 90.4984C134.5 94.3984 133.7 97.3984 132.5 99.6984C131.6 101.398 130.5 102.798 129 103.798C129 103.798 127.3 100.998 125.1 102.198C125.1 102.198 125.1 100.298 124.2 99.4984C123.4 98.6984 118.1 96.3984 104.4 101.898C103.3 102.298 102.2 102.798 101.1 103.298C91.3999 108.598 90.2 115.098 90.2 115.098C90.2 115.098 89.3 115.398 87.7 115.798C83.4 116.798 74.3999 118.098 65.0999 114.598C65.0999 114.598 62.7 107.098 51.9 102.198C50 101.298 47.9 100.598 45.5 99.9984C28.6 94.8984 31 101.998 31 101.998L30.7 102.298C30.7 102.298 28.2999 101.398 26.7999 104.098C26.7999 104.098 21 101.498 20 90.3984C19.4 79.2984 21.0999 76.1984 21.0999 76.1984C21.0999 76.1984 37.8999 67.2984 76.5999 67.8984C115.3 68.4984 133.8 75.0984 133.8 75.0984C133.8 75.0984 137 83.5984 135.4 90.4984Z" fill="#A1D469"/>
    <path opacity="0.61" d="M132.9 99.3985C132 101.098 130.9 102.498 129.4 103.498C129.4 103.498 127.7 100.698 125.5 101.898C125.5 101.898 125.5 99.9985 124.6 99.1985C123.7 98.3985 117.6 95.6985 101.5 102.998C91.7999 108.298 90.5999 114.798 90.5999 114.798C90.5999 114.798 89.6999 115.098 88.0999 115.498C88.0999 115.498 97.6999 88.0985 123.4 94.4985C128.2 95.5985 131.2 97.3985 132.9 99.3985Z" fill="#5086C5"/>
    <path d="M98 31.2984C100.3 31.1984 101.9 36.4984 101.9 38.7984C101.9 41.0984 101.5 45.7984 98 45.9984C94.5 46.1984 94 40.3984 94 39.4984C94 38.5984 94.2 31.3984 98 31.2984Z" fill="url(#paint0_radial)"/>
    <path d="M56.9 31.5984C58.2 31.6984 60.4999 32.8984 60.5999 39.5984C60.6999 46.2984 56.2999 45.8984 56.2999 45.8984C56.2999 45.8984 52.8 45.3984 52.7 38.3984C53.2 31.5984 56.9 31.5984 56.9 31.5984Z" fill="url(#paint1_radial)"/>
    <path d="M129.4 5.39844C129.4 5.39844 116.3 8.99845 112.3 13.2984C112.3 13.2984 118.6 12.2984 120.8 13.2984C120.8 13.2984 115.6 15.7984 114.6 17.5984C114.6 17.5984 120.4 16.9984 121.7 17.5984C123 18.1984 119.3 22.1984 119.3 22.1984C119.3 22.1984 128.5 28.8984 129.1 30.2984C129.6 31.7984 133.6 9.39844 129.4 5.39844Z" fill="#FAE7BE"/>
    <path d="M26.6999 5.49841C26.6999 5.49841 39.7998 9.09841 43.7998 13.3984C43.7998 13.3984 37.4998 12.3984 35.2998 13.3984C35.2998 13.3984 40.4998 15.8984 41.4998 17.6984C41.4998 17.6984 35.6999 17.0984 34.3999 17.6984C33.0999 18.2984 36.7998 22.2984 36.7998 22.2984C36.7998 22.2984 27.5998 28.9984 26.9998 30.3984C26.3998 31.8984 22.4999 9.49841 26.6999 5.49841Z" fill="#FAE7BE"/>
    <path d="M43.2999 4.09839C43.2999 4.09839 51.3999 9.8984 50.7999 13.2984C50.2999 16.6984 54.3999 14.7984 54.7999 14.5984C55.1999 14.2984 57.7 12.7984 57.7 12.7984C57.7 12.7984 47.8999 4.89839 43.2999 4.09839Z" fill="#646D78"/>
    <path d="M112.9 4.39844C112.9 4.39844 104.8 10.1984 105.4 13.5984C105.9 16.9984 101.8 15.0984 101.4 14.8984C101 14.5984 98.5 13.0984 98.5 13.0984C98.5 13.0984 108.4 5.19844 112.9 4.39844Z" fill="#646D78"/>
    <path d="M71.4 11.7985C71.4 11.7985 64.3 16.5985 62.7 15.6985C62.7 15.6985 65.5 18.2985 68.2 17.1985C70.9 16.0985 72.0999 13.6985 72.0999 13.6985C72.0999 13.6985 74.8999 17.1984 78.0999 17.0984C81.2999 16.9984 83.7 13.3985 83.7 13.3985C83.7 13.3985 86.8999 17.1984 88.9999 17.0984C91.0999 16.9984 93.2999 16.0984 93.2999 16.0984C93.2999 16.0984 87 14.7985 84.4 11.8985C84.4 11.8985 81.4 14.8985 78.2 14.8985C74.9 14.7985 71.4 11.7985 71.4 11.7985Z" fill="#646D78"/>
    <path d="M65.8 116.598C65.3 121.198 54.4 126.198 40.4 121.098C31.9 117.998 28.3 114.498 27 111.898C27.7 112.198 58.4 122.598 59.7 106.898C59.7 106.698 59.7 106.598 59.7 106.398C63.6 109.898 66.1 113.998 65.8 116.598Z" fill="#656D79"/>
    <path d="M90.4 116.198C90.9 120.798 101.8 125.798 115.8 120.698C124.3 117.598 127.9 114.098 129.2 111.498C128.5 111.798 97.8 122.198 96.5 106.498C96.5 106.298 96.5 106.198 96.5 105.998C92.7 109.498 90.1 113.698 90.4 116.198Z" fill="#656D79"/>
    <path opacity="0.61" d="M23.5 99.3985C24.4 101.098 25.5 102.498 27 103.498C27 103.498 28.7 100.698 30.9 101.898C30.9 101.898 30.9 99.9985 31.8 99.1985C32.7 98.3985 38.8 95.6985 54.9 102.998C64.6 108.298 65.8 114.798 65.8 114.798C65.8 114.798 66.7 115.098 68.3 115.498C68.3 115.498 58.7 88.0985 33 94.4985C28.2 95.5985 25.2 97.3985 23.5 99.3985Z" fill="#5086C5"/>
    <path d="M20.5999 57.5984C20.5999 57.5984 17.3 39.7984 36.9 23.3984" stroke="white" stroke-width="3" stroke-miterlimit="10" stroke-linecap="round" stroke-linejoin="round"/>
    <path d="M23.4999 1.89844C23.4999 1.89844 18.4999 17.6984 23.4999 28.6984" stroke="white" stroke-width="3" stroke-miterlimit="10" stroke-linecap="round" stroke-linejoin="round"/>
    <path d="M2.69995 70.2984C2.69995 70.2984 6.39994 63.2984 16.4999 57.5984" stroke="white" stroke-width="3" stroke-miterlimit="10" stroke-linecap="round" stroke-linejoin="round"/>
    <path d="M101.7 11.7985C101.7 11.7985 113.9 4.19846 130.9 1.79846" stroke="white" stroke-width="3" stroke-miterlimit="10" stroke-linecap="round" stroke-linejoin="round"/>
    <path d="M145 60.0984C145 60.0984 154.5 68.9984 154.4 72.9984" stroke="white" stroke-width="3" stroke-miterlimit="10" stroke-linecap="round" stroke-linejoin="round"/>
    <path d="M118.3 21.4984C118.3 21.4984 135.2 37.3984 137.1 56.3984" stroke="white" stroke-width="3" stroke-miterlimit="10" stroke-linecap="round" stroke-linejoin="round"/>
    <path d="M33.2 99.4984C33.2 99.4984 57.5999 99.4984 63.4999 114.098" stroke="white" stroke-width="3" stroke-miterlimit="10" stroke-linecap="round" stroke-linejoin="round"/>
    <path d="M123 99.9984C123 99.9984 98.6 99.9984 92.7 114.598" stroke="white" stroke-width="3" stroke-miterlimit="10" stroke-linecap="round" stroke-linejoin="round"/>
    <path d="M34.9999 41.6984C31.4999 43.1984 32 45.0984 32.4 45.6984C32.8 46.2984 34.4999 46.8984 36.5999 45.6984C38.7999 44.4984 39.6999 42.8984 39.0999 41.6984C38.4999 40.4984 34.9999 41.6984 34.9999 41.6984Z" fill="#656D79"/>
    <path d="M123.8 41.6984C127.3 43.1984 126.8 45.0984 126.4 45.6984C126 46.2984 124.3 46.8984 122.2 45.6984C120 44.4984 119.1 42.8984 119.7 41.6984C120.3 40.4984 123.8 41.6984 123.8 41.6984Z" fill="#656D79"/>
    <path d="M97.9 42.5984C99.115 42.5984 100.1 40.5837 100.1 38.0984C100.1 35.6131 99.115 33.5984 97.9 33.5984C96.6849 33.5984 95.7 35.6131 95.7 38.0984C95.7 40.5837 96.6849 42.5984 97.9 42.5984Z" fill="#0A351F"/>
    <path d="M56.5999 42.7985C57.8149 42.7985 58.7999 40.7837 58.7999 38.2985C58.7999 35.8132 57.8149 33.7985 56.5999 33.7985C55.3848 33.7985 54.3999 35.8132 54.3999 38.2985C54.3999 40.7837 55.3848 42.7985 56.5999 42.7985Z" fill="#0A351F"/>
    <path opacity="0.81" d="M73.6 43.7984L73.2 44.8984C73.2 44.8984 72.9 44.8984 72.4 44.8984C72.1 44.8984 71.9 44.8984 71.7 44.8984H71.6C70 44.7984 68.1 34.9984 58.8 31.2984C50.2 27.7984 44 36.2984 43 37.7984C43.2 36.2984 43.5 34.9984 44 33.8984C46 29.4984 49 26.3984 49 26.3984C49 26.3984 56.2 24.4984 62.3 26.5984C62.3 26.5984 64.6 27.8984 66.5 31.4984C68.4 35.0984 70.9 42.3984 70.9 42.3984L73.6 43.7984Z" fill="#D5D9E0"/>
    <path opacity="0.81" d="M82.8999 43.5984L83.2999 44.6984C83.2999 44.6984 83.5999 44.6984 84.0999 44.6984C84.3999 44.6984 84.5999 44.6984 84.7999 44.6984H84.8999C86.4999 44.5984 88.3999 34.7984 97.6999 31.0984C106.3 27.5984 112.5 36.0984 113.5 37.5984C113.3 36.0984 113 34.7984 112.5 33.6984C110.5 29.2984 107.5 26.1984 107.5 26.1984C107.5 26.1984 100.3 24.2984 94.1999 26.3984C94.1999 26.3984 91.8999 27.6985 89.9999 31.2985C88.0999 34.8985 85.5999 42.1984 85.5999 42.1984L82.8999 43.5984Z" fill="#D5D9E0"/>
    <path opacity="0.33" d="M31.7 50.1985C31.7 50.1985 25.8 67.8985 60.2 67.6985L30.1 71.9985C30 72.0985 12.2 62.3985 31.7 50.1985Z" fill="#E49B56"/>
    <path opacity="0.33" d="M124.7 50.2985C124.7 50.2985 130.2 68.1985 95.8999 67.1985L125.9 72.1985C125.8 72.1985 143.8 62.8985 124.7 50.2985Z" fill="#E49B56"/>
    <path opacity="0.81" d="M24.0999 77.5984C24.0999 77.5984 21.3 89.9984 26.4 99.8984" stroke="white" stroke-width="3" stroke-miterlimit="10" stroke-linecap="round" stroke-linejoin="round"/>
    <g opacity="0.56">
        <path opacity="0.56" d="M28.0999 73.6984C30.0999 72.9984 31.9 72.4984 33.8 71.9984L36.5999 71.3984L39.4 70.8984C41.3 70.4984 43.1999 70.2984 45.0999 69.9984C46.9999 69.7984 48.9 69.4984 50.8 69.2984C58.4 68.4984 66.1 68.2984 73.8 68.3984C81.5 68.3984 89.1 68.8984 96.7 69.4984L108.1 70.6984L119.4 72.1984C119.9 72.2984 120.2 72.6984 120.1 73.1984C120 73.6984 119.6 73.9984 119.1 73.8984L107.8 72.4984L96.5 71.4984C88.9 70.9984 81.3 70.5984 73.8 70.6984C66.2 70.6984 58.5999 71.0984 51.0999 71.8984C49.1999 72.0984 47.4 72.3984 45.5 72.5984C43.6 72.8984 41.8 73.1984 39.9 73.5984L37.0999 74.1984L34.4 74.8984C32.6 75.3984 30.6999 75.8984 29.0999 76.4984H29C28.2 76.7984 27.4 76.3984 27 75.6984C26.9 74.8984 27.2999 74.0984 28.0999 73.6984Z" fill="white"/>
    </g>
    <path d="M129.6 104.399C130.5 103.499 131.4 102.699 132 101.699C132.7 100.699 133.2 99.6985 133.7 98.4985C134.6 96.1985 135 93.7985 135.4 91.3985C135.8 88.9985 135.8 86.4985 135.6 84.0985C135.4 81.6985 135 79.1985 134.4 76.7985L134.5 76.8985C134.3 76.3985 134.2 76.0985 134.1 75.6985C134 75.2985 134 74.9985 133.9 74.5985C133.8 73.8985 133.8 73.1985 133.7 72.4985C133.6 71.0985 133.7 69.5985 134.1 68.2985C134.7 65.5985 135.8 62.9985 136.4 60.3985C137.6 55.1985 137 49.7985 135.5 44.6985C135.2 43.3985 134.6 42.1985 134.1 40.9985C133.8 40.3985 133.5 39.7985 133.2 39.1985C132.9 38.5985 132.6 37.9985 132.2 37.4985C130.9 35.1985 129.3 32.9985 127.5 30.9985C124 26.9985 119.8 23.3985 115.3 20.4985C115.2 20.4985 115.2 20.3985 115.3 20.2985C115.3 20.1985 115.4 20.1985 115.5 20.2985C120.5 22.6985 125 25.8985 128.8 29.9985C129.3 30.4985 129.7 30.9985 130.2 31.4985L130.9 32.2985L131.5 33.0985C131.9 33.6985 132.4 34.1985 132.8 34.7985C133.2 35.3985 133.6 35.9985 133.9 36.5985C134.3 37.1985 134.6 37.7985 134.9 38.3985C135.2 38.9985 135.6 39.5985 135.8 40.2985C136.3 41.5985 136.9 42.8985 137.2 44.2985C138.7 49.6985 139.1 55.4985 137.7 60.8985C137.1 63.5985 136 66.1985 135.4 68.6985C135.1 69.9985 135 71.1985 135 72.5985C135 73.2985 135.1 73.8985 135.1 74.5985C135.1 74.8985 135.2 75.1985 135.3 75.5985C135.3 75.8985 135.5 76.2985 135.5 76.3985V76.4985C136.1 78.9985 136.5 81.4985 136.7 83.9985C136.9 86.4985 136.9 89.0985 136.5 91.5985C136.1 94.0985 135.6 96.5985 134.6 98.9985C134.1 100.198 133.5 101.299 132.6 102.299C131.7 103.299 130.7 104.098 129.5 104.598C129.7 104.598 129.6 104.499 129.6 104.399C129.6 104.499 129.6 104.399 129.6 104.399Z" fill="black"/>
    <path d="M98.7 13.5984C100.7 11.0984 103.5 9.49846 106.1 7.79846C108.8 6.19846 111.7 4.89846 114.6 3.69846C116.1 3.09846 117.6 2.59846 119.1 2.19846C119.9 1.99846 120.6 1.79845 121.4 1.59845L122.6 1.29846L123.8 1.09845C126.9 0.39845 130.1 0.298462 133.3 0.298462H133.4C133.7 0.298462 134 0.59845 134 0.59845L134.1 0.798462L134.3 1.09845C134.4 1.29845 134.5 1.49845 134.6 1.59845C134.8 1.99845 134.9 2.29845 135.1 2.59845C135.4 3.29845 135.7 3.99846 135.9 4.69846C136.4 6.09846 136.8 7.59845 137.1 9.09845C137.7 11.9984 137.9 15.0984 137.8 18.0984C137.6 21.0984 137.1 24.0985 136.1 26.8985C135.6 28.2985 135.1 29.6985 134.4 30.9985C133.7 32.2985 133 33.5985 132.2 34.8985C132.2 34.9985 132.1 34.9985 132 34.8985C131.9 34.8985 131.9 34.7985 132 34.6985C132.5 33.2985 133.1 31.9984 133.5 30.5984C134 29.1985 134.4 27.7985 134.7 26.3985C135 24.9985 135.3 23.5985 135.5 22.1985C135.7 20.7985 135.8 19.2985 135.8 17.8985C135.9 14.9985 135.7 12.1985 135.2 9.39845C135 7.99845 134.7 6.59846 134.2 5.19846C134 4.49846 133.8 3.79846 133.5 3.19846C133.4 2.89846 133.2 2.49846 133.1 2.19846C133 1.99846 132.9 1.89846 132.9 1.69846L132.8 1.49846C132.7 1.39846 133 1.69845 133.2 1.59845H133.3C132.5 1.59845 131.8 1.59845 131 1.59845H129.8C129.4 1.59845 129 1.69846 128.6 1.69846L126.3 1.89845L124 2.29846L122.9 2.49846L121.8 2.79846C121 2.99846 120.3 3.09846 119.6 3.29846C118.1 3.79846 116.6 4.19846 115.2 4.69846C112.3 5.79846 109.5 7.19846 106.9 8.69846C104.2 10.1985 101.8 12.0984 98.9999 13.5984C98.9999 13.5984 98.8999 13.5984 98.7999 13.5984C98.6999 13.6985 98.7 13.5984 98.7 13.5984Z" fill="black"/>
    <path d="M82.9 44.5984C83.6 43.9984 84.5 43.7984 85 43.2984C85.1 43.2984 85.1 43.1984 85.2 43.1984C85.2 43.1984 85.2 43.0984 85.3 42.9984L85.5 42.3984L85.9 41.1984C86.4 39.4984 86.9 37.8984 87.6 36.1984C88.2 34.5984 88.8 32.8984 89.8 31.3984C90.1 30.9984 90.3 30.6984 90.6 30.2984C90.9 29.8984 91.2 29.5984 91.5 29.2984C92.1 28.6984 93 28.1984 93.8 27.8984C93.8 27.8984 93.9 27.8984 93.9 27.9984V28.0984C92.6 29.2984 91.8 30.6984 91 32.1984C90.2 33.6984 89.2 35.0984 88.5 36.6984C87.8 38.2984 87.2 39.8984 86.7 41.4984L86.3 42.6984C86.2 42.8984 86.2 43.0984 86.1 43.2984C86.1 43.3984 86 43.5984 85.9 43.6984C85.8 43.7984 85.7 43.8984 85.6 43.9984C85.2 44.3984 84.7 44.4984 84.3 44.6984C83.9 44.7984 83.4 44.8984 82.9 44.6984C82.9 44.7984 82.8 44.6984 82.9 44.5984C82.8 44.6984 82.9 44.5984 82.9 44.5984Z" fill="black"/>
    <path d="M113.3 47.5985C113 46.5985 113.1 45.6985 113.2 44.7985C113.2 43.8985 113.3 42.8985 113.3 41.9985C113.3 40.0985 113.1 38.2985 112.7 36.4985C112.3 34.6985 111.5 33.0985 110.5 31.5985C109.6 30.0985 108.4 28.6985 107.1 27.2985V27.1985H107.2C109.1 27.8985 110.5 29.1985 111.8 30.7985C113 32.3985 113.5 34.3985 113.8 36.2985C114.1 38.1985 114.3 40.0985 114.3 41.9985C114.3 42.9985 114.3 43.8985 114.3 44.7985C114.2 45.6985 114.2 46.6985 113.6 47.5985C113.5 47.6985 113.4 47.6985 113.3 47.5985C113.4 47.5985 113.4 47.5985 113.3 47.5985Z" fill="black"/>
    <path d="M90 28.5984C90.9 27.7984 92 27.5984 93 27.2984C94.1 26.9984 95.2 26.7984 96.2 26.5984C98.4 26.1984 100.6 25.8984 102.8 25.7984C105 25.6984 107.3 25.8984 109.5 26.7984C111.6 27.6984 113.5 29.1984 114.6 31.1984V31.2984H114.5C112.8 29.8984 111 28.7984 109 28.1984C107.1 27.5984 105 26.8984 102.9 26.8984C100.8 26.8984 98.6 27.0984 96.5 27.4984C95.4 27.6984 94.4 27.9984 93.3 28.1984C92.2 28.3984 91.2 28.7984 90.1 28.6984C90 28.7984 90 28.6984 90 28.5984C89.9 28.6984 90 28.5984 90 28.5984Z" fill="black"/>
    <path d="M82.9001 45.6985C85.9001 45.2985 88.9001 45.5985 91.9001 45.6985C94.9001 45.7985 97.9001 46.0985 100.9 46.3985C103.9 46.6985 106.9 46.8985 109.9 47.2985C112.9 47.6985 115.9 48.0985 118.8 48.7985C120.3 49.0985 121.8 49.4985 123.2 49.8985L125.4 50.6985C126.1 50.9985 126.8 51.3985 127.5 51.6985C130.2 53.2985 132.5 55.5985 133.7 58.5985C134.8 61.5985 134.6 65.0985 133 67.7985C132.5 68.3985 132.2 69.1985 131.6 69.6985C131.3 69.9985 131.1 70.2985 130.8 70.5985L129.9 71.2985C129.3 71.7985 128.6 72.0985 127.9 72.3985C127.2 72.6985 126.4 72.8985 125.7 73.0985C125.7 73.0985 125.6 73.0985 125.6 72.9985C125.6 72.8985 125.6 72.8985 125.6 72.8985C126.3 72.5985 127 72.2985 127.6 71.8985C128.2 71.4985 128.9 71.0985 129.4 70.5985L130.2 69.8985C130.4 69.5985 130.7 69.2985 130.9 69.0985C131.4 68.5985 131.7 67.8985 132 67.2985C133.2 64.6985 133.3 61.6985 132.3 59.1985C132 58.5985 131.7 57.8985 131.3 57.2985L130.7 56.3985L130.4 55.9985C130.3 55.8985 130.1 55.6985 130 55.5985C129 54.5985 127.9 53.5985 126.7 52.8985C124.3 51.2985 121.4 50.4985 118.5 49.7985C115.6 49.0985 112.6 48.6985 109.7 48.2985C106.7 47.8985 103.7 47.5985 100.8 47.2985C97.8 46.9985 94.8 46.8985 91.8 46.5985C88.8 46.3985 85.8 46.3985 82.8 45.7985C82.8 45.8985 82.8001 45.7985 82.9001 45.6985C82.8001 45.6985 82.9001 45.6985 82.9001 45.6985Z" fill="black"/>
    <path d="M137.9 55.9985C139.4 55.8985 140.8 56.4985 142.1 56.9985C143.4 57.5985 144.7 58.2984 145.9 59.1984C147.1 59.9984 148.2 61.0984 149.2 62.0984C150.2 63.0984 151.2 64.1985 152.1 65.2985C153 66.3985 153.9 67.5985 154.7 68.7985C155.5 69.9985 156.2 71.3984 156.5 72.8984C156.6 73.2984 156.6 73.6984 156.6 74.0984C156.6 74.4984 156.6 74.8985 156.5 75.2985C156.3 76.0985 156.1 76.7985 155.6 77.4985C155.1 78.0985 154.5 78.6985 153.8 78.9985C153.1 79.2985 152.2 79.1984 151.5 78.8984L151.4 78.7985L151.5 78.6984C152.9 78.7984 154.1 78.0984 154.6 76.8984C154.9 76.2984 155 75.6984 155.1 75.0984C155.2 74.7984 155.1 74.4984 155.1 74.1984C155.1 73.8984 155 73.5985 154.9 73.2985C154.8 72.6985 154.5 72.0984 154.3 71.3984C154 70.7984 153.7 70.1985 153.4 69.4985C152.8 68.2985 152 67.0985 151.1 65.9985C150.2 64.8985 149.3 63.7985 148.4 62.7985C147.4 61.6985 146.5 60.7985 145.3 59.9985C144.2 59.1985 142.9 58.4985 141.6 57.9985C140.3 57.3985 139 56.9985 137.7 56.2985C137.8 56.1985 137.8 56.0985 137.9 55.9985C137.8 56.0985 137.8 55.9985 137.9 55.9985Z" fill="black"/>
    <path d="M149.6 72.6985C150.5 72.9985 150.9 73.6985 151.3 74.3985C151.7 75.0985 151.9 75.9985 151.9 76.7985C151.9 77.5985 151.7 78.4985 151.3 79.2985C150.9 80.0985 150.1 80.6985 149.3 80.8985C148.5 81.1985 147.6 81.1985 146.7 80.9985C146.3 80.8985 145.9 80.7985 145.4 80.4985C145 80.1985 144.7 79.8985 144.4 79.4985C143.4 78.0985 143.2 76.1985 143.9 74.6985C143.9 74.6985 144 74.5985 144 74.6985C144 74.6985 144 74.6985 144.1 74.7985C144.3 76.2985 144.7 77.6985 145.6 78.5985C146 79.0985 146.3 79.2985 147 79.5985C147.6 79.7985 148.3 79.8985 149 79.7985C150.3 79.4985 151 78.1985 151 76.7985C151 76.0985 150.8 75.3985 150.5 74.7985C150.2 74.0985 149.7 73.5985 149.5 72.7985C149.5 72.6985 149.5 72.6985 149.6 72.6985Z" fill="black"/>
    <path d="M134.5 70.9984C135.1 70.6984 135.5 70.8984 135.9 70.9984C136.3 71.1984 136.7 71.3984 137.2 71.5984C138 71.9984 138.9 72.3984 139.7 72.8984C140.5 73.3984 141.4 73.6984 142 74.3984C142.7 74.9984 143.3 75.7984 143.7 76.5984V76.6984C143.7 76.6984 143.7 76.6984 143.6 76.6984C142.6 76.3984 141.9 75.9984 141.1 75.4984C140.4 74.9984 139.8 74.2984 139.1 73.7984C138.4 73.2984 137.6 72.7984 136.8 72.4984C136.4 72.2984 136 72.1984 135.6 71.9984C135.2 71.7984 134.8 71.7984 134.5 71.1984C134.4 71.0984 134.4 70.9984 134.5 70.9984Z" fill="black"/>
    <path d="M122.9 53.7985C126.4 55.2985 125.9 57.1985 125.5 57.7985C125.1 58.3985 123.4 58.9985 121.3 57.7985C119.1 56.5985 118.2 54.9985 118.8 53.7985C119.4 52.5985 122.9 53.7985 122.9 53.7985Z" fill="#F7C080"/>
    <path d="M120.4 61.4984C121.9 62.0984 122.2 63.2984 121.9 63.8984C121.6 64.4984 120.2 64.7984 119 64.3984C117.8 63.9984 116.9 62.8984 117.2 61.8984C117.6 60.8984 118.8 60.7984 120.4 61.4984Z" fill="#F7C080"/>
    <path d="M104.6 19.5984C104.6 19.0984 104.8 18.5984 105.3 18.3984C105.8 18.0984 106.3 17.9984 106.8 18.0984C107.7 18.1984 108.5 18.6984 109.2 19.0984C109.9 19.5984 110.6 20.0984 111.1 20.7984C111.4 21.1984 111.6 21.5984 111.8 21.9984C112 22.4984 112 22.9984 111.8 23.4984C111.7 23.9984 111.2 24.4984 110.6 24.6984C110.1 24.8984 109.6 24.8984 109.1 24.8984C108.2 24.7984 107.3 24.4984 106.6 23.9984C105.9 23.4984 105.2 22.8984 104.7 22.0984C104.5 21.6984 104.3 21.1984 104.3 20.7984C104.2 20.3984 104.4 19.9984 104.6 19.5984ZM104.8 19.6984C104.7 20.0984 104.7 20.4984 104.8 20.7984C104.9 21.0984 105.1 21.3984 105.4 21.5984C105.9 21.9984 106.6 22.4984 107.3 22.7984C107.6 22.9984 107.9 23.0984 108.3 23.2984C108.6 23.3984 109 23.5984 109.3 23.5984C109.6 23.6984 110 23.6984 110.2 23.6984C110.5 23.5984 110.6 23.5984 110.7 23.2984C110.9 22.7984 110.7 22.0984 110.3 21.4984C109.9 20.8984 109.3 20.3984 108.7 19.8984C108.1 19.4984 107.3 19.0984 106.7 19.0984C105.9 18.8984 105.5 19.1984 104.8 19.6984Z" fill="black"/>
    <path d="M95.9 12.6985C96.3 12.3985 96.5999 12.5985 96.7999 12.6985C97.0999 12.7985 97.2999 12.8985 97.5999 13.0985C98.0999 13.2985 98.7 13.4985 99.2 13.6985C99.7 13.8985 100.4 13.9985 100.8 14.2985C101.3 14.6985 101.8 15.0985 102 15.6985C102 15.7985 102 15.7985 101.9 15.7985C101.2 15.7985 100.7 15.6985 100.1 15.4985C99.5999 15.2985 99.2 14.7985 98.7 14.4985C98.2 14.1985 97.7 13.9985 97.2 13.6985L96.4 13.3985C96.1 13.2985 95.9 13.1985 95.7 12.6985C95.8 12.7985 95.8 12.6985 95.9 12.6985Z" fill="black"/>
    <path d="M86.0001 10.3984C86.8001 10.0984 87.7001 10.0984 88.5001 10.0984C89.3001 10.0984 90.2001 10.1984 91.0001 10.3984C91.8001 10.4984 92.6001 10.6984 93.5001 10.8984C94.3001 11.0984 95.2001 11.2984 96.0001 12.0984C96.1001 12.1984 96.1001 12.2984 96.2001 12.3984C96.2001 12.4984 96.2001 12.4984 96.2001 12.5984C96.2001 12.6984 96.2001 12.7984 96.2001 12.8984C96.2001 13.0984 96.2001 13.2984 96.2001 13.4984C96.2001 13.8984 96.1001 14.1984 96.0001 14.5984C95.8001 15.2984 95.5001 15.9984 95.0001 16.5984C94.5001 17.1984 94 17.6984 93.3 18.0984C92.6 18.4984 91.9 18.6984 91.1 18.7984C90.7 18.7984 90.3001 18.8984 90.0001 18.7984C89.6001 18.7984 89.3001 18.7984 88.9001 18.5984C88.2001 18.3984 87.5001 18.0984 86.9001 17.6984C85.7001 16.7984 84.8 15.6984 84.3 14.3984C84.3 14.3984 84.3001 14.2984 84.4001 14.2984H84.5001C85.4001 15.2984 86.4001 16.0984 87.5001 16.6984C88.6001 17.2984 89.8001 17.3984 91.0001 17.2984C92.2001 17.2984 93.3 16.7984 94.1 15.8984C94.5 15.3984 94.8001 14.8984 95.0001 14.2984C95.1001 13.9984 95.2001 13.6984 95.2001 13.3984C95.2001 13.2984 95.2001 13.0984 95.2001 12.9984C95.2001 12.8984 95.2001 12.8984 95.2001 12.7984C95.2001 12.7984 95.2001 12.6984 95.2001 12.7984C95.2001 12.7984 95.2 12.8984 95.3 12.8984C94.9 12.4984 94.1001 12.1984 93.4001 11.9984C92.6001 11.7984 91.8 11.6984 91.1 11.4984C90.3 11.3984 89.5001 11.2984 88.7001 11.1984C87.9001 11.0984 87.1 11.0984 86.3 10.6984C85.9 10.4984 85.9001 10.4984 86.0001 10.3984C85.9001 10.3984 85.9001 10.3984 86.0001 10.3984Z" fill="black"/>
    <path d="M129.4 6.39848C127.9 7.19848 126.4 7.49848 124.9 8.09848C123.4 8.59848 121.9 9.19849 120.4 9.79849C118.9 10.3985 117.5 11.0985 116.1 11.8985C114.8 12.6985 113.4 13.5985 112.4 14.7985L112 14.1985C112.8 13.9985 113.6 13.7985 114.5 13.5985C115.3 13.4985 116.2 13.2985 117 13.2985C118.7 13.1985 120.4 13.1985 122.1 13.7985C122.3 13.8985 122.4 14.0985 122.4 14.2985C122.4 14.3985 122.3 14.4985 122.1 14.5985C120.8 15.0985 119.5 15.5985 118.3 16.1985C117.7 16.4985 117.1 16.8985 116.5 17.1985C115.9 17.5985 115.3 17.9985 114.9 18.4985H114.8V18.3985C115.2 17.7985 115.7 17.2985 116.3 16.7985C116.8 16.2985 117.4 15.8985 118 15.5985C119.2 14.7985 120.5 14.1985 121.8 13.6985V14.6985C121.1 14.4985 120.3 14.2985 119.5 14.2985C118.7 14.2985 117.9 14.1985 117.1 14.2985C115.5 14.3985 113.8 14.5985 112.3 14.9985C112.1 14.9985 111.9 14.8985 111.8 14.6985C111.8 14.5985 111.8 14.3985 111.9 14.3985C113 13.0985 114.4 12.2985 115.8 11.3985C117.2 10.5985 118.7 9.89849 120.1 9.29849C121.6 8.69849 123.1 7.99849 124.6 7.49849C126.1 6.99849 127.6 6.39849 129.3 6.19849C129.3 6.29849 129.4 6.29848 129.4 6.39848Z" fill="black"/>
    <path d="M122.1 107.098C123.8 105.898 124.9 103.998 125 102.098C125 101.898 125 101.598 125 101.398C125 101.298 125 101.298 124.9 101.098C124.8 100.898 124.8 100.798 124.7 100.698C124.5 100.298 124.2 99.9984 123.9 99.7984C123.1 99.3984 122 99.2984 121 99.2984C119 99.2984 116.9 99.6984 114.8 99.9984C112.7 100.398 110.7 100.798 108.7 101.398C104.7 102.598 101 104.498 97.8 107.198C96.2 108.498 94.8 110.098 93.6 111.698C93 112.498 92.5 113.398 92.1 114.398C91.7 115.298 91.4 116.298 91.4 117.198C91.4 117.998 91.9 118.998 92.6 119.698C93.2 120.398 94.1 120.998 95 121.398C96.8 122.298 98.8 122.698 100.9 122.798C102.9 122.998 105 122.998 107.1 122.798C108.1 122.798 109.2 122.598 110.2 122.498C111.2 122.298 112.2 122.198 113.2 121.998C117.2 121.198 121.2 119.598 124.5 117.098C126.2 115.898 127.7 114.498 129 112.798C129.3 112.398 129.6 111.998 129.9 111.498C130.1 111.098 130.2 110.598 130.2 110.098C130.2 109.598 130 109.098 129.6 108.898C129.2 108.598 128.7 108.598 128.2 108.698C128.1 108.698 128.1 108.698 128.1 108.598C128.1 108.598 128.1 108.498 128.2 108.498C128.7 108.398 129.3 108.398 129.8 108.698C130.3 108.998 130.6 109.598 130.7 110.198C130.8 110.798 130.7 111.298 130.5 111.898C130.3 112.398 130 112.898 129.7 113.298C128.5 115.098 126.9 116.598 125.2 117.898C121.8 120.598 117.8 122.398 113.6 123.398C112.6 123.598 111.5 123.798 110.4 123.898C109.3 123.998 108.3 124.098 107.2 124.198C105.1 124.298 102.9 124.398 100.8 124.198C98.7 123.898 96.5 123.498 94.5 122.498C93.5 121.998 92.6 121.298 91.8 120.498C91.1 119.598 90.5 118.598 90.4 117.298C90.4 116.098 90.7 114.998 91.2 113.998C91.6 112.998 92.2 111.998 92.8 111.198C94 109.398 95.5 107.798 97.2 106.498C100.5 103.798 104.4 101.798 108.5 100.598C110.6 99.9984 112.6 99.4984 114.7 99.0984C116.8 98.6984 118.9 98.3984 121.1 98.3984C122.2 98.3984 123.3 98.3984 124.4 98.9984C124.9 99.2984 125.4 99.7984 125.7 100.398C125.7 100.498 125.8 100.698 125.8 100.698C125.9 100.798 126 100.998 126 101.198C126.1 101.498 126.1 101.798 126.1 102.098C125.9 104.398 124.5 106.498 122.4 107.298H122.3C122.1 107.098 122.1 107.098 122.1 107.098Z" fill="black"/>
    <path d="M125.5 110.799C125.7 110.199 126.2 109.999 126.5 109.599C126.9 109.299 127.3 108.999 127.6 108.599C128.3 107.899 128.7 106.999 128.8 106.099C128.8 105.899 128.8 105.698 128.8 105.498C128.8 105.298 128.7 105.099 128.6 104.899C128.4 104.499 128.3 103.999 128 103.799C127.8 103.499 127.5 103.299 127.1 103.199C126.7 103.099 126.2 102.998 125.7 102.998C125.6 102.998 125.6 102.999 125.6 102.899V102.799C126 102.399 126.6 102.199 127.2 102.099C127.8 101.999 128.6 102.299 129.1 102.799C129.6 103.299 129.8 103.898 129.9 104.498C130 105.098 130 105.699 129.8 106.299C129.6 107.499 128.9 108.399 128.1 109.199C127.7 109.599 127.3 109.999 126.9 110.299C126.4 110.599 126.1 110.999 125.4 110.899C125.5 110.899 125.5 110.799 125.5 110.799Z" fill="black"/>
    <path d="M27.1 104.698C26 104.198 24.9 103.398 24 102.398C23.1 101.398 22.5 100.298 22 99.0984C21 96.6984 20.5 94.1984 20.1 91.6984C19.7 89.1984 19.7001 86.5984 19.9001 84.0984C20.1001 81.5984 20.5 79.0984 21.1 76.5984V76.4984C21.2 76.3984 21.3 75.9984 21.3 75.6984C21.4 75.3984 21.4 75.0984 21.5 74.6984C21.6 74.0984 21.6 73.3984 21.6 72.6984C21.6 71.3984 21.5 70.0984 21.2 68.7984C20.6 66.1984 19.5001 63.6984 18.9001 60.9984C18.2001 58.2984 17.9 55.4984 18.1 52.6984C18.3 49.8984 18.6 47.0984 19.5 44.4984C19.8 43.0984 20.4 41.8984 21 40.5984C21.3 39.9984 21.6001 39.2984 21.9001 38.6984C22.2001 38.0984 22.5001 37.3984 22.9001 36.8984C23.3001 36.2984 23.7 35.6984 24 35.0984C24.4 34.4984 24.8 33.9984 25.3 33.3984L25.9001 32.5984L26.6 31.7984C27.1 31.2984 27.5 30.7984 28 30.2984C31.8 26.2984 36.3 22.9984 41.2 20.4984C41.3 20.4984 41.4001 20.4984 41.4001 20.5984C41.4001 20.6984 41.4001 20.6984 41.4001 20.7984C36.9001 23.7984 32.8 27.3984 29.3 31.3984C27.6 33.3984 26 35.5984 24.7 37.8984C24.3 38.3984 24 38.9984 23.7 39.5984C23.4 40.1984 23.1 40.7984 22.8 41.3984C22.3 42.5984 21.7001 43.7984 21.4001 45.0984C19.8001 50.0984 19.1 55.5984 20.3 60.6984C20.9 63.2984 21.9 65.7984 22.6 68.5984C22.9 69.9984 23 71.3984 23 72.7984C23 73.4984 22.9 74.1984 22.8 74.8984C22.8 75.2984 22.7 75.5984 22.6 75.9984C22.5 76.3984 22.5 76.6984 22.2 77.1984L22.3 77.0984C21.7 79.4984 21.3 81.8984 21.1 84.3984C20.9 86.8984 20.9 89.2984 21.3 91.6984C21.6 94.0984 22.1 96.5984 23 98.7984C23.5 99.8984 24 100.998 24.7 101.998C25.4 102.998 26.2 103.898 27.1 104.698C27.1 104.698 27.1 104.798 27.1 104.898C27.2 104.698 27.1 104.698 27.1 104.698Z" fill="black"/>
    <path d="M57.9001 13.7985C55.1001 12.2985 52.7001 10.3985 50.0001 8.89848C47.3001 7.39848 44.5001 5.99848 41.7001 4.89848C40.3001 4.29848 38.8001 3.89849 37.3001 3.49849C36.6001 3.29849 35.8 3.09849 35.1 2.99849L34.0001 2.69849L32.9001 2.49849L30.5001 2.19849L28.2001 1.99849C27.8001 1.99849 27.4001 1.89848 27.0001 1.89848H25.8001H23.5001H23.6C23.8 1.89848 24.0001 1.69849 24.0001 1.79849L23.9001 1.99849C23.8001 2.09849 23.7001 2.29849 23.7001 2.49849C23.5001 2.79849 23.4001 3.09849 23.3001 3.49849C23.0001 4.19849 22.8 4.79849 22.6 5.49849C22.2 6.89849 21.8 8.29849 21.6 9.69849C21.1 12.4985 20.9001 15.3985 21.0001 18.2985C21.0001 21.1985 21.5 23.9985 22.1 26.7985C22.4 28.1985 22.8001 29.5985 23.3001 30.9985C23.8001 32.3985 24.3001 33.6985 24.9001 35.0985C24.9001 35.1985 24.9001 35.1985 24.8001 35.2985C24.7001 35.2985 24.7 35.2985 24.6 35.2985C23.8 34.0985 23.0001 32.7985 22.3001 31.4985C21.6001 30.1985 21.1 28.7985 20.6 27.3985C19.6 24.4985 19.1001 21.5985 18.9001 18.4985C18.7001 15.4985 19 12.3985 19.6 9.49849C19.9 7.99849 20.3001 6.59848 20.9001 5.09848C21.2001 4.39848 21.4001 3.69849 21.7001 2.99849C21.9001 2.59849 22.0001 2.29849 22.2001 1.99849C22.3001 1.79849 22.4001 1.59849 22.5001 1.49849L22.7001 1.19849L22.9001 0.998489C22.9001 0.998489 23.2001 0.698486 23.5001 0.698486H23.6C26.8 0.798486 29.9 0.898489 33.1 1.49849L34.3001 1.69849L35.5001 1.99849C36.3001 2.19849 37.0001 2.39848 37.8001 2.59848C39.3001 3.09848 40.8001 3.49848 42.3001 4.09848C45.2001 5.19848 48.1001 6.49849 50.8001 8.19849C53.5001 9.79849 56.2001 11.4985 58.2001 13.9985C58.1001 13.6985 58.1001 13.7985 57.9001 13.7985C58.0001 13.8985 57.9001 13.8985 57.9001 13.7985Z" fill="black"/>
    <path d="M73.9 44.8985C73.4 44.9985 73 44.9985 72.5 44.8985C72.1 44.6985 71.6 44.5985 71.2 44.1985C71.1 44.0985 71 43.9985 70.9 43.8985C70.8 43.7985 70.7 43.5985 70.7 43.4985C70.6 43.2985 70.6 43.0985 70.5 42.8985L70.1 41.6985C69.5 40.0985 68.9 38.3985 68.3 36.8985C67.6 35.2985 66.7 33.8985 65.9 32.3985C65.1 30.8985 64.2 29.4985 62.9 28.3985V28.2985H63C63.9 28.4985 64.8 28.9984 65.4 29.5984C65.8 29.8984 66.1 30.1984 66.3 30.5984C66.6 30.9984 66.9 31.2985 67.1 31.6985C68.1 33.1985 68.6 34.9984 69.2 36.5984C69.8 38.1985 70.4 39.8984 70.9 41.5984L71.3 42.7985L71.5 43.3985C71.5 43.4985 71.6 43.4984 71.6 43.5984C71.6 43.5984 71.7 43.6985 71.8 43.6985C72.3 44.1985 73.2 44.2985 73.9 44.9985C74 44.6985 74 44.7985 73.9 44.8985C73.9 44.7985 73.9 44.8985 73.9 44.8985Z" fill="black"/>
    <path d="M43.2999 47.6984C42.6999 46.7984 42.7999 45.8984 42.5999 44.8984C42.4999 43.9984 42.4999 42.9984 42.5999 42.0984C42.5999 40.1984 42.6999 38.2984 43.0999 36.3984C43.3999 34.4984 43.9999 32.4984 45.1999 30.9984C46.3999 29.4984 47.8999 28.0984 49.6999 27.3984C49.6999 27.3984 49.7999 27.3984 49.7999 27.4984V27.5984C48.4999 28.9984 47.3999 30.3984 46.4999 31.8984C45.5999 33.3984 44.6999 34.8984 44.1999 36.6984C43.7999 38.4984 43.5999 40.2984 43.5999 42.1984C43.5999 43.0984 43.5999 44.0984 43.6999 44.9984C43.6999 45.8984 43.8999 46.7984 43.5999 47.7984C43.3999 47.6984 43.3999 47.7984 43.2999 47.6984Z" fill="black"/>
    <path d="M66.7999 28.7984C65.5999 28.8984 64.5999 28.4984 63.5999 28.2984C62.5999 27.9984 61.5 27.7984 60.4 27.5984C58.3 27.1984 56.0999 26.9984 53.9999 26.9984C51.8999 27.0984 49.7999 27.5984 47.7999 28.1984C45.7999 28.8984 44 29.9984 42.4 31.3984C42.4 31.3984 42.3 31.3984 42.2 31.3984V31.2984C43.2 29.1984 45.2 27.7984 47.2 26.7984C49.3 25.8984 51.7 25.7984 53.9 25.8984C56.1 25.8984 58.2999 26.1984 60.4999 26.6984C61.5999 26.8984 62.7 27.0984 63.7 27.3984C64.7 27.6984 65.9 27.8984 66.7 28.6984C66.9 28.6984 66.8999 28.7984 66.7999 28.7984Z" fill="black"/>
    <path d="M73.9 45.8985C70.9 46.4985 67.9 46.4985 64.9 46.6985C61.9 46.8985 58.9 47.0985 55.9 47.3985C52.9 47.6985 49.9 47.9985 47 48.3985C44 48.7985 41.1 49.2985 38.2 49.8985C35.3 50.5985 32.4 51.3985 30 52.9985C27.5 54.4985 25.4 56.5985 24.4 59.1985C23.4 61.7985 23.4 64.8985 24.7 67.3985C26 69.9985 28.3 71.9985 31.1 72.9985L31.2 73.0985L31.1 73.1985C30.4 72.9985 29.6 72.7985 28.9 72.4985C28.2 72.0985 27.5 71.8985 26.9 71.3985L26 70.6985C25.7 70.3985 25.5 70.0985 25.2 69.7985C24.6 69.2985 24.2 68.5985 23.8 67.8985C22.2 65.0985 22 61.5985 23.1 58.5985C23.4 57.8985 23.8 57.0985 24.2 56.4985L24.9 55.4985L25.2 54.9985C25.3 54.8985 25.5 54.6985 25.6 54.5985C26.7 53.3985 28 52.4985 29.3 51.6985C30 51.2985 30.7 50.9985 31.4 50.6985L33.6 49.8985C35.1 49.3985 36.6 49.0985 38 48.7985C41 48.1985 43.9 47.6985 46.9 47.2985C49.9 46.8985 52.9 46.5985 55.9 46.3985C58.9 46.0985 61.9 45.8985 64.9 45.6985C67.9 45.5985 70.9 45.2985 73.9 45.6985C73.9 45.7985 74 45.7985 73.9 45.8985C74 45.8985 73.9 45.8985 73.9 45.8985Z" fill="black"/>
    <path d="M19 56.2985C17.7 56.9985 16.4 57.3985 15.1 57.9985C13.8 58.5985 12.6 59.1985 11.4 59.9985C10.3 60.7985 9.29999 61.7985 8.29999 62.7985C7.29999 63.7985 6.39998 64.8985 5.59998 65.9985C3.89998 68.2985 2.40001 70.6984 1.70001 73.1984C1.60001 73.4984 1.6 73.7984 1.5 74.0984C1.5 74.3984 1.5 74.6985 1.5 74.9985C1.6 75.6985 1.8 76.2984 2 76.8984C2.3 77.4984 2.69999 77.9985 3.29999 78.2985C3.79999 78.5985 4.60001 78.7984 5.20001 78.6984C5.30001 78.6984 5.29999 78.6985 5.29999 78.7985C5.29999 78.8985 5.30001 78.8984 5.20001 78.8984C4.50001 79.1984 3.70002 79.2985 2.90002 78.9985C2.10002 78.6985 1.5 78.1985 1 77.4985C0.5 76.7985 0.299976 76.0985 0.0999756 75.2985C-2.44156e-05 74.8985 0 74.4984 0 74.0984C0 73.6984 -2.44156e-05 73.2984 0.0999756 72.8984C0.299976 72.0984 0.499988 71.3984 0.799988 70.6984C1.09999 69.9984 1.50002 69.3985 1.90002 68.7985C2.70002 67.5985 3.59998 66.3985 4.59998 65.2985C5.49998 64.1985 6.5 63.0984 7.5 62.0984C8.5 61.0984 9.59999 59.9984 10.8 59.1984C12 58.2984 13.3 57.5985 14.6 56.9985C15.9 56.4985 17.3 55.8985 18.8 55.9985C19 56.0985 19 56.0985 19 56.2985C19 56.1985 19 56.2985 19 56.2985Z" fill="black"/>
    <path d="M7.29999 72.8985C7.09999 73.6985 6.59999 74.1985 6.29999 74.8985C5.99999 75.4985 5.79999 76.1985 5.79999 76.8985C5.79999 78.2985 6.59999 79.6985 7.79999 79.8985C8.39999 79.9985 9.09999 79.9985 9.79999 79.7985C10.5 79.5985 10.9 79.3985 11.3 78.7985C12.2 77.7985 12.6 76.3985 12.7 74.8985C12.7 74.7985 12.7 74.7985 12.8 74.7985H12.9C13.7 76.2985 13.5 78.1985 12.5 79.6985C12.2 80.0985 11.9 80.3985 11.5 80.6985C11 80.9985 10.6 80.9985 10.2 81.0985C9.30001 81.1985 8.49998 81.1985 7.59998 80.8985C6.69998 80.6985 5.99998 79.9985 5.59998 79.2985C5.19998 78.5985 5 77.6985 5 76.7985C5 75.9985 5.19998 75.0985 5.59998 74.3985C5.99998 73.6985 6.39999 72.8985 7.29999 72.6985C7.19999 72.6985 7.29999 72.6985 7.29999 72.8985C7.29999 72.7985 7.29999 72.7985 7.29999 72.8985Z" fill="black"/>
    <path d="M22.4 71.1984C22.1 71.6984 21.7 71.7984 21.3 71.9984C20.9 72.1984 20.5 72.2984 20.1 72.4984C19.3 72.8984 18.6 73.3985 17.8 73.7985C17.1 74.2985 16.5 74.9984 15.8 75.3984C15.4 75.5984 15.1 75.8984 14.7 76.0984C14.3 76.2984 13.9 76.5984 13.5 76.6984C13.4 76.6984 13.4 76.6984 13.4 76.5984V76.4984C13.7 75.4984 14.3 74.7984 15 74.1984C15.7 73.4984 16.6 73.2985 17.4 72.7985C18.2 72.3985 19 71.8984 19.9 71.4984C20.3 71.2984 20.7 71.0984 21.2 70.8984C21.6 70.7984 22.1 70.4984 22.6 70.8984C22.4 71.0984 22.4 71.0984 22.4 71.1984Z" fill="black"/>
    <path d="M33.9 53.8984C30.4 55.3984 30.9 57.2984 31.3 57.8984C31.7 58.4984 33.4 59.0984 35.5 57.8984C37.7 56.6984 38.6 55.0984 38 53.8984C37.4 52.6984 33.9 53.8984 33.9 53.8984Z" fill="#F7C080"/>
    <path d="M36.4 61.4985C34.9 62.0985 34.6 63.2985 34.9 63.8985C35.2 64.4985 36.5999 64.7985 37.7999 64.3985C38.9999 63.9985 39.8999 62.8985 39.5999 61.8985C39.2999 60.8985 38 60.8985 36.4 61.4985Z" fill="#F7C080"/>
    <path d="M52 19.6985C51.3 19.1985 50.9 18.8985 50.2 19.0985C49.5 19.1985 48.8 19.4985 48.2 19.8985C47.6 20.2985 47 20.8985 46.6 21.4985C46.2 22.0985 45.9 22.7985 46.2 23.2985C46.3 23.5985 46.5 23.6985 46.7 23.7985C47 23.8985 47.3 23.8985 47.6 23.7985C47.9 23.6985 48.3 23.5985 48.6 23.4985C48.9 23.3985 49.3 23.1985 49.6 22.9985C50.3 22.6985 50.9 22.1985 51.5 21.6985C51.8 21.3985 52 21.1985 52.1 20.7985C52.1 20.4985 52.1 20.0985 52 19.6985ZM52.2 19.6985C52.4 20.0985 52.6 20.4985 52.6 20.9985C52.6 21.4985 52.4 21.9985 52.2 22.3985C51.7 23.1985 51.1 23.7985 50.3 24.2985C49.5 24.7985 48.7 25.0985 47.7 25.1985C47.2 25.1985 46.7 25.1985 46.2 24.9985C45.7 24.7985 45.2 24.2985 45.1 23.7985C44.9 23.2985 44.9 22.6985 45.1 22.2985C45.3 21.7985 45.5 21.3985 45.8 21.0985C46.4 20.3985 47 19.7985 47.7 19.3985C48.4 18.8985 49.2 18.4985 50.1 18.3985C50.6 18.2985 51.1 18.3985 51.6 18.6985C51.9 18.6985 52.2 19.1985 52.2 19.6985Z" fill="black"/>
    <path d="M61.0001 12.8984C60.9001 13.3984 60.6 13.3984 60.3 13.5984L59.5001 13.8984L58.0001 14.6984C57.5001 14.9984 57.1 15.3984 56.6 15.5984C56.1 15.7984 55.5001 15.8984 54.9001 15.9984C54.8001 15.9984 54.8 15.9984 54.8 15.8984C55 15.1984 55.5001 14.6984 55.9001 14.3984C56.4001 13.9984 57 14.0984 57.6 13.8984C58.1 13.6984 58.7001 13.4984 59.2001 13.2984C59.5001 13.1984 59.7001 13.0984 60.0001 12.8984C60.3001 12.7984 60.5001 12.5984 60.9001 12.8984C61.0001 12.7984 61.0001 12.7984 61.0001 12.8984Z" fill="black"/>
    <path d="M70.8 10.5984C70 10.9984 69.2 10.9984 68.4 11.0984C67.6 11.1984 66.8 11.1984 66 11.3984C65.2 11.4984 64.4 11.5984 63.7 11.8984C63 12.0984 62.2 12.3984 61.8 12.7984C61.8 12.7984 61.9 12.7984 61.9 12.6984C61.9 12.6984 61.9 12.7984 61.9 12.8984C61.9 12.9984 61.9 13.1984 61.9 13.2984C61.9 13.5984 62 13.8984 62.1 14.1984C62.3 14.7984 62.6 15.2984 63 15.7984C63.8 16.6984 64.9 17.2984 66.1 17.2984C67.3 17.3984 68.5 17.2984 69.6 16.6984C70.7 16.0984 71.7 15.2984 72.6 14.1984C72.6 14.1984 72.7 14.0984 72.7 14.1984V14.2984C72.3 15.5984 71.4 16.7984 70.2 17.6984C69.6 18.0984 68.9 18.4984 68.2 18.6984C67.8 18.7984 67.4 18.7984 67.1 18.8984C66.7 18.8984 66.3 18.8984 66 18.8984C65.2 18.7984 64.5 18.4984 63.8 18.0984C63.1 17.6984 62.6 17.0984 62.1 16.4984C61.7 15.8984 61.4 15.1984 61.1 14.4984C61 14.0984 60.9 13.7984 60.9 13.3984C60.9 13.1984 60.9 12.9984 60.9 12.7984C60.9 12.6984 60.9 12.5984 60.9 12.4984C60.9 12.3984 60.9 12.3984 60.9 12.2984C60.9 12.1984 61 12.0984 61.1 11.9984C61.9 11.1984 62.7 11.0984 63.6 10.7984C64.4 10.5984 65.2 10.3984 66.1 10.2984C67 10.1984 67.7 10.0984 68.6 9.99842C69.4 9.99842 70.3 9.89842 71.1 10.2984C70.9 10.4984 70.9 10.4984 70.8 10.5984C70.9 10.5984 70.9 10.5984 70.8 10.5984Z" fill="black"/>
    <path d="M27.4 6.39845C29 6.49845 30.5 7.09845 32.1 7.69845C33.6 8.19845 35.1 8.79845 36.6 9.49845C38.1 10.0985 39.5 10.7984 40.9 11.5984C42.3 12.3984 43.7 13.2984 44.8 14.5984C44.9 14.6984 44.9 14.9984 44.8 15.0984C44.7 15.1984 44.6 15.1985 44.5 15.1985C42.9 14.7985 41.3 14.5984 39.7 14.3984C38.1 14.2984 36.4 14.3985 34.9 14.7985V13.9985C36.2 14.5985 37.5 15.1984 38.7 15.8984C39.3 16.2984 39.9 16.5984 40.5 17.0984C41.1 17.5984 41.6 17.9984 42 18.5984V18.6985H41.9C41.4 18.1985 40.9 17.7984 40.3 17.3984C39.7 16.9984 39.1 16.6984 38.5 16.3984C37.2 15.7984 36 15.2985 34.7 14.7985C34.4 14.6985 34.3 14.3985 34.4 14.1985C34.4 14.0985 34.6 13.8984 34.7 13.8984C36.4 13.2984 38.1 13.1984 39.8 13.3984C41.5 13.5984 43.1 13.8984 44.8 14.3984L44.4 14.9985C43.4 13.7985 42.1 12.9984 40.7 12.0984C39.3 11.2984 37.9 10.5985 36.4 9.99845C34.9 9.39845 33.4 8.79846 31.9 8.29846C30.4 7.59846 28.9 7.19845 27.4 6.39845C27.4 6.39845 27.4 6.29845 27.4 6.39845Z" fill="black"/>
    <path d="M34.6 107.298C32.6 106.498 31.1001 104.398 30.9001 102.098C30.9001 101.798 30.9001 101.498 31.0001 101.198C31.0001 101.098 31.1001 100.798 31.2001 100.698C31.2001 100.598 31.3 100.498 31.3 100.398C31.5 99.7984 32 99.2984 32.6 98.9984C33.7 98.4984 34.8001 98.3984 35.9001 98.3984C38.1001 98.3984 40.2 98.6984 42.3 99.0984C44.4 99.4984 46.4 99.9984 48.5 100.598C52.6 101.798 56.5 103.798 59.8 106.498C61.5 107.898 62.9001 109.498 64.2001 111.198C64.8001 112.098 65.4 112.998 65.8 113.998C66.2 114.998 66.6 116.098 66.6 117.298C66.6 118.598 65.9001 119.598 65.2001 120.498C64.4001 121.398 63.5 121.998 62.5 122.498C60.5 123.498 58.3001 123.998 56.2001 124.198C54.0001 124.398 51.9 124.398 49.8 124.198C48.7 124.198 47.7 123.998 46.6 123.898C45.5 123.698 44.5001 123.598 43.4001 123.398C39.2001 122.398 35.2 120.598 31.8 117.898C30.1 116.598 28.6 115.098 27.3 113.298C27 112.898 26.7001 112.398 26.5001 111.898C26.2001 111.398 26.2 110.798 26.3 110.198C26.4 109.598 26.6001 108.998 27.2001 108.798C27.7001 108.498 28.3 108.498 28.8 108.598C28.9 108.598 28.9001 108.698 28.9001 108.698L28.8 108.798C28.3 108.798 27.8001 108.798 27.4001 109.098C27.0001 109.398 26.8 109.798 26.8 110.298C26.8 110.798 26.9 111.298 27.1 111.698C27.4 112.098 27.6001 112.598 28.0001 112.898C29.3001 114.498 30.8001 115.898 32.5001 117.098C34.2001 118.298 36.0001 119.298 37.9001 120.098C39.8001 120.898 41.8 121.498 43.8 121.898C44.8 122.098 45.8 122.298 46.8 122.398C47.8 122.498 48.9001 122.698 49.9001 122.698C52.0001 122.898 54.1 122.898 56.1 122.698C58.1 122.498 60.2001 122.198 62 121.298C62.9001 120.898 63.7001 120.298 64.4001 119.598C65.0001 118.898 65.6 117.998 65.6 117.098C65.6 116.198 65.3001 115.198 64.9001 114.298C64.5001 113.398 64.0001 112.498 63.4001 111.598C62.2001 109.898 60.8001 108.398 59.2001 107.098C56.0001 104.498 52.3 102.498 48.3 101.298C46.3 100.698 44.2001 100.298 42.2001 99.8984C40.1001 99.4984 38.1 99.1984 36.0001 99.1984C35.0001 99.1984 33.9 99.2984 33.1 99.6984C32.7 99.8984 32.4 100.198 32.3 100.598C32.3 100.698 32.2 100.798 32.1 100.998C32.1 101.098 32.0001 101.098 32.0001 101.298C32.0001 101.498 32.0001 101.698 32.0001 101.998C32.1001 103.998 33.2001 105.898 34.9001 106.998C34.7001 107.198 34.7 107.198 34.6 107.298C34.7 107.298 34.6 107.298 34.6 107.298Z" fill="black"/>
    <path d="M31.2 110.998C30.5 111.098 30.1 110.698 29.7 110.398C29.3 110.098 28.8999 109.698 28.4999 109.298C27.6999 108.498 27.0999 107.598 26.7999 106.398C26.6999 106.098 26.7 105.798 26.7 105.498C26.7 105.198 26.6999 104.898 26.7999 104.598C26.8999 104.298 26.9999 103.998 27.0999 103.798L27.2999 103.398C27.3999 103.298 27.4999 103.098 27.5999 102.998C28.0999 102.498 28.8 102.298 29.4 102.298C30 102.298 30.5999 102.498 30.9999 102.898V102.998C30.9999 102.998 31 102.998 30.9 102.998C30.4 102.998 29.8999 103.098 29.4999 103.298C29.0999 103.498 28.8 103.698 28.7 103.898C28.5 104.098 28.2999 104.498 28.0999 104.898C27.9999 105.098 27.9 105.298 27.9 105.498C27.9 105.698 27.8 105.898 27.9 106.098C28 106.998 28.4999 107.898 29.0999 108.598C29.3999 108.998 29.8 109.298 30.2 109.598C30.6 109.898 31 110.098 31.2 110.798C31.3 110.898 31.3 110.998 31.2 110.998Z" fill="black"/>
    <path d="M71.3 10.0984C71.4 10.0984 71.4001 9.99846 71.5001 9.99846H71.6L71.8 9.89845C71.9 9.89845 72.1001 9.79846 72.2001 9.79846C72.5001 9.69846 72.8 9.69845 73.1 9.59845C73.7 9.49845 74.3001 9.49845 74.9001 9.39845C76.1001 9.29845 77.3001 9.29846 78.4001 9.29846C80.8001 9.29846 83.1001 9.29845 85.5001 9.59845C85.8001 9.59845 86.0001 9.89845 85.9001 10.0984C85.6001 12.0984 84.8001 13.8984 83.7001 15.5984C83.1001 16.3984 82.3001 17.1985 81.4001 17.6985C80.5001 18.2985 79.4 18.4984 78.3 18.5984C77.2 18.5984 76.1001 18.3985 75.2001 17.7985C74.3001 17.1985 73.5001 16.4984 73.0001 15.5984C72.4001 14.6984 72 13.7985 71.8 12.8985C71.7 12.3985 71.5001 11.8985 71.5001 11.4985C71.5001 11.2985 71.4001 10.9985 71.4001 10.7985V10.3985V10.1985V10.0984C71.3001 10.1984 71.3 10.0984 71.3 10.0984ZM71.5001 10.1985C72.1001 11.8985 72.9001 13.6985 74.0001 14.9985C74.6001 15.6985 75.2001 16.1984 76.0001 16.5984C76.8001 16.8984 77.5001 17.0984 78.4001 17.0984C79.2001 17.0984 80.1 16.9984 80.8 16.5984C81.6 16.1984 82.2 15.6985 82.8 14.9985C84 13.5985 84.6001 11.7985 85.0001 9.99846L85.4001 10.5984C83.1001 10.2984 80.8001 10.1985 78.4001 10.1985L74.9001 10.2985C74.3001 10.2985 73.7 10.3985 73.1 10.2985C72.8 10.2985 72.5001 10.2985 72.2001 10.2985C72.0001 10.2985 71.9 10.2985 71.8 10.2985H71.6L71.5001 10.1985Z" fill="black"/>
    <path d="M21.7001 76.6984C25.7001 73.7984 30.5 72.6984 35.1 71.4984C39.8 70.3984 44.5001 69.6984 49.3001 69.0984C58.8001 67.9984 68.4001 67.5984 77.9001 67.7984L85.1 67.8984C87.5 67.8984 89.9001 68.0984 92.3001 68.0984C94.7001 68.1984 97.1001 68.3984 99.5001 68.5984C101.9 68.7984 104.3 68.9984 106.7 69.1984C111.5 69.7984 116.2 70.4984 120.9 71.3984C125.6 72.3984 130.3 73.4984 134.7 75.4984C134.8 75.4984 134.8 75.5984 134.8 75.6984C134.8 75.7984 134.7 75.7984 134.6 75.7984C132.4 74.9984 130 74.4984 127.7 74.0984C125.4 73.6984 123 73.1984 120.7 72.8984C116 72.1984 111.3 71.5984 106.6 71.2984C97.1 70.3984 87.7 69.6984 78.1 69.2984C68.6 69.0984 59.1 69.2984 49.6 70.3984C44.9 70.8984 40.2 71.6984 35.6 72.7984C33.3 73.2984 31.0001 73.8984 28.8001 74.5984C26.5001 75.2984 24.3 75.9984 22.1 76.8984C22 76.8984 22.0001 76.8984 22.0001 76.7984C21.6001 76.7984 21.7001 76.6984 21.7001 76.6984Z" fill="black"/>
    <path d="M20.5 85.3985C25.1 83.7985 30 82.8984 34.8 82.0984C39.6 81.2984 44.4 80.5984 49.3 80.0984C59 78.9984 68.7 78.4984 78.5 78.3984C83.4 78.3984 88.3 78.3984 93.1 78.6984C98 78.8984 102.8 79.3984 107.7 79.8984C112.5 80.4984 117.4 81.2984 122.2 82.0984C124.6 82.4984 127 82.9984 129.4 83.4984C131.8 84.0984 134.1 84.6984 136.5 85.2984L136.6 85.3985L136.5 85.4984C134.1 84.9984 131.7 84.5984 129.3 84.1984C126.9 83.7984 124.5 83.3984 122.1 83.0984C117.3 82.3984 112.5 81.7984 107.6 81.2984C102.8 80.7984 97.9 80.2984 93.1 79.9984C88.3 79.5984 83.4 79.4984 78.6 79.3984C68.9 79.3984 59.2 79.8984 49.5 80.8984C44.7 81.3984 39.9 82.0984 35.1 82.8984C30.3 83.6984 25.6 84.6984 20.8 85.4984C20.8 85.4984 20.7 85.4985 20.7 85.3985C20.4 85.3985 20.4 85.3985 20.5 85.3985Z" fill="black"/>
    <path d="M65.5999 114.998C66.7999 114.998 67.6999 115.398 68.7999 115.698C69.7999 115.998 70.8 116.298 71.9 116.498C74 116.898 76.0999 117.098 78.1999 117.098C80.2999 116.998 82.3999 116.698 84.4999 116.498C86.5999 116.298 88.7 115.998 90.9 115.698C91 115.698 90.9999 115.698 90.9999 115.798V115.898C88.9999 116.998 86.8999 117.498 84.7999 117.898C82.5999 118.298 80.3999 118.198 78.2999 118.098C76.0999 118.098 73.8999 117.798 71.7999 117.298C70.6999 117.098 69.6999 116.898 68.5999 116.498C67.5999 116.198 66.4999 115.898 65.5999 115.098C65.4999 115.098 65.4999 115.098 65.5999 114.998C65.4999 114.998 65.4999 114.998 65.5999 114.998Z" fill="black"/>
    <path d="M46.1999 80.8985C46.0999 81.5985 45.7 81.9985 45.4 82.4985C45.1 82.9985 44.6999 83.4985 44.4999 83.9985C43.9999 84.9985 43.4999 86.0985 43.0999 87.1985C42.6999 88.2985 42.5999 89.4985 42.1999 90.5985C41.9999 91.1985 41.8999 91.6985 41.6999 92.2985C41.4999 92.8985 41.2999 93.3985 40.9999 93.9985C40.9999 93.9985 40.9 94.0985 40.9 93.9985C40.9 93.9985 40.8999 93.9985 40.7999 93.8985C40.4999 92.5985 40.4999 91.3985 40.6999 90.1985C40.8999 88.9985 41.4999 87.8985 41.9999 86.7985C42.4999 85.6985 42.9999 84.5985 43.5999 83.4985C43.8999 82.9985 44.1999 82.3985 44.5999 81.8985C44.9999 81.3985 45.2999 80.8985 46.0999 80.6985C46.1999 80.7985 46.1999 80.7985 46.1999 80.8985Z" fill="black"/>
    <path d="M52.5 80.1984C52.6 80.7984 52.2 81.1984 52 81.5984C51.8 81.9984 51.5 82.3984 51.3 82.7984C50.9 83.6984 50.6 84.4984 50.3 85.3984C50.1 86.2984 50 87.1984 49.8 88.0984C49.6 88.9984 49.4 89.8984 49 90.8984C49 90.9984 48.9 90.9984 48.9 90.9984C48.9 90.9984 48.9 90.9984 48.8 90.8984C48.3 89.8984 48.2 88.8984 48.3 87.8984C48.3 86.8984 48.9 85.9984 49.2 84.9984C49.5 84.0984 49.9 83.1984 50.4 82.2984C50.6 81.8984 50.8 81.3984 51.1 80.9984C51.4 80.5984 51.6 80.0984 52.3 79.9984C52.4 80.0984 52.5 80.1984 52.5 80.1984Z" fill="black"/>
    <path d="M110.6 81.1985C111.4 81.2985 111.7 81.8985 112.1 82.3985C112.5 82.8985 112.8 83.3985 113.1 83.9985C113.7 85.0985 114.2 86.1985 114.7 87.2985C115.2 88.3985 115.7 89.5985 115.9 90.7985C116.1 91.9985 116.2 93.1985 116 94.4985C116 94.5985 115.9 94.5985 115.9 94.5985H115.8C115.5 93.9985 115.2 93.4985 115 92.8985C114.8 92.3985 114.6 91.7985 114.4 91.1985C114 90.0985 114 88.8985 113.7 87.7985C113.3 86.6985 112.9 85.5985 112.3 84.5985C112 84.0985 111.7 83.5985 111.4 83.0985C111.1 82.5985 110.7 82.1985 110.6 81.4985C110.5 81.2985 110.5 81.1985 110.6 81.1985Z" fill="black"/>
    <path d="M104.4 80.4984C105.1 80.5984 105.3 81.0984 105.6 81.4984C105.9 81.8984 106.1 82.3984 106.3 82.7984C106.8 83.6984 107.2 84.5984 107.5 85.4984C107.8 86.3984 108.3 87.3984 108.3 88.3984C108.4 89.3984 108.3 90.3984 107.9 91.3984C107.9 91.4984 107.8 91.4984 107.8 91.4984C107.8 91.4984 107.8 91.4984 107.7 91.4984C107.2 90.4984 107 89.5984 106.8 88.6984C106.6 87.7984 106.7 86.8984 106.4 85.8984C106.2 84.9984 105.9 84.0984 105.4 83.2984C105.2 82.8984 104.9 82.4984 104.7 82.0984C104.5 81.6984 104.2 81.3984 104.2 80.6984C104.2 80.5984 104.3 80.4984 104.4 80.4984Z" fill="black"/>
    <path opacity="0.33" d="M71.7 54.4984C71.7 54.4984 72.7999 59.7984 78.4999 59.7984C84.1999 59.7984 85.2999 54.4984 85.2999 54.4984C85.2999 54.4984 81.7999 57.4984 78.5999 57.3984C75.3999 57.2984 71.7 54.4984 71.7 54.4984Z" fill="#E49B56"/>
    <path d="M72.4 54.4984C72.4 54.4984 74.1 57.3984 78.5 57.3984C82.9 57.3984 84.7 54.4984 84.7 54.4984" stroke="black" stroke-width="1.5" stroke-miterlimit="10" stroke-linecap="round" stroke-linejoin="round"/>
    <path d="M73.4 45.8985C73.4 44.5985 74.4 43.7985 75.3 43.2985C76.3 42.7985 77.4 42.6985 78.4 42.6985C79.4 42.6985 80.5 42.7985 81.5 43.2985C82.5 43.7985 83.4 44.5985 83.8 45.7985C83.8 45.8985 83.8 46.0985 83.8 46.1985C83.2 47.0985 82.5 47.8985 81.6 48.4985C80.7 49.0985 79.6 49.3985 78.5 49.3985C77.4 49.2985 76.3 48.8985 75.5 48.2985C74.6 47.5985 73.9 46.7985 73.4 45.8985ZM73.6 45.7985C74.3 46.3985 75.1 46.9985 75.9 47.2985C76.7 47.5985 77.6 47.7985 78.4 47.7985C78.8 47.7985 79.2 47.7985 79.6 47.5985C80 47.4985 80.4 47.3985 80.8 47.1985C81.6 46.7985 82.3 46.1985 82.8 45.5985L82.7 45.9985C82.5 45.2985 81.8 44.4985 81 44.1985C80.2 43.7985 79.3 43.5985 78.3 43.5985C77.3 43.5985 76.4 43.7985 75.6 44.1985C74.9 44.4985 74.3 45.1985 73.6 45.7985Z" fill="black"/>
    <path d="M97.7999 32.2985C101.7 32.1985 102.4 38.8985 102.2 41.4985C102 44.0985 100.7 46.7985 98.4 46.5985C96.1 46.3985 94.3 44.1985 94.4 40.2985C94.4 36.4985 95.3999 32.3985 97.7999 32.2985Z" stroke="black" stroke-width="0.75" stroke-miterlimit="10" stroke-linecap="round" stroke-linejoin="round"/>
    <path d="M57.5001 32.5984C53.6001 32.4984 52.9 39.1984 53.1 41.7984C53.3 44.3984 54.6001 47.0984 56.9001 46.8984C59.2001 46.6984 61.0001 44.4984 60.9001 40.5984C60.9001 36.7984 59.9001 32.6984 57.5001 32.5984Z" stroke="black" stroke-width="0.75" stroke-miterlimit="10" stroke-linecap="round" stroke-linejoin="round"/>
    <path d="M97.3129 37.4135C97.5386 36.674 96.8651 35.8132 95.8087 35.4907C94.7523 35.1683 93.713 35.5064 93.4873 36.2459C93.2616 36.9853 93.935 37.8462 94.9914 38.1686C96.0478 38.4911 97.0872 38.1529 97.3129 37.4135Z" fill="#F8F8F9"/>
    <path d="M58.3898 37.3269C58.6155 36.5873 57.942 35.7264 56.8855 35.404C55.829 35.0815 54.7895 35.4197 54.5638 36.1593C54.3381 36.8989 55.0116 37.7598 56.0682 38.0822C57.1247 38.4046 58.1641 38.0665 58.3898 37.3269Z" fill="#F8F8F9"/>
    <defs>
        <radialGradient id="paint0_radial" cx="0" cy="0" r="1" gradientUnits="userSpaceOnUse" gradientTransform="translate(97.7814 37.8665) scale(9.68037 16.9881)">
            <stop offset="0.2454" stop-color="#006838"/>
            <stop offset="0.439" stop-color="#8DC63F"/>
            <stop offset="0.579" stop-color="#006838"/>
        </radialGradient>
        <radialGradient id="paint1_radial" cx="0" cy="0" r="1" gradientUnits="userSpaceOnUse" gradientTransform="translate(56.6768 38.7767) scale(6.65772 15.04)">
            <stop offset="0.2935" stop-color="#006838"/>
            <stop offset="0.4648" stop-color="#8DC63F"/>
            <stop offset="0.6346" stop-color="#006838"/>
        </radialGradient>
    </defs>
</svg>
