<svg width="157" height="125" viewBox="0 0 157 125" fill="none" xmlns="http://www.w3.org/2000/svg">
    <path d="M57.6999 13.1969C57.6999 13.1969 66.5999 8.69686 78.7999 9.19686C90.9999 9.69686 98.4999 13.0969 98.4999 13.0969C98.4999 13.0969 115 -0.90315 132.9 0.49685C132.9 0.49685 137.5 7.89686 136.4 18.6969C135.3 29.4969 131.7 34.3968 131.7 34.3968C131.7 34.3968 137.6 42.7969 137.5 51.5969C137.5 54.6969 137.5 55.5969 137.5 55.5969C137.5 55.5969 136.5 62.5968 134.5 67.9968C134.2 73.3969 134.1 75.1969 134.1 75.1969C134.1 75.1969 108.9 66.1968 76.3999 67.9968C49.1999 67.9968 33.9999 70.2968 21.3999 76.2968C21.3999 76.2968 22.2999 72.9968 21.9999 70.5968C21.6999 68.2968 18.5999 57.6969 18.5999 53.5969C18.5999 49.4969 21.3999 39.6968 24.6999 35.3968L23.1999 32.2968C23.1999 32.2968 15.4999 17.9969 23.0999 0.596856C23.0999 0.596856 33.5999 -0.203156 44.9999 5.39684C56.4999 10.8968 57.6999 13.1969 57.6999 13.1969Z" fill="#B5937F"/>
    <path d="M137.5 55.5969C137.5 55.5969 143.4 56.6969 146.5 59.9969C149.6 63.2969 154 68.3969 155.3 72.0969C156.5 75.8969 154 78.8969 151.1 78.1969C151.1 78.1969 149.1 80.3969 147.3 79.8969C145.4 79.3969 143.5 76.9969 143.5 75.9969L142.5 75.3969C142.5 75.3969 136.3 70.6969 134.3 70.4969C134.3 70.4969 134.2 67.9969 135.6 64.3969C137.1 60.9969 137.5 55.5969 137.5 55.5969Z" fill="#B5937F"/>
    <path d="M19.0999 55.3969C19.0999 55.3969 13.1999 56.4968 10.0999 59.7968C6.99993 63.0968 2.59994 68.1969 1.29994 71.8969C0.0999438 75.6969 2.59996 78.5969 5.49996 77.9969C5.49996 77.9969 7.49994 80.1969 9.29994 79.6969C11.1999 79.1969 13.0999 76.7968 13.0999 75.7968L14.0999 75.1969C14.0999 75.1969 20.2999 70.4968 22.2999 70.2968C22.2999 70.2968 22.4 67.7969 21 64.1969C19.6 60.7969 19.0999 55.3969 19.0999 55.3969Z" fill="#B5937F"/>
    <path d="M125 102.097C125 102.097 127.5 101.597 128.6 103.197C129.7 104.697 127.8 108.297 127.8 108.297C127.8 108.297 129.2 107.997 129.9 109.097C130.6 110.197 130 116.397 116 121.497C102 126.597 91.0999 121.597 90.5999 116.997C90.0999 112.397 98.5999 102.997 106.8 100.997C115 98.9968 122.9 97.1968 124.6 99.5968C125.4 101.297 125 102.097 125 102.097Z" fill="#B5937F"/>
    <path d="M65.7999 116.997C65.2999 121.597 54.3999 126.597 40.3999 121.497C31.8999 118.397 28.2999 114.897 26.9999 112.297C26.1999 110.697 26.1999 109.497 26.4999 108.997C27.1999 107.897 28.5999 108.197 28.5999 108.197C28.5999 108.197 26.6999 104.697 27.7999 103.097C28.8999 101.597 31.3999 101.997 31.3999 101.997C31.3999 101.997 30.9999 101.197 31.8999 99.4968C33.5999 97.0968 41.5999 98.8968 49.6999 100.897C53.1999 101.797 56.8999 104.097 59.7999 106.797C63.5999 110.297 66.0999 114.497 65.7999 116.997Z" fill="#B5937F"/>
    <path opacity="0.71" d="M65.9999 28.0969C65.9999 28.0969 70.9999 24.3969 77.9999 24.3969C84.9999 24.3969 90.0999 28.0969 90.0999 28.0969L93.1999 27.4969C93.1999 27.4969 87.6999 34.6969 85.5999 41.5969C84.0999 44.9969 78.6999 45.1969 78.6999 45.1969C78.6999 45.1969 71.4999 44.0968 70.9999 42.7968C70.5999 41.5968 66.7999 29.6969 63.5999 27.4969L65.9999 28.0969Z" fill="#A88167"/>
    <path d="M19.2 49.0969C19.2 49.0969 16.9 54.7969 23.5 58.0969C23.5 58.0969 20.2 68.0969 30 72.4969L21.4 76.1969C21.4 76.1969 22.4999 71.0969 22.0999 68.7969C21.6999 66.4969 15.7 54.8969 19.2 49.0969Z" fill="#A88167"/>
    <path d="M11.6999 58.4969C11.5999 58.5969 19.7999 61.4969 16.6999 67.9969C13.6999 74.4969 11.6999 72.0968 11.6999 72.0968L13.1999 75.8969C13.1999 75.8969 19.6999 70.4969 21.4999 70.4969C21.4999 70.4969 20.5999 65.6969 19.8999 62.6969C19.0999 59.5969 19.1999 55.3969 19.1999 55.3969C19.1999 55.3969 12.4999 57.8969 11.6999 58.4969Z" fill="#A88167"/>
    <path d="M26.6999 5.89681C26.6999 5.89681 22.0999 2.8968 20.5999 23.7968L24.3999 34.3968L29.9999 27.8968L26.6999 5.89681Z" fill="#A88167"/>
    <path d="M137 48.7969C137 48.7969 139.3 54.4969 132.7 57.7969C132.7 57.7969 136 67.7969 126.2 72.1969L134.8 75.9969C134.8 75.9969 133.7 70.8969 134.1 68.5969C134.4 66.1969 140.6 54.5969 137 48.7969Z" fill="#A88167"/>
    <path opacity="0.71" d="M144.6 58.1969C144.7 58.2969 136.5 61.1969 139.6 67.6969C142.6 74.1969 144.6 71.7969 144.6 71.7969L143.1 75.5969C143.1 75.5969 136.6 70.1969 134.8 70.1969C134.8 70.1969 135.7 65.3969 136.4 62.3969C137.2 59.2969 137.1 55.0969 137.1 55.0969C137.1 55.0969 143.8 57.4969 144.6 58.1969Z" fill="#A88167"/>
    <path d="M129.5 5.59688C129.5 5.59688 134.1 2.59688 135.6 23.4969L131.8 34.0969L126.2 27.5969L129.5 5.59688Z" fill="#A88167"/>
    <path d="M30.7999 52.7968C30.7999 52.7968 52.8999 46.3969 79.2999 46.3969C105.7 46.3969 124.8 52.7968 124.8 52.7968" stroke="white" stroke-width="2" stroke-miterlimit="10" stroke-linecap="round" stroke-linejoin="round"/>
    <path d="M73.5998 44.2968L73.1999 45.3968C73.1999 45.3968 72.8999 45.3968 72.3999 45.3968C72.1999 45.3968 71.9999 45.3968 71.6999 45.3968C71.6999 45.3968 71.5999 45.3968 71.4999 45.3968C65.6999 45.6968 46.1999 46.6968 42.9999 47.8968C42.9999 47.8968 42.3999 42.6968 42.8999 38.2968C43.0999 36.7968 43.3999 35.4968 43.8999 34.3968C45.8999 29.9968 48.8999 26.8968 48.8999 26.8968C48.8999 26.8968 56.0999 24.9968 62.1999 27.0968C62.1999 27.0968 64.4999 28.3968 66.3999 31.9968C68.2999 35.5968 70.7999 42.8968 70.7999 42.8968L73.5998 44.2968Z" fill="#F8F8F9"/>
    <path d="M93.8999 26.9969C93.8999 26.9969 91.5999 28.2968 89.6999 31.8968C87.7999 35.4968 85.2999 42.7968 85.2999 42.7968L82.5999 44.1969L82.9999 45.2968C82.9999 45.2968 109.3 46.3968 113.1 47.8968C113.1 47.8968 114.2 38.7968 112.2 34.3968C110.2 29.9968 107.2 26.8968 107.2 26.8968C107.2 26.8968 99.9999 24.8969 93.8999 26.9969Z" fill="#F8F8F9"/>
    <path d="M29.9998 72.4969C29.9998 72.4969 79.6999 61.4969 125.4 72.5969C125.4 72.5969 132.4 70.3969 133.3 63.9969C134.2 57.6969 134.2 46.2969 82.8999 45.1969C82.8999 45.1969 81.7998 48.0969 77.9998 48.0969C74.1998 48.0969 73.0998 45.2969 73.0998 45.2969C73.0998 45.2969 37.4999 46.7969 30.6999 51.0969C27.6999 52.9969 25.6999 54.9969 24.3999 56.7969C22.7999 59.0969 22.2998 61.2969 22.5998 62.7969C23.1998 65.5969 25.2998 70.7969 29.9998 72.4969Z" fill="#FFF7E4"/>
    <path d="M71.5999 45.3969C71.5999 45.3969 75.6999 48.0969 78.1999 48.0969C80.6999 48.0969 83.0999 47.5969 84.8999 45.1969L78.0999 46.0969L71.5999 45.3969Z" fill="#E49B56"/>
    <path d="M73.2999 44.9968C73.2999 44.9968 75.1 42.4968 78.2 42.4968C81.3 42.4968 82.9999 45.0968 82.9999 45.0968C82.9999 45.0968 81.8999 47.7968 78.0999 47.9968C74.2999 48.2968 73.2999 44.9968 73.2999 44.9968Z" fill="black"/>
    <path d="M135.4 90.8969C134.5 94.7969 133.7 97.7968 132.5 100.097C131.6 101.797 130.5 103.197 129 104.197C129 104.197 127.3 101.397 125.1 102.597C125.1 102.597 125.1 100.697 124.2 99.8969C123.4 99.0969 118.1 96.7969 104.4 102.297C103.3 102.697 102.2 103.197 101.1 103.697C91.3999 108.997 90.2 115.497 90.2 115.497C90.2 115.497 89.3 115.797 87.7 116.197C83.4 117.197 74.3999 118.497 65.0999 114.997C65.0999 114.997 62.7 107.497 51.9 102.597C50 101.697 47.9 100.997 45.5 100.397C28.6 95.2969 31 102.397 31 102.397L30.7 102.697C30.7 102.697 28.2999 101.797 26.7999 104.497C26.7999 104.497 21 101.797 20 90.7969C19.4 79.6968 21.0999 76.5968 21.0999 76.5968C21.0999 76.5968 37.8999 67.6969 76.5999 68.2969C115.3 68.8969 133.8 75.4969 133.8 75.4969C133.8 75.4969 137 83.9969 135.4 90.8969Z" fill="#EDA2C1"/>
    <path opacity="0.61" d="M132.9 99.8969C132 101.597 130.9 102.997 129.4 103.997C129.4 103.997 127.7 101.197 125.5 102.397C125.5 102.397 125.5 100.497 124.6 99.6969C123.7 98.8969 117.6 96.1969 101.5 103.497C91.7999 108.797 90.5999 115.297 90.5999 115.297C90.5999 115.297 89.6999 115.597 88.0999 115.997C88.0999 115.997 97.6999 88.5969 123.4 94.9969C128.2 96.0969 131.2 97.7969 132.9 99.8969Z" fill="#5086C5"/>
    <path d="M98 31.7968C100.3 31.6968 101.9 36.9968 101.9 39.2968C101.9 41.5968 101.5 46.2968 98 46.4968C94.5 46.6968 94 40.8968 94 39.9968C94 39.0968 94.2 31.8968 98 31.7968Z" fill="url(#paint0_radial)"/>
    <path d="M56.9 32.0969C58.2 32.1969 60.4999 33.3969 60.5999 40.0969C60.6999 46.7969 56.2999 46.3969 56.2999 46.3969C56.2999 46.3969 52.8 45.8969 52.7 38.8969C53.2 32.0969 56.9 32.0969 56.9 32.0969Z" fill="url(#paint1_radial)"/>
    <path d="M129.4 5.79688C129.4 5.79688 116.3 9.3969 112.3 13.6969C112.3 13.6969 118.6 12.6969 120.8 13.6969C120.8 13.6969 115.6 16.1969 114.6 17.9969C114.6 17.9969 120.4 17.3969 121.7 17.9969C123 18.5969 119.3 22.5969 119.3 22.5969C119.3 22.5969 128.5 29.2969 129.1 30.6969C129.6 32.2969 133.6 9.79688 129.4 5.79688Z" fill="#FAE7BE"/>
    <path d="M26.6999 5.89685C26.6999 5.89685 39.7998 9.49684 43.7998 13.7968C43.7998 13.7968 37.4998 12.7968 35.2998 13.7968C35.2998 13.7968 40.4998 16.2969 41.4998 18.0969C41.4998 18.0969 35.6999 17.4969 34.3999 18.0969C33.0999 18.6969 36.7998 22.6969 36.7998 22.6969C36.7998 22.6969 27.5998 29.3968 26.9998 30.7968C26.3998 32.3968 22.4999 9.89685 26.6999 5.89685Z" fill="#FAE7BE"/>
    <path d="M43.2999 4.49683C43.2999 4.49683 51.3999 10.2968 50.7999 13.6968C50.2999 17.0968 54.3999 15.1968 54.7999 14.9968C55.1999 14.6968 57.7 13.1968 57.7 13.1968C57.7 13.1968 47.8999 5.39683 43.2999 4.49683Z" fill="#A88167"/>
    <path d="M112.9 4.79688C112.9 4.79688 104.8 10.5969 105.4 13.9969C105.9 17.3969 101.8 15.4969 101.4 15.2969C101 14.9969 98.5 13.4969 98.5 13.4969C98.5 13.4969 108.4 5.69687 112.9 4.79688Z" fill="#A88167"/>
    <path d="M71.4 12.1969C71.4 12.1969 64.3 16.9969 62.7 16.0969C62.7 16.0969 65.5 18.6969 68.2 17.5969C70.9 16.4969 72.0999 14.0969 72.0999 14.0969C72.0999 14.0969 74.8999 17.5969 78.0999 17.4969C81.2999 17.3969 83.7 13.7969 83.7 13.7969C83.7 13.7969 86.8999 17.5969 88.9999 17.4969C91.0999 17.3969 93.2999 16.4969 93.2999 16.4969C93.2999 16.4969 87 15.1969 84.4 12.2969C84.4 12.2969 81.4 15.2969 78.2 15.2969C74.9 15.1969 71.4 12.1969 71.4 12.1969Z" fill="#A88167"/>
    <path d="M65.8 116.997C65.3 121.597 54.4 126.597 40.4 121.497C31.9 118.397 28.3 114.897 27 112.297C27.7 112.597 58.4 122.997 59.7 107.297C59.7 107.097 59.7 106.997 59.7 106.797C63.6 110.297 66.1 114.497 65.8 116.997Z" fill="#A88167"/>
    <path d="M90.4 116.697C90.9 121.297 101.8 126.297 115.8 121.197C124.3 118.097 127.9 114.597 129.2 111.997C128.5 112.297 97.8 122.697 96.5 106.997C96.5 106.797 96.5 106.697 96.5 106.497C92.7 109.997 90.1 114.097 90.4 116.697Z" fill="#A88167"/>
    <path opacity="0.61" d="M23.5 99.8969C24.4 101.597 25.5 102.997 27 103.997C27 103.997 28.7 101.197 30.9 102.397C30.9 102.397 30.9 100.497 31.8 99.6969C32.7 98.8969 38.8 96.1969 54.9 103.497C64.6 108.797 65.8 115.297 65.8 115.297C65.8 115.297 66.7 115.597 68.3 115.997C68.3 115.997 58.7 88.5969 33 94.9969C28.2 96.0969 25.2 97.7969 23.5 99.8969Z" fill="#5086C5"/>
    <path d="M20.5999 57.9969C20.5999 57.9969 17.3 40.1969 36.9 23.7969" stroke="white" stroke-width="3" stroke-miterlimit="10" stroke-linecap="round" stroke-linejoin="round"/>
    <path d="M23.4999 2.29688C23.4999 2.29688 18.4999 18.0969 23.4999 29.0969" stroke="white" stroke-width="3" stroke-miterlimit="10" stroke-linecap="round" stroke-linejoin="round"/>
    <path d="M2.69995 70.7969C2.69995 70.7969 6.39994 63.7969 16.4999 58.0969" stroke="white" stroke-width="3" stroke-miterlimit="10" stroke-linecap="round" stroke-linejoin="round"/>
    <path d="M101.7 12.2969C101.7 12.2969 113.9 4.69688 130.9 2.29688" stroke="white" stroke-width="3" stroke-miterlimit="10" stroke-linecap="round" stroke-linejoin="round"/>
    <path d="M145 60.4968C145 60.4968 154.5 69.3969 154.4 73.3969" stroke="white" stroke-width="3" stroke-miterlimit="10" stroke-linecap="round" stroke-linejoin="round"/>
    <path d="M118.3 21.8969C118.3 21.8969 135.2 37.7968 137.1 56.7968" stroke="white" stroke-width="3" stroke-miterlimit="10" stroke-linecap="round" stroke-linejoin="round"/>
    <path d="M33.2 99.8969C33.2 99.8969 57.5999 99.8968 63.4999 114.497" stroke="white" stroke-width="3" stroke-miterlimit="10" stroke-linecap="round" stroke-linejoin="round"/>
    <path d="M123 100.397C123 100.397 98.6 100.397 92.7 114.997" stroke="white" stroke-width="3" stroke-miterlimit="10" stroke-linecap="round" stroke-linejoin="round"/>
    <path d="M34.9999 42.1969C31.4999 43.6969 32 45.5969 32.4 46.1969C32.8 46.7969 34.4999 47.3969 36.5999 46.1969C38.7999 44.9969 39.6999 43.3969 39.0999 42.1969C38.4999 40.9969 34.9999 42.1969 34.9999 42.1969Z" fill="#F7C080"/>
    <path d="M123.8 42.1969C127.3 43.6969 126.8 45.5969 126.4 46.1969C126 46.7969 124.3 47.3969 122.2 46.1969C120 44.9969 119.1 43.3969 119.7 42.1969C120.3 40.9969 123.8 42.1969 123.8 42.1969Z" fill="#F7C080"/>
    <path d="M97.9 42.9968C99.115 42.9968 100.1 40.9821 100.1 38.4968C100.1 36.0115 99.115 33.9968 97.9 33.9968C96.6849 33.9968 95.7 36.0115 95.7 38.4968C95.7 40.9821 96.6849 42.9968 97.9 42.9968Z" fill="#0A351F"/>
    <path d="M56.5999 43.1969C57.8149 43.1969 58.7999 41.1822 58.7999 38.6969C58.7999 36.2116 57.8149 34.1969 56.5999 34.1969C55.3848 34.1969 54.3999 36.2116 54.3999 38.6969C54.3999 41.1822 55.3848 43.1969 56.5999 43.1969Z" fill="#0A351F"/>
    <path opacity="0.81" d="M73.6 44.2968L73.2 45.3968C73.2 45.3968 72.9 45.3968 72.4 45.3968C72.1 45.3968 71.9 45.3968 71.7 45.3968H71.6C70 45.2968 68.1 35.4968 58.8 31.7968C50.2 28.2968 44 36.7968 43 38.2968C43.2 36.7968 43.5 35.4968 44 34.3968C46 29.9968 49 26.8968 49 26.8968C49 26.8968 56.2 24.9968 62.3 27.0968C62.3 27.0968 64.6 28.3968 66.5 31.9968C68.4 35.5968 70.9 42.8968 70.9 42.8968L73.6 44.2968Z" fill="#D5D9E0"/>
    <path opacity="0.81" d="M82.8999 43.9969L83.2999 45.0969C83.2999 45.0969 83.5999 45.0969 84.0999 45.0969C84.3999 45.0969 84.5999 45.0969 84.7999 45.0969H84.8999C86.4999 44.9969 88.3999 35.1969 97.6999 31.4969C106.3 27.9969 112.5 36.4969 113.5 37.9969C113.3 36.4969 113 35.1969 112.5 34.0969C110.5 29.6969 107.5 26.5969 107.5 26.5969C107.5 26.5969 100.3 24.6969 94.1999 26.7969C94.1999 26.7969 91.8999 28.0969 89.9999 31.6969C88.0999 35.2969 85.5999 42.5969 85.5999 42.5969L82.8999 43.9969Z" fill="#D5D9E0"/>
    <path opacity="0.33" d="M31.7 50.5969C31.7 50.5969 25.8 68.2969 60.2 68.0969L30.1 72.3969C30 72.4969 12.2 62.8969 31.7 50.5969Z" fill="#E49B56"/>
    <path opacity="0.33" d="M124.7 50.6969C124.7 50.6969 130.2 68.5969 95.8999 67.5969L125.9 72.5969C125.8 72.5969 143.8 63.3969 124.7 50.6969Z" fill="#E49B56"/>
    <path opacity="0.81" d="M24.0999 78.0968C24.0999 78.0968 21.3 90.4969 26.4 100.397" stroke="white" stroke-width="3" stroke-miterlimit="10" stroke-linecap="round" stroke-linejoin="round"/>
    <g opacity="0.56">
        <path opacity="0.56" d="M28.0999 74.1969C30.0999 73.4969 31.9 72.9969 33.8 72.4969L36.5999 71.8969L39.4 71.3969C41.3 70.9969 43.1999 70.7969 45.0999 70.4969C46.9999 70.2969 48.9 69.9969 50.8 69.7969C58.4 68.9969 66.1 68.7969 73.8 68.8969C81.5 68.8969 89.1 69.3969 96.7 69.9969L108.1 71.1969L119.4 72.6969C119.9 72.7969 120.2 73.1969 120.1 73.6969C120 74.1969 119.6 74.4969 119.1 74.3969L107.8 72.9969L96.5 71.9969C88.9 71.4969 81.3 71.0969 73.8 71.1969C66.2 71.1969 58.5999 71.5969 51.0999 72.3969C49.1999 72.5969 47.4 72.8969 45.5 73.0969C43.6 73.3969 41.8 73.6969 39.9 74.0969L37.0999 74.6969L34.4 75.3969C32.6 75.8969 30.6999 76.3969 29.0999 76.9969H29C28.2 77.2969 27.4 76.8969 27 76.1969C26.9 75.3969 27.2999 74.4969 28.0999 74.1969Z" fill="white"/>
    </g>
    <path d="M129.6 104.897C130.5 103.997 131.4 103.197 132 102.197C132.7 101.197 133.2 100.197 133.7 98.9969C134.6 96.6969 135 94.2969 135.4 91.8969C135.8 89.4969 135.8 86.9969 135.6 84.5969C135.4 82.1969 135 79.6969 134.4 77.2969L134.5 77.3969C134.3 76.8969 134.2 76.5969 134.1 76.1969C134 75.7969 134 75.4969 133.9 75.0969C133.8 74.3969 133.8 73.6969 133.7 72.9969C133.6 71.5969 133.7 70.0969 134.1 68.7969C134.7 66.0969 135.8 63.4969 136.4 60.9969C137.6 55.7969 137 50.3969 135.5 45.2969C135.2 43.9969 134.6 42.7969 134.1 41.5969C133.8 40.9969 133.5 40.3969 133.2 39.7969C132.9 39.1969 132.6 38.5969 132.2 38.0969C130.9 35.7969 129.3 33.5969 127.5 31.5969C124 27.5969 119.8 23.9969 115.3 21.0969C115.2 21.0969 115.2 20.9969 115.3 20.8969C115.3 20.7969 115.4 20.7969 115.5 20.8969C120.5 23.2969 125 26.4969 128.8 30.5969C129.3 31.0969 129.7 31.5969 130.2 32.0969L130.9 32.8969L131.5 33.6969C131.9 34.2969 132.4 34.7969 132.8 35.3969C133.2 35.9969 133.6 36.5969 133.9 37.1969C134.3 37.7969 134.6 38.3969 134.9 38.9969C135.2 39.5969 135.6 40.1969 135.8 40.8969C136.3 42.1969 136.9 43.4969 137.2 44.8969C138.7 50.2969 139.1 56.0969 137.7 61.4969C137.1 64.1969 136 66.7969 135.4 69.2969C135.1 70.5969 135 71.7969 135 73.1969C135 73.8969 135.1 74.4969 135.1 75.1969C135.1 75.4969 135.2 75.7969 135.3 76.1969C135.3 76.4969 135.5 76.8969 135.5 76.9969V77.0969C136.1 79.5969 136.5 82.0969 136.7 84.5969C136.9 87.0969 136.9 89.6969 136.5 92.1969C136.1 94.6969 135.6 97.1969 134.6 99.5969C134.1 100.797 133.5 101.897 132.6 102.897C131.7 103.897 130.7 104.697 129.5 105.197C129.6 104.997 129.6 104.997 129.6 104.897C129.5 104.997 129.6 104.897 129.6 104.897Z" fill="black"/>
    <path d="M98.7 14.0969C100.7 11.5969 103.5 9.99687 106.1 8.29688C108.8 6.69688 111.7 5.3969 114.6 4.1969C116.1 3.5969 117.6 3.0969 119.1 2.6969C119.9 2.4969 120.6 2.29689 121.4 2.09689L122.6 1.79688L123.8 1.59689C126.9 0.896893 130.1 0.796875 133.3 0.796875H133.4C133.7 0.796875 134 1.09689 134 1.09689L134.1 1.29688L134.3 1.59689C134.4 1.79689 134.5 1.99689 134.6 2.09689C134.8 2.49689 134.9 2.79689 135.1 3.09689C135.4 3.79689 135.7 4.4969 135.9 5.1969C136.4 6.5969 136.8 8.09689 137.1 9.59689C137.7 12.5969 137.9 15.5969 137.8 18.5969C137.6 21.5969 137.1 24.5969 136.1 27.3969C135.6 28.7969 135.1 30.1969 134.4 31.4969C133.7 32.7969 133 34.0969 132.2 35.3969C132.2 35.4969 132.1 35.4969 132 35.3969C131.9 35.3969 131.9 35.2969 132 35.1969C132.5 33.7969 133.1 32.4969 133.5 31.0969C134 29.6969 134.4 28.2969 134.7 26.8969C135 25.4969 135.3 24.0969 135.5 22.6969C135.7 21.2969 135.8 19.7969 135.8 18.3969C135.9 15.4969 135.7 12.6969 135.2 9.89688C135 8.49688 134.7 7.0969 134.2 5.6969C134 4.9969 133.8 4.2969 133.5 3.6969C133.4 3.3969 133.2 2.9969 133.1 2.6969C133 2.4969 132.9 2.3969 132.9 2.1969L132.8 1.99689C132.7 1.89689 133 2.19689 133.2 2.09689H133.3C132.5 2.09689 131.8 2.09689 131 2.09689H129.8C129.4 2.09689 129 2.1969 128.6 2.1969L126.3 2.39688L124 2.79688L122.9 2.99689L121.8 3.29688C121 3.49688 120.3 3.59687 119.6 3.79688C118.1 4.29688 116.6 4.6969 115.2 5.1969C112.3 6.2969 109.5 7.6969 106.9 9.1969C104.2 10.6969 101.8 12.5969 98.9999 14.0969C98.9999 14.0969 98.8999 14.0969 98.7999 14.0969C98.6999 14.1969 98.7 14.0969 98.7 14.0969Z" fill="black"/>
    <path d="M82.9 45.0969C83.6 44.4969 84.5 44.2968 85 43.7968C85.1 43.7968 85.1 43.6969 85.2 43.6969C85.2 43.6969 85.2 43.5969 85.3 43.4969L85.5 42.8969L85.9 41.6969C86.4 39.9969 86.9 38.3969 87.6 36.6969C88.2 35.0969 88.8 33.3969 89.8 31.8969C90.1 31.4969 90.3 31.1968 90.6 30.7968C90.9 30.3968 91.2 30.0968 91.5 29.7968C92.1 29.1968 93 28.6969 93.8 28.3969C93.8 28.3969 93.9 28.3969 93.9 28.4969V28.5969C92.6 29.7969 91.8 31.1969 91 32.6969C90.2 34.1969 89.2 35.5969 88.5 37.1969C87.8 38.7969 87.2 40.3969 86.7 41.9969L86.3 43.1969C86.2 43.3969 86.2 43.5968 86.1 43.7968C86.1 43.8968 86 44.0969 85.9 44.1969C85.8 44.2969 85.7 44.3969 85.6 44.4969C85.2 44.8969 84.7 44.9969 84.3 45.1969C83.9 45.2969 83.4 45.3969 82.9 45.1969C82.9 45.1969 82.8 45.1969 82.9 45.0969C82.8 45.0969 82.9 45.0969 82.9 45.0969Z" fill="black"/>
    <path d="M113.3 48.0969C113 47.0969 113.1 46.1969 113.2 45.2969C113.2 44.3969 113.3 43.3969 113.3 42.4969C113.3 40.5969 113.1 38.7969 112.7 36.9969C112.3 35.1969 111.5 33.5969 110.5 32.0969C109.6 30.5969 108.4 29.1969 107.1 27.7969V27.6969H107.2C109.1 28.3969 110.5 29.6969 111.8 31.2969C113 32.8969 113.5 34.8969 113.8 36.7969C114.1 38.6969 114.3 40.5969 114.3 42.4969C114.3 43.4969 114.3 44.3969 114.3 45.2969C114.2 46.1969 114.2 47.1969 113.6 48.0969C113.5 48.0969 113.4 48.0969 113.3 48.0969C113.4 48.0969 113.3 48.0969 113.3 48.0969Z" fill="black"/>
    <path d="M90 29.0969C90.9 28.2969 92 28.0968 93 27.7968C94.1 27.4968 95.2001 27.2969 96.2001 27.0969C98.4001 26.6969 100.6 26.3968 102.8 26.2968C105 26.1968 107.3 26.3968 109.5 27.2968C111.6 28.1968 113.5 29.6969 114.6 31.6969V31.7968H114.5C112.8 30.3968 111 29.2969 109 28.6969C107.1 28.0969 105 27.3968 102.9 27.3968C100.8 27.3968 98.6 27.5969 96.5 27.9969C95.4 28.1969 94.4 28.4969 93.3 28.6969C92.2 28.8969 91.2 29.2969 90.1 29.1969C90 29.1969 90 29.1969 90 29.0969C89.9 29.0969 89.9 29.0969 90 29.0969Z" fill="black"/>
    <path d="M82.9001 46.1969C85.9001 45.7969 88.9001 46.0969 91.9001 46.1969C94.9001 46.2969 97.9001 46.5969 100.9 46.8969C103.9 47.1969 106.9 47.3969 109.9 47.7969C112.9 48.1969 115.9 48.5969 118.8 49.2969C120.3 49.5969 121.8 49.9969 123.2 50.3969L125.4 51.1969C126.1 51.4969 126.8 51.8969 127.5 52.1969C130.2 53.7969 132.5 56.0969 133.7 59.0969C134.8 62.0969 134.6 65.5969 133 68.2969C132.5 68.9969 132.2 69.6969 131.6 70.1969C131.3 70.4969 131.1 70.7969 130.8 71.0969L129.9 71.7969C129.3 72.2969 128.6 72.5969 127.9 72.9969C127.2 73.2969 126.4 73.4969 125.7 73.7969C125.7 73.7969 125.6 73.7969 125.6 73.6969C125.6 73.5969 125.6 73.5969 125.6 73.5969C126.3 73.2969 127 72.9969 127.6 72.5969C128.2 72.1969 128.9 71.7969 129.4 71.2969L130.2 70.5969C130.4 70.2969 130.7 69.9969 130.9 69.7969C131.4 69.2969 131.7 68.5969 132 67.9969C133.2 65.3969 133.3 62.3969 132.3 59.8969C132 59.2969 131.7 58.5969 131.3 57.9969L130.7 57.0969L130.4 56.6969C130.3 56.5969 130.1 56.3969 130 56.2969C129 55.2969 127.9 54.2969 126.7 53.5969C124.3 51.9969 121.4 51.1969 118.5 50.4969C115.6 49.7969 112.6 49.3969 109.7 48.9969C106.7 48.5969 103.7 48.2969 100.8 47.9969C97.8 47.6969 94.8 47.5969 91.8 47.2969C88.8 47.0969 85.8 47.0969 82.8 46.4969C82.8 46.2969 82.8001 46.2969 82.9001 46.1969C82.8001 46.1969 82.8001 46.1969 82.9001 46.1969Z" fill="black"/>
    <path d="M137.8 56.4969C139.3 56.3969 140.7 56.9969 142 57.4969C143.3 58.0969 144.6 58.7969 145.8 59.6969C147 60.4969 148.1 61.5969 149.1 62.5969C150.1 63.5969 151.1 64.6969 152 65.7969C152.9 66.8969 153.8 68.0969 154.6 69.2969C155.4 70.4969 156.1 71.8969 156.4 73.3969C156.5 73.7969 156.5 74.1968 156.5 74.5968C156.5 74.9968 156.5 75.3969 156.4 75.7969C156.2 76.5969 156 77.2969 155.5 77.9969C155 78.6969 154.4 79.1969 153.7 79.4969C153 79.7969 152.1 79.6969 151.4 79.3969L151.3 79.2969L151.4 79.1969C152.8 79.2969 154 78.4969 154.5 77.3969C154.8 76.7969 154.9 76.1968 155 75.5968C155.1 75.2968 155 74.9969 155 74.6969C155 74.3969 154.9 74.0969 154.8 73.7969C154.7 73.1969 154.4 72.4969 154.2 71.8969C153.9 71.2969 153.6 70.6969 153.3 69.9969C152.7 68.7969 151.9 67.5969 151 66.4969C150.1 65.3969 149.2 64.2969 148.3 63.2969C147.3 62.1969 146.4 61.2969 145.2 60.4969C144.1 59.6969 142.8 58.9969 141.5 58.4969C140.2 57.8969 138.9 57.4969 137.6 56.7969C137.8 56.5969 137.8 56.5969 137.8 56.4969Z" fill="black"/>
    <path d="M149.6 73.0969C150.5 73.3969 150.9 74.0969 151.3 74.7969C151.7 75.4969 151.9 76.397 151.9 77.197C151.9 77.997 151.7 78.897 151.3 79.697C150.9 80.497 150.1 81.0969 149.3 81.2969C148.5 81.5969 147.6 81.597 146.7 81.397C146.3 81.297 145.9 81.197 145.4 80.897C145 80.597 144.7 80.297 144.4 79.897C143.4 78.497 143.2 76.5969 143.9 75.0969C143.9 75.0969 144 74.9969 144 75.0969C144 75.0969 144 75.097 144.1 75.197C144.3 76.697 144.7 78.0969 145.6 78.9969C146 79.4969 146.3 79.6969 147 79.9969C147.6 80.1969 148.3 80.297 149 80.197C150.3 79.897 151 78.497 151 77.197C151 76.497 150.8 75.797 150.5 75.197C150.2 74.497 149.7 73.997 149.5 73.197C149.4 73.197 149.5 73.0969 149.6 73.0969Z" fill="black"/>
    <path d="M134.4 71.397C135 71.097 135.4 71.297 135.8 71.397C136.2 71.597 136.6 71.7969 137.1 71.9969C137.9 72.3969 138.8 72.7969 139.6 73.2969C140.4 73.7969 141.3 74.0969 141.9 74.7969C142.6 75.3969 143.2 76.1969 143.6 76.9969V77.0969C143.6 77.0969 143.6 77.0969 143.5 77.0969C142.5 76.7969 141.8 76.397 141 75.897C140.3 75.397 139.7 74.697 139 74.197C138.3 73.697 137.5 73.1969 136.7 72.7969C136.3 72.5969 135.9 72.4969 135.5 72.2969C135.1 72.0969 134.7 72.0969 134.4 71.4969C134.4 71.4969 134.4 71.497 134.4 71.397Z" fill="black"/>
    <path d="M122.9 54.2969C126.4 55.7969 125.9 57.6969 125.5 58.2969C125.1 58.8969 123.4 59.4969 121.3 58.2969C119.1 57.0969 118.2 55.4969 118.8 54.2969C119.3 53.0969 122.9 54.2969 122.9 54.2969Z" fill="#F7C080"/>
    <path d="M120.4 61.8969C121.9 62.4969 122.2 63.6969 121.9 64.2969C121.6 64.8969 120.2 65.1969 119 64.7969C117.8 64.3969 116.9 63.2969 117.2 62.3969C117.5 61.3969 118.8 61.2969 120.4 61.8969Z" fill="#F7C080"/>
    <path d="M104.6 20.0968C104.6 19.5968 104.8 19.0968 105.3 18.8968C105.8 18.5968 106.3 18.4968 106.8 18.5968C107.7 18.6968 108.5 19.1968 109.2 19.5968C109.9 20.0968 110.6 20.5968 111.1 21.2968C111.4 21.6968 111.6 22.0968 111.8 22.4968C112 22.9968 112 23.4968 111.8 23.9968C111.7 24.4968 111.2 24.9968 110.6 25.1968C110.1 25.3968 109.6 25.3968 109.1 25.3968C108.2 25.2968 107.3 24.9968 106.6 24.4968C105.9 23.9968 105.2 23.3968 104.7 22.5968C104.5 22.1968 104.3 21.6968 104.3 21.2968C104.2 20.8968 104.4 20.3968 104.6 20.0968ZM104.8 20.0968C104.7 20.4968 104.7 20.8968 104.8 21.1968C104.9 21.4968 105.1 21.7968 105.4 21.9968C105.9 22.3968 106.6 22.8968 107.3 23.1968C107.6 23.3968 107.9 23.4968 108.3 23.6968C108.6 23.7968 109 23.9968 109.3 23.9968C109.6 24.0968 110 24.0968 110.2 24.0968C110.5 23.9968 110.6 23.9968 110.7 23.6968C110.9 23.1968 110.7 22.4968 110.3 21.8968C109.9 21.2968 109.3 20.7968 108.7 20.2968C108.1 19.8968 107.3 19.4968 106.7 19.4968C105.9 19.3968 105.5 19.5968 104.8 20.0968Z" fill="black"/>
    <path d="M95.9 13.0969C96.3 12.7969 96.5999 12.9969 96.7999 13.0969C97.0999 13.1969 97.2999 13.2969 97.5999 13.4969C98.0999 13.6969 98.7 13.8969 99.2 14.0969C99.7 14.2969 100.4 14.3969 100.8 14.6969C101.3 15.0969 101.8 15.4969 102 16.0969C102 16.1969 102 16.1969 101.9 16.1969C101.2 16.1969 100.7 16.0969 100.1 15.8969C99.5999 15.6969 99.2 15.1969 98.7 14.8969C98.2 14.5969 97.7 14.3969 97.2 14.0969L96.4 13.7969C96.1 13.6969 95.9 13.5969 95.7 13.0969C95.8 13.1969 95.8 13.1969 95.9 13.0969Z" fill="black"/>
    <path d="M85.9 10.7968C86.7 10.4968 87.6 10.4968 88.4 10.4968C89.2 10.4968 90.1 10.5968 90.9 10.7968C91.7 10.8968 92.5 11.0968 93.4 11.2968C94.2 11.4968 95.1 11.6968 95.9 12.4968C96 12.5968 95.9999 12.6968 96.0999 12.7968C96.0999 12.8968 96.0999 12.8968 96.0999 12.9968C96.0999 13.0968 96.0999 13.1968 96.0999 13.2968C96.0999 13.4968 96.0999 13.6968 96.0999 13.8968C96.0999 14.2968 96 14.5968 95.9 14.9968C95.7 15.6968 95.4 16.3968 94.9 16.9968C94.4 17.5968 93.9 18.0968 93.2 18.4968C92.5 18.8968 91.7999 19.0968 90.9999 19.1968C90.5999 19.1968 90.2 19.2968 89.9 19.1968C89.5 19.1968 89.1999 19.1968 88.7999 18.9968C88.0999 18.7968 87.3999 18.4968 86.7999 18.0968C85.5999 17.1968 84.7 16.0968 84.2 14.7968C84.2 14.7968 84.1999 14.6968 84.2999 14.6968H84.4C85.3 15.6968 86.3 16.4968 87.4 17.0968C88.5 17.6968 89.7 17.7968 90.9 17.6968C92.1 17.6968 93.1999 17.1968 93.9999 16.2968C94.3999 15.7968 94.7 15.2968 94.9 14.6968C95 14.3968 95.0999 14.0968 95.0999 13.7968C95.0999 13.6968 95.0999 13.4968 95.0999 13.3968C95.0999 13.2968 95.0999 13.2968 95.0999 13.1968C95.0999 13.1968 95.0999 13.0968 95.0999 13.1968C95.0999 13.1968 95.1 13.2968 95.2 13.2968C94.8 12.8968 93.9999 12.5968 93.2999 12.3968C92.4999 12.1968 91.6999 12.0968 90.9999 11.8968C90.1999 11.7968 89.3999 11.6968 88.5999 11.5968C87.7999 11.4968 87 11.4968 86.2 11.0968C85.9 10.9968 85.9 10.8968 85.9 10.7968C85.9 10.8968 85.9 10.7968 85.9 10.7968Z" fill="black"/>
    <path d="M129.4 6.89688C127.9 7.69688 126.4 7.99689 124.9 8.59689C123.4 9.09689 121.9 9.69688 120.4 10.2969C118.9 10.8969 117.5 11.5969 116.1 12.3969C114.8 13.1969 113.4 14.0969 112.4 15.2969L112 14.6969C112.8 14.4969 113.6 14.2969 114.5 14.0969C115.3 13.9969 116.2 13.7969 117 13.7969C118.7 13.6969 120.4 13.6969 122.1 14.2969C122.3 14.3969 122.4 14.5969 122.4 14.7969C122.4 14.8969 122.3 14.9969 122.1 15.0969C120.8 15.5969 119.5 16.0969 118.3 16.6969C117.7 16.9969 117.1 17.3969 116.5 17.6969C115.9 18.0969 115.3 18.4969 114.9 18.9969H114.8V18.8969C115.2 18.2969 115.7 17.7969 116.3 17.2969C116.8 16.7969 117.4 16.3969 118 16.0969C119.2 15.2969 120.5 14.6969 121.8 14.1969V15.1969C121.1 14.9969 120.3 14.7969 119.5 14.7969C118.7 14.7969 117.9 14.6969 117.1 14.7969C115.5 14.8969 113.8 15.0969 112.3 15.4969C112.1 15.4969 111.9 15.3969 111.8 15.1969C111.8 15.0969 111.8 14.8969 111.9 14.8969C113 13.5969 114.4 12.7969 115.8 11.8969C117.2 11.0969 118.7 10.3969 120.1 9.79688C121.6 9.19688 123.1 8.49689 124.6 7.99689C126.1 7.49689 127.6 6.8969 129.3 6.6969C129.3 6.6969 129.4 6.79688 129.4 6.89688C129.4 6.79688 129.4 6.79688 129.4 6.89688Z" fill="black"/>
    <path d="M122.1 107.497C123.8 106.297 124.9 104.397 125 102.497C125 102.297 125 101.997 125 101.797C125 101.697 125 101.597 124.9 101.497C124.8 101.297 124.8 101.197 124.7 101.097C124.5 100.697 124.2 100.397 123.9 100.197C123.1 99.797 122 99.697 121 99.697C119 99.697 116.9 100.097 114.8 100.397C112.7 100.797 110.7 101.197 108.7 101.797C104.7 102.997 101 104.897 97.8 107.597C96.2 108.897 94.8 110.497 93.6 112.097C93 112.897 92.5 113.797 92.1 114.797C91.7 115.697 91.4 116.697 91.4 117.597C91.4 118.397 91.9 119.397 92.6 120.097C93.2 120.797 94.1 121.397 95 121.797C96.8 122.697 98.8 123.097 100.9 123.197C102.9 123.397 105 123.397 107.1 123.197C108.1 123.197 109.2 122.997 110.2 122.897C111.2 122.697 112.2 122.597 113.2 122.397C117.2 121.597 121.2 119.997 124.5 117.497C126.2 116.297 127.7 114.897 129 113.197C129.3 112.797 129.6 112.397 129.9 111.897C130.1 111.497 130.2 110.997 130.2 110.497C130.2 109.997 130 109.497 129.6 109.297C129.2 108.997 128.7 108.997 128.2 109.097C128.1 109.097 128.1 109.097 128.1 108.997C128.1 108.997 128.1 108.897 128.2 108.897C128.7 108.797 129.3 108.797 129.8 109.097C130.3 109.397 130.6 109.997 130.7 110.597C130.8 111.197 130.7 111.697 130.5 112.297C130.3 112.797 130 113.297 129.7 113.697C128.5 115.497 126.9 116.997 125.2 118.397C121.8 121.097 117.8 122.897 113.6 123.897C112.6 124.097 111.5 124.297 110.4 124.397C109.3 124.497 108.3 124.597 107.2 124.697C105.1 124.797 102.9 124.897 100.8 124.697C98.7 124.397 96.5 123.997 94.5 122.997C93.5 122.497 92.6 121.797 91.8 120.997C91.1 120.097 90.5 119.097 90.4 117.797C90.4 116.597 90.7 115.497 91.2 114.497C91.6 113.497 92.2 112.497 92.8 111.697C94 109.897 95.5 108.297 97.2 106.997C100.5 104.297 104.4 102.297 108.5 101.097C110.6 100.497 112.6 99.9969 114.7 99.5969C116.8 99.1969 118.9 98.897 121.1 98.897C122.2 98.897 123.3 98.8969 124.4 99.4969C124.9 99.7969 125.4 100.297 125.7 100.897C125.7 100.997 125.8 101.197 125.8 101.197C125.9 101.297 126 101.497 126 101.697C126.1 101.997 126.1 102.297 126.1 102.597C125.9 104.897 124.5 106.997 122.4 107.797H122.3C122 107.597 122.1 107.597 122.1 107.497Z" fill="black"/>
    <path d="M125.5 111.197C125.7 110.597 126.2 110.397 126.5 109.997C126.9 109.697 127.3 109.397 127.6 108.997C128.3 108.297 128.7 107.397 128.8 106.497C128.8 106.297 128.8 106.097 128.8 105.797C128.8 105.597 128.7 105.397 128.6 105.197C128.4 104.797 128.3 104.397 128 104.097C127.8 103.797 127.5 103.597 127.1 103.497C126.7 103.397 126.2 103.297 125.7 103.297C125.6 103.297 125.6 103.297 125.6 103.197V103.097C126 102.697 126.6 102.497 127.2 102.397C127.8 102.297 128.6 102.597 129.1 103.097C129.6 103.597 129.8 104.197 129.9 104.797C130 105.397 130 105.997 129.8 106.597C129.6 107.797 128.9 108.697 128.1 109.497C127.7 109.897 127.3 110.297 126.9 110.597C126.4 110.897 126.1 111.297 125.4 111.197C125.5 111.297 125.5 111.297 125.5 111.197Z" fill="black"/>
    <path d="M27.1 105.097C26 104.597 24.9 103.797 24 102.797C23.1 101.797 22.5 100.697 22 99.4969C21 97.0969 20.5 94.5968 20.1 92.0968C19.7 89.5968 19.7001 86.9969 19.9001 84.4969C20.1001 81.9969 20.5 79.4969 21.1 76.9969V76.8969C21.2 76.7969 21.3 76.3968 21.3 76.0968C21.4 75.7968 21.4 75.4968 21.5 75.0968C21.6 74.4968 21.6 73.7968 21.6 73.0968C21.6 71.7968 21.5 70.4969 21.2 69.1969C20.6 66.5969 19.5001 64.0969 18.9001 61.3969C18.2001 58.6968 17.9 55.8969 18.1 53.0969C18.3 50.2969 18.6 47.4969 19.5 44.8969C19.8 43.4969 20.4 42.2969 21 40.9969C21.3 40.3969 21.6001 39.6969 21.9001 39.0969C22.2001 38.4969 22.5001 37.7968 22.9001 37.2968C23.3001 36.6968 23.7 36.0969 24 35.4969C24.4 34.8969 24.8 34.3968 25.3 33.7968L25.9001 32.9969L26.6 32.1969C27.1 31.6969 27.5 31.1969 28 30.6969C31.8 26.6969 36.3 23.3969 41.2 20.8969C41.3 20.8969 41.4001 20.8969 41.4001 20.9969C41.4001 21.0969 41.4001 21.0969 41.4001 21.1969C36.9001 24.1969 32.8 27.7968 29.3 31.7968C27.6 33.7968 26 35.9968 24.7 38.2968C24.3 38.7968 24 39.3969 23.7 39.9969C23.4 40.5969 23.1 41.1968 22.8 41.7968C22.3 42.9968 21.7001 44.1969 21.4001 45.4969C19.8001 50.4969 19.1 55.9969 20.3 61.0969C20.9 63.6969 21.9 66.1969 22.6 68.9969C22.9 70.2969 23 71.7969 23 73.1969C23 73.8969 22.9 74.5968 22.8 75.2968C22.8 75.5968 22.7 75.9969 22.6 76.3969C22.5 76.7969 22.5 77.0968 22.2 77.5968L22.3 77.4969C21.7 79.8969 21.3 82.2968 21.1 84.7968C20.9 87.2968 20.9 89.6968 21.3 92.0968C21.6 94.4968 22.1 96.9969 23 99.1969C23.5 100.297 24 101.397 24.7 102.397C25.4 103.397 26.2 104.197 27.1 105.097C27.1 105.097 27.1 105.197 27.1 105.297C27.1 105.097 27.1 105.097 27.1 105.097Z" fill="black"/>
    <path d="M57.9 14.2969C55.1 12.7969 52.6999 10.8969 49.9999 9.39691C47.2999 7.89691 44.4999 6.49691 41.6999 5.39691C40.2999 4.79691 38.7999 4.39692 37.2999 3.99692C36.5999 3.79692 35.7999 3.59692 35.0999 3.49692L33.9999 3.19693L32.9 2.99692L30.5999 2.59692L28.2999 2.39691C27.8999 2.39691 27.4999 2.29691 27.0999 2.29691H25.9H23.5999H23.6999C23.8999 2.29691 24.0999 2.09693 24.0999 2.19693L23.9999 2.39691C23.8999 2.49691 23.7999 2.69691 23.7999 2.89691C23.5999 3.19691 23.5 3.49691 23.4 3.89691C23.1 4.59691 22.8999 5.19691 22.6999 5.89691C22.2999 7.29691 21.8999 8.69692 21.6999 10.0969C21.1999 12.8969 20.9999 15.7969 21.0999 18.6969C21.0999 21.5969 21.5999 24.3969 22.1999 27.1969C22.4999 28.5969 22.9 29.9969 23.4 31.3969C23.9 32.7969 24.3999 34.0969 24.9999 35.4969C24.9999 35.5969 25 35.5969 24.9 35.6969C24.8 35.6969 24.7999 35.6969 24.6999 35.6969C23.8999 34.4969 23.1 33.1969 22.4 31.8969C21.7 30.5969 21.1999 29.1969 20.6999 27.7969C19.6999 24.8969 19.1999 21.9969 18.9999 18.8969C18.7999 15.8969 19.0999 12.7969 19.6999 9.89691C19.9999 8.39691 20.3999 6.99692 20.9999 5.49692C21.2999 4.79692 21.4999 4.09691 21.7999 3.39691C21.9999 2.99691 22.0999 2.69691 22.2999 2.39691C22.3999 2.19691 22.4999 1.99691 22.5999 1.89691L22.7999 1.59692L22.9999 1.39691C22.9999 1.39691 23.2999 1.09692 23.5999 1.09692H23.6999C26.8999 1.19692 29.9999 1.29691 33.1999 1.89691L34.4 2.09692L35.5999 2.39691C36.3999 2.59691 37.1 2.79692 37.9 2.99692C39.4 3.49692 40.9 3.89692 42.4 4.49692C45.3 5.59692 48.2 6.89692 50.9 8.59692C53.6 10.1969 56.2999 11.8969 58.2999 14.3969C58.0999 14.1969 58 14.2969 57.9 14.2969C58 14.2969 57.9 14.2969 57.9 14.2969Z" fill="black"/>
    <path d="M73.9 45.2969C73.4 45.3969 73 45.3969 72.5 45.2969C72.1 45.0969 71.6 44.9969 71.2 44.5969C71.1 44.4969 71 44.3969 70.9 44.2969C70.8 44.1969 70.7 43.9969 70.7 43.8969C70.6 43.6969 70.6 43.4969 70.5 43.2969L70.1 42.0969C69.5 40.4969 68.9 38.7969 68.3 37.2969C67.6 35.6969 66.7 34.2969 65.9 32.7969C65.1 31.2969 64.2 29.8969 62.9 28.7969V28.6969H63C63.9 28.8969 64.8 29.3969 65.4 29.9969C65.8 30.2969 66.1 30.5969 66.3 30.9969C66.6 31.3969 66.9 31.6969 67.1 32.0969C68.1 33.5969 68.6 35.3969 69.2 36.9969C69.8 38.5969 70.4 40.2969 70.9 41.9969L71.3 43.1969L71.5 43.7969C71.5 43.8969 71.6 43.8969 71.6 43.9969C71.6 43.9969 71.7 44.0969 71.8 44.0969C72.3 44.5969 73.2 44.6969 73.9 45.3969C74 45.1969 74 45.1969 73.9 45.2969Z" fill="black"/>
    <path d="M43.2999 48.1969C42.6999 47.2969 42.7999 46.3969 42.5999 45.3969C42.4999 44.4969 42.4999 43.4969 42.5999 42.5969C42.5999 40.6969 42.6999 38.7969 43.0999 36.8969C43.3999 34.9969 43.9999 32.9969 45.1999 31.4969C46.3999 29.9969 47.8999 28.5969 49.6999 27.8969C49.6999 27.8969 49.7999 27.8969 49.7999 27.9969V28.0969C48.4999 29.4969 47.3999 30.8969 46.4999 32.3969C45.5999 33.8969 44.6999 35.3969 44.1999 37.1969C43.7999 38.9969 43.5999 40.7969 43.5999 42.6969C43.5999 43.5969 43.5999 44.5969 43.6999 45.4969C43.6999 46.3969 43.8999 47.2968 43.5999 48.2968C43.3999 48.1968 43.3999 48.1969 43.2999 48.1969Z" fill="black"/>
    <path d="M66.7999 29.2968C65.5999 29.3968 64.5999 28.9968 63.5999 28.7968C62.5999 28.4968 61.5 28.2969 60.4 28.0969C58.3 27.6969 56.0999 27.4968 53.9999 27.4968C51.8999 27.5968 49.7999 28.0969 47.7999 28.6969C45.7999 29.3969 44 30.4968 42.4 31.8968C42.4 31.8968 42.3 31.8968 42.2 31.8968V31.7968C43.2 29.6968 45.2 28.2968 47.2 27.2968C49.3 26.3968 51.7 26.2968 53.9 26.3968C56.1 26.3968 58.2999 26.6969 60.4999 27.1969C61.5999 27.3969 62.7 27.5968 63.7 27.8968C64.7 28.1968 65.9 28.3969 66.7 29.1969C66.8 29.1969 66.7999 29.2968 66.7999 29.2968Z" fill="black"/>
    <path d="M73.9 46.3969C70.9 46.9969 67.9 46.9969 64.9 47.1969C61.9 47.3969 58.9 47.5969 55.9 47.8969C52.9 48.1969 49.9 48.4969 47 48.8969C44 49.2969 41.1 49.7969 38.2 50.3969C35.3 51.0969 32.4 51.8969 30 53.4969C27.5 54.9969 25.4 57.0969 24.4 59.6969C23.4 62.2969 23.4 65.3969 24.7 67.8969C26 70.4969 28.3 72.4969 31.1 73.4969L31.2 73.5969L31.1 73.6969C30.4 73.4969 29.6 73.2969 28.9 72.9969C28.2 72.5969 27.5 72.3969 26.9 71.8969L26 71.1969C25.7 70.8969 25.5 70.5969 25.2 70.2969C24.6 69.7969 24.2 69.0969 23.8 68.3969C22.2 65.5969 22 62.0969 23.1 59.0969C23.4 58.3969 23.8 57.5969 24.2 56.9969L24.9 55.9969L25.2 55.4969C25.3 55.3969 25.5 55.1969 25.6 55.0969C26.7 53.8969 28 52.9969 29.3 52.1969C30 51.7969 30.7 51.4969 31.4 51.1969L33.6 50.3969C35.1 49.8969 36.6 49.5969 38 49.2969C41 48.6969 43.9 48.1969 46.9 47.7969C49.9 47.3969 52.9 47.0969 55.9 46.8969C58.9 46.5969 61.9 46.3969 64.9 46.1969C67.9 46.0969 70.9 45.7969 73.9 46.1969C73.9 46.1969 73.9 46.2969 73.9 46.3969C74 46.3969 73.9 46.3969 73.9 46.3969Z" fill="black"/>
    <path d="M19 56.6969C17.7 57.3969 16.4 57.7969 15.1 58.3969C13.8 58.9969 12.6 59.5969 11.4 60.3969C10.3 61.1969 9.29999 62.1969 8.29999 63.1969C7.29999 64.1969 6.39998 65.2969 5.59998 66.3969C3.89998 68.6969 2.40001 71.0969 1.70001 73.5969C1.60001 73.8969 1.6 74.1969 1.5 74.4969C1.5 74.7969 1.5 75.0969 1.5 75.3969C1.6 76.0969 1.8 76.6969 2 77.2969C2.3 77.8969 2.69999 78.3969 3.29999 78.6969C3.79999 78.9969 4.60001 79.1969 5.20001 79.0969C5.30001 79.0969 5.29999 79.0969 5.29999 79.1969C5.29999 79.2969 5.30001 79.2969 5.20001 79.2969C4.50001 79.5969 3.70002 79.6969 2.90002 79.3969C2.10002 79.0969 1.5 78.5969 1 77.8969C0.5 77.1969 0.299976 76.4969 0.0999756 75.6969C-2.44156e-05 75.2969 0 74.8969 0 74.4969C0 74.0969 -2.44156e-05 73.6969 0.0999756 73.2969C0.299976 72.4969 0.499988 71.7969 0.799988 71.0969C1.09999 70.3969 1.50002 69.7969 1.90002 69.1969C2.70002 67.9969 3.59998 66.7969 4.59998 65.6969C5.49998 64.5969 6.5 63.4969 7.5 62.4969C8.5 61.4969 9.59999 60.3969 10.8 59.5969C12 58.6969 13.3 57.9969 14.6 57.3969C15.9 56.8969 17.3 56.2969 18.8 56.3969C19 56.5969 19 56.5969 19 56.6969Z" fill="black"/>
    <path d="M7.29999 73.2968C7.09999 74.0968 6.59999 74.5968 6.29999 75.2968C5.99999 75.8968 5.79999 76.5968 5.79999 77.2968C5.79999 78.6968 6.59999 80.0968 7.79999 80.2968C8.39999 80.3968 9.09999 80.3968 9.79999 80.1968C10.5 79.9968 10.9 79.7968 11.3 79.1968C12.2 78.1968 12.6 76.7968 12.7 75.2968C12.7 75.1968 12.7 75.1968 12.8 75.1968H12.9C13.7 76.6968 13.5 78.5968 12.5 79.9968C12.2 80.3968 11.9 80.6968 11.5 80.9968C11 81.2968 10.6 81.2969 10.2 81.3969C9.30001 81.4969 8.49998 81.4968 7.59998 81.1968C6.69998 80.9968 5.99998 80.2968 5.59998 79.5968C5.19998 78.8968 5 77.9968 5 77.0968C5 76.2968 5.19998 75.3968 5.59998 74.6968C5.99998 73.9968 6.39999 73.1968 7.29999 72.9968C7.19999 73.1968 7.29999 73.1968 7.29999 73.2968Z" fill="black"/>
    <path d="M22.4 71.697C22.1 72.197 21.7 72.297 21.3 72.497C20.9 72.697 20.5 72.797 20.1 72.997C19.3 73.397 18.6 73.8969 17.8 74.2969C17.1 74.7969 16.5 75.497 15.8 75.897C15.4 76.097 15.1 76.3969 14.7 76.5969C14.3 76.7969 13.9 77.097 13.5 77.197C13.4 77.197 13.4 77.1969 13.4 77.0969V76.997C13.7 75.997 14.3 75.297 15 74.697C15.7 73.997 16.6 73.7969 17.4 73.2969C18.2 72.8969 19 72.397 19.9 71.997C20.3 71.797 20.7 71.597 21.2 71.397C21.6 71.297 22.1 70.997 22.6 71.397C22.4 71.497 22.4 71.597 22.4 71.697Z" fill="black"/>
    <path d="M33.9 54.3969C30.4 55.8969 30.9 57.7969 31.3 58.3969C31.7 58.9969 33.4 59.5969 35.5 58.3969C37.7 57.1969 38.6 55.5969 38 54.3969C37.4 53.0969 33.9 54.3969 33.9 54.3969Z" fill="#F7C080"/>
    <path d="M36.3 61.9969C34.8 62.5969 34.5 63.7969 34.8 64.3969C35.1 64.9969 36.5 65.2969 37.7 64.8969C38.9 64.4969 39.8 63.3969 39.5 62.3969C39.2 61.3969 37.9 61.2969 36.3 61.9969Z" fill="#F7C080"/>
    <path d="M52 20.1969C51.3 19.6969 50.9 19.3969 50.2 19.5969C49.5 19.6969 48.8 19.9969 48.2 20.3969C47.6 20.7969 47 21.3969 46.6 21.9969C46.2 22.5969 45.9 23.2969 46.2 23.7969C46.3 24.0969 46.5 24.1969 46.7 24.2969C47 24.3969 47.3 24.3969 47.6 24.2969C47.9 24.1969 48.3 24.0969 48.6 23.9969C48.9 23.8969 49.3 23.6969 49.6 23.4969C50.3 23.1969 50.9 22.6969 51.5 22.1969C51.8 21.8969 52 21.6969 52.1 21.2969C52.1 20.9969 52.1 20.5969 52 20.1969ZM52.2 20.0969C52.4 20.4969 52.6 20.8969 52.6 21.3969C52.6 21.8969 52.4 22.3969 52.2 22.7969C51.7 23.5969 51.1 24.1969 50.3 24.6969C49.5 25.1969 48.7 25.4969 47.7 25.5969C47.2 25.5969 46.7 25.5969 46.2 25.3969C45.7 25.1969 45.2 24.6969 45.1 24.1969C44.9 23.6969 44.9 23.0969 45.1 22.6969C45.3 22.1969 45.5 21.7969 45.8 21.4969C46.4 20.7969 47 20.1969 47.7 19.7969C48.4 19.2969 49.2 18.8969 50.1 18.7969C50.6 18.6969 51.1 18.7969 51.6 19.0969C51.9 19.1969 52.2 19.6969 52.2 20.0969Z" fill="black"/>
    <path d="M61.0001 13.3968C60.9001 13.8968 60.6 13.8969 60.3 14.0969L59.5001 14.3968L58.0001 15.1969C57.5001 15.4969 57.1 15.8969 56.6 16.0969C56.1 16.2969 55.5001 16.3969 54.9001 16.4969C54.8001 16.4969 54.8 16.4968 54.8 16.3968C55 15.6968 55.5001 15.1968 55.9001 14.8968C56.4001 14.4968 57 14.5968 57.6 14.3968C58.1 14.1968 58.7001 13.9968 59.2001 13.7968C59.5001 13.6968 59.7001 13.5968 60.0001 13.3968C60.3001 13.2968 60.5001 13.0968 60.9001 13.3968C60.9001 13.1968 61.0001 13.2968 61.0001 13.3968Z" fill="black"/>
    <path d="M70.8 11.097C70 11.497 69.2 11.497 68.4 11.597C67.6 11.697 66.8 11.6969 66 11.8969C65.2 11.9969 64.4 12.0969 63.7 12.3969C63 12.5969 62.2 12.8969 61.8 13.2969C61.8 13.2969 61.9 13.297 61.9 13.197C61.9 13.197 61.9 13.2969 61.9 13.3969C61.9 13.4969 61.9 13.6969 61.9 13.7969C61.9 14.0969 62 14.397 62.1 14.697C62.3 15.297 62.6 15.7969 63 16.2969C63.8 17.1969 64.9 17.7969 66.1 17.7969C67.3 17.8969 68.5 17.797 69.6 17.197C70.7 16.597 71.7 15.797 72.6 14.697C72.6 14.697 72.7 14.597 72.7 14.697V14.7969C72.3 16.0969 71.4 17.297 70.2 18.197C69.6 18.597 68.9 18.997 68.2 19.197C67.8 19.297 67.4 19.2969 67.1 19.3969C66.7 19.3969 66.3 19.3969 66 19.3969C65.2 19.2969 64.5 18.997 63.8 18.597C63.1 18.197 62.6 17.597 62.1 16.997C61.7 16.397 61.4 15.697 61.1 14.997C61 14.597 60.9 14.2969 60.9 13.8969C60.9 13.6969 60.9 13.4969 60.9 13.2969C60.9 13.1969 60.9 13.097 60.9 12.997C60.9 12.897 60.9 12.8969 60.9 12.7969C60.9 12.6969 61 12.597 61.1 12.497C61.9 11.697 62.7 11.5969 63.6 11.2969C64.4 11.0969 65.2 10.8969 66.1 10.7969C67 10.6969 67.7 10.597 68.6 10.497C69.4 10.497 70.3 10.3969 71.1 10.7969C70.9 10.8969 70.9 10.997 70.8 11.097C70.9 10.997 70.8 10.997 70.8 11.097Z" fill="black"/>
    <path d="M27.4 6.79688C29 6.89688 30.5 7.49689 32.1 8.09689C33.6 8.59689 35.1 9.19688 36.6 9.89688C38.1 10.4969 39.5 11.1969 40.9 11.9969C42.3 12.7969 43.7 13.6969 44.8 14.9969C44.9 15.0969 44.9 15.3969 44.8 15.4969C44.7 15.5969 44.6 15.5969 44.5 15.5969C42.9 15.1969 41.3 14.9969 39.7 14.7969C38.1 14.6969 36.4 14.7969 34.9 15.1969V14.3969C36.2 14.9969 37.5 15.5969 38.7 16.2969C39.3 16.6969 39.9 16.9969 40.5 17.4969C41.1 17.9969 41.6 18.3969 42 18.9969V19.0969H41.9C41.4 18.5969 40.9 18.1969 40.3 17.7969C39.7 17.3969 39.1 17.0969 38.5 16.7969C37.2 16.1969 36 15.6969 34.7 15.1969C34.4 15.0969 34.3 14.7969 34.4 14.5969C34.4 14.4969 34.6 14.2969 34.7 14.2969C36.4 13.6969 38.1 13.5969 39.8 13.7969C41.5 13.9969 43.1 14.2969 44.8 14.7969L44.4 15.3969C43.4 14.1969 42.1 13.3969 40.7 12.4969C39.3 11.6969 37.9 10.9969 36.4 10.3969C34.9 9.79688 33.4 9.1969 31.9 8.6969C30.4 8.0969 28.9 7.69687 27.4 6.79688C27.4 6.89688 27.4 6.89688 27.4 6.79688Z" fill="black"/>
    <path d="M34.6 107.797C32.6 106.997 31.1001 104.897 30.9001 102.597C30.9001 102.297 30.9001 101.997 31.0001 101.697C31.0001 101.597 31.1001 101.297 31.2001 101.197C31.2001 101.097 31.3 100.997 31.3 100.897C31.5 100.297 32 99.7969 32.6 99.4969C33.7 98.9969 34.8001 98.897 35.9001 98.897C38.1001 98.897 40.2 99.1969 42.3 99.5969C44.4 99.9969 46.4 100.497 48.5 101.097C52.6 102.297 56.5 104.297 59.8 106.997C61.5 108.397 62.9001 109.997 64.2001 111.697C64.8001 112.597 65.4 113.497 65.8 114.497C66.2 115.497 66.6 116.597 66.6 117.797C66.6 119.097 65.9001 120.097 65.2001 120.997C64.4001 121.897 63.5 122.497 62.5 122.997C60.5 123.997 58.3001 124.497 56.2001 124.697C54.0001 124.897 51.9 124.897 49.8 124.697C48.7 124.697 47.7 124.497 46.6 124.397C45.5 124.197 44.5001 124.097 43.4001 123.897C39.2001 122.897 35.2 121.097 31.8 118.397C30.1 117.097 28.6 115.597 27.3 113.797C27 113.397 26.7001 112.897 26.5001 112.397C26.2001 111.897 26.2 111.297 26.3 110.697C26.4 110.097 26.6001 109.497 27.2001 109.297C27.7001 108.997 28.3 108.997 28.8 109.097C28.9 109.097 28.9001 109.197 28.9001 109.197L28.8 109.297C28.3 109.297 27.8001 109.297 27.4001 109.597C27.0001 109.897 26.8 110.297 26.8 110.797C26.8 111.297 26.9 111.797 27.1 112.197C27.4 112.597 27.6001 113.097 28.0001 113.397C29.3001 114.997 30.8001 116.397 32.5001 117.597C34.2001 118.797 36.0001 119.797 37.9001 120.597C39.8001 121.397 41.8 121.997 43.8 122.397C44.8 122.597 45.8 122.797 46.8 122.897C47.8 122.997 48.9001 123.197 49.9001 123.197C52.0001 123.397 54.1 123.397 56.1 123.197C58.1 122.997 60.2001 122.697 62 121.797C62.9001 121.397 63.7001 120.797 64.4001 120.097C65.0001 119.397 65.6 118.497 65.6 117.597C65.6 116.697 65.3001 115.697 64.9001 114.797C64.5001 113.897 64.0001 112.997 63.4001 112.097C62.2001 110.397 60.8001 108.897 59.2001 107.597C56.0001 104.997 52.3 102.997 48.3 101.797C46.3 101.197 44.2001 100.797 42.2001 100.397C40.1001 99.997 38.1 99.697 36.0001 99.697C35.0001 99.697 33.9 99.797 33.1 100.197C32.7 100.397 32.4 100.697 32.3 101.097C32.3 101.197 32.2 101.297 32.1 101.497C32.1 101.597 32.0001 101.597 32.0001 101.797C32.0001 101.997 32.0001 102.197 32.0001 102.497C32.1001 104.497 33.2001 106.397 34.9001 107.497C34.7001 107.597 34.7 107.697 34.6 107.797C34.7 107.797 34.6 107.797 34.6 107.797Z" fill="black"/>
    <path d="M31.2 111.397C30.5 111.497 30.1 111.097 29.7 110.797C29.3 110.497 28.8999 110.097 28.4999 109.697C27.6999 108.897 27.0999 107.997 26.7999 106.797C26.6999 106.497 26.7 106.197 26.7 105.897C26.7 105.597 26.6999 105.297 26.7999 104.997C26.8999 104.697 26.9999 104.397 27.0999 104.197L27.2999 103.797C27.3999 103.697 27.4999 103.497 27.5999 103.397C28.0999 102.897 28.8 102.697 29.4 102.697C30 102.697 30.5999 102.897 30.9999 103.297V103.397C30.9999 103.397 31 103.397 30.9 103.397C30.4 103.397 29.8999 103.497 29.4999 103.697C29.0999 103.897 28.8 104.097 28.7 104.297C28.5 104.497 28.2999 104.897 28.0999 105.297C27.9999 105.497 27.9 105.697 27.9 105.897C27.9 106.097 27.8 106.297 27.9 106.497C28 107.397 28.4999 108.297 29.0999 108.997C29.3999 109.297 29.8 109.697 30.2 109.997C30.6 110.297 31 110.497 31.2 111.197C31.3 111.397 31.3 111.397 31.2 111.397Z" fill="black"/>
    <path d="M71.3 10.4969C71.4 10.4969 71.4001 10.3969 71.5001 10.3969H71.6L71.8 10.2969C71.9 10.2969 72.1001 10.1969 72.2001 10.1969C72.5001 10.0969 72.8 10.0969 73.1 9.99689C73.7 9.89689 74.3001 9.89687 74.9001 9.79688C76.1001 9.69687 77.3001 9.6969 78.4001 9.6969C80.8001 9.6969 83.1001 9.69689 85.5001 9.99689C85.8001 9.99689 86.0001 10.2969 85.9001 10.4969C85.6001 12.4969 84.8001 14.3969 83.7001 15.9969C83.1001 16.7969 82.3001 17.5969 81.4001 18.0969C80.5001 18.6969 79.4 18.8969 78.3 18.9969C77.2 18.9969 76.1001 18.7969 75.2001 18.1969C74.3001 17.5969 73.5001 16.8969 73.0001 15.9969C72.4001 15.0969 72 14.1969 71.8 13.2969C71.7 12.7969 71.5001 12.2969 71.5001 11.8969C71.5001 11.6969 71.4001 11.3969 71.4001 11.1969V10.7969V10.5969V10.4969C71.3001 10.5969 71.3 10.5969 71.3 10.4969ZM71.4001 10.5969C72.0001 12.2969 72.8001 14.0969 73.9001 15.4969C74.5001 16.1969 75.1001 16.6969 75.9001 17.0969C76.7001 17.3969 77.4 17.5969 78.3 17.5969C79.1 17.5969 80.0001 17.4969 80.7001 17.0969C81.5001 16.6969 82.1001 16.1969 82.7001 15.4969C83.9001 14.0969 84.5001 12.2969 84.9001 10.4969L85.3 11.0969C83 10.7969 80.7 10.6969 78.3 10.6969L74.8 10.7969C74.2 10.7969 73.6001 10.8969 73.0001 10.7969C72.7001 10.7969 72.4 10.7969 72.1 10.7969C71.9 10.7969 71.8001 10.7969 71.7001 10.7969H71.5001L71.4001 10.5969C71.5001 10.6969 71.5001 10.5969 71.4001 10.5969Z" fill="black"/>
    <path d="M21.7001 77.1969C25.7001 74.3969 30.5 73.1969 35.1 71.9969C39.8 70.8969 44.5001 70.1968 49.3001 69.5968C58.8001 68.4968 68.4001 68.0969 77.9001 68.2969L85.1 68.3969C87.5 68.3969 89.9001 68.5968 92.3001 68.5968C94.7001 68.6968 97.1001 68.8968 99.5001 69.0968C101.9 69.2968 104.3 69.4969 106.7 69.6969C111.5 70.2969 116.2 70.9969 120.9 71.8969C125.6 72.8969 130.3 73.9969 134.7 75.9969C134.8 75.9969 134.8 76.0969 134.8 76.1969C134.8 76.2969 134.7 76.2969 134.6 76.2969C132.4 75.4969 130 74.9968 127.7 74.5968C125.4 74.0968 123 73.6969 120.7 73.3969C116 72.6969 111.3 72.0969 106.6 71.7969C97.1 70.8969 87.7 70.1969 78.1 69.7969C68.6 69.5969 59.1 69.7969 49.6 70.8969C44.9 71.3969 40.2 72.1969 35.6 73.2969C33.3 73.7969 31.0001 74.3968 28.8001 75.0968C26.5001 75.7968 24.3 76.4969 22.1 77.3969C22 77.3969 22.0001 77.3969 22.0001 77.2969C21.6001 77.1969 21.7001 77.1969 21.7001 77.1969Z" fill="black"/>
    <path d="M20.5 85.7969C25.1 84.1969 30 83.2969 34.8 82.4969C39.6 81.6969 44.4 80.9969 49.3 80.4969C59 79.3969 68.7 78.8969 78.5 78.7969C83.4 78.7969 88.3 78.7969 93.1 79.0969C98 79.2969 102.8 79.7969 107.7 80.2969C112.5 80.8969 117.4 81.6969 122.2 82.4969C124.6 82.8969 127 83.3969 129.4 83.8969C131.8 84.4969 134.1 85.0969 136.5 85.6969L136.6 85.7969L136.5 85.8969C134.1 85.3969 131.7 84.9969 129.3 84.5969C126.9 84.1969 124.5 83.7969 122.1 83.4969C117.3 82.7969 112.5 82.1969 107.6 81.6969C102.8 81.1969 97.9 80.6969 93.1 80.3969C88.3 80.0969 83.4 79.8969 78.6 79.7969C68.9 79.7969 59.2 80.2969 49.5 81.2969C44.7 81.7969 39.9 82.4969 35.1 83.2969C30.3 84.0969 25.6 85.0969 20.8 85.8969C20.8 85.8969 20.7 85.8969 20.7 85.7969C20.4 85.8969 20.4 85.7969 20.5 85.7969Z" fill="black"/>
    <path d="M65.5 115.497C66.7 115.497 67.6 115.897 68.7 116.197C69.7 116.497 70.7 116.797 71.8 116.997C73.9 117.397 76 117.597 78.1 117.597C80.2 117.497 82.3 117.197 84.4 116.997C86.5 116.797 88.6 116.497 90.8 116.197C90.9 116.197 90.9 116.197 90.9 116.297V116.397C88.9 117.497 86.8 117.997 84.7 118.397C82.5 118.797 80.3 118.697 78.2 118.597C76 118.597 73.8 118.297 71.7 117.797C70.6 117.597 69.6 117.397 68.5 116.997C67.5 116.697 66.4 116.397 65.5 115.597C65.5 115.597 65.5 115.497 65.5 115.497Z" fill="black"/>
    <path d="M46.1999 81.3969C46.0999 82.0969 45.7 82.4969 45.4 82.9969C45.1 83.4969 44.6999 83.9969 44.4999 84.4969C43.9999 85.4969 43.4999 86.5969 43.0999 87.6969C42.6999 88.7969 42.5999 89.9969 42.1999 91.0969C41.9999 91.6969 41.8999 92.1969 41.6999 92.7969C41.4999 93.3969 41.2999 93.8969 40.9999 94.4969C40.9999 94.4969 40.9 94.5969 40.9 94.4969C40.9 94.4969 40.8999 94.4969 40.7999 94.3969C40.4999 93.0969 40.4999 91.8969 40.6999 90.6969C40.8999 89.4969 41.4999 88.3969 41.9999 87.2969C42.4999 86.1969 42.9999 85.0969 43.5999 83.9969C43.8999 83.4969 44.1999 82.8969 44.5999 82.3969C44.9999 81.8969 45.2999 81.3969 46.0999 81.1969C46.1999 81.2969 46.1999 81.2969 46.1999 81.3969Z" fill="black"/>
    <path d="M52.5 80.697C52.6 81.297 52.2 81.6969 52 82.0969C51.8 82.4969 51.5 82.8969 51.3 83.2969C50.9 84.0969 50.6 84.997 50.3 85.897C50.1 86.797 50 87.6969 49.8 88.5969C49.6 89.4969 49.4 90.397 49 91.397C49 91.497 48.9 91.4969 48.9 91.4969C48.9 91.4969 48.9 91.497 48.8 91.397C48.3 90.397 48.2 89.397 48.3 88.397C48.3 87.397 48.9 86.4969 49.2 85.5969C49.5 84.6969 49.9 83.797 50.4 82.897C50.6 82.497 50.8 81.9969 51.1 81.5969C51.4 81.1969 51.6 80.6969 52.3 80.5969C52.4 80.5969 52.5 80.597 52.5 80.697Z" fill="black"/>
    <path d="M110.6 81.6969C111.4 81.7969 111.7 82.3969 112.1 82.8969C112.5 83.3969 112.8 83.8969 113.1 84.4969C113.7 85.5969 114.2 86.6969 114.7 87.7969C115.2 88.8969 115.7 90.0969 115.9 91.2969C116.1 92.4969 116.2 93.6969 116 94.9969C116 95.0969 115.9 95.0969 115.9 95.0969H115.8C115.5 94.4969 115.2 93.9969 115 93.3969C114.8 92.8969 114.6 92.2969 114.4 91.6969C114 90.5969 114 89.3969 113.7 88.2969C113.3 87.1969 112.9 86.0969 112.3 85.0969C112 84.5969 111.7 84.0969 111.4 83.5969C111.1 83.0969 110.7 82.6969 110.6 81.9969C110.4 81.6969 110.5 81.6969 110.6 81.6969Z" fill="black"/>
    <path d="M104.3 80.9968C105 81.0968 105.2 81.5968 105.5 81.9968C105.8 82.3968 106 82.8968 106.2 83.2968C106.7 84.1968 107.1 85.0968 107.4 85.9968C107.7 86.8968 108.2 87.8969 108.2 88.8969C108.3 89.8969 108.2 90.8969 107.8 91.8969C107.8 91.9969 107.7 91.9968 107.7 91.9968C107.7 91.9968 107.7 91.9968 107.6 91.9968C107.1 90.9968 106.9 90.0968 106.7 89.1968C106.5 88.2968 106.6 87.3969 106.3 86.3969C106.1 85.4969 105.8 84.5968 105.3 83.7968C105.1 83.3968 104.8 82.9968 104.6 82.5968C104.4 82.1968 104.1 81.8968 104.1 81.1968C104.2 80.9968 104.3 80.9968 104.3 80.9968Z" fill="black"/>
    <path opacity="0.33" d="M71.7 54.8969C71.7 54.8969 72.7999 60.1969 78.4999 60.1969C84.1999 60.1969 85.2999 54.8969 85.2999 54.8969C85.2999 54.8969 81.7999 57.8968 78.5999 57.7968C75.3999 57.6968 71.7 54.8969 71.7 54.8969Z" fill="#E49B56"/>
    <path d="M72.4 54.8969C72.4 54.8969 74.1 57.7968 78.5 57.7968C82.9 57.7968 84.7 54.8969 84.7 54.8969" stroke="black" stroke-width="1.5" stroke-miterlimit="10" stroke-linecap="round" stroke-linejoin="round"/>
    <path d="M73.4 46.3969C73.4 45.0969 74.4 44.2969 75.3 43.7969C76.3 43.2969 77.4 43.1969 78.4 43.1969C79.4 43.1969 80.5 43.2969 81.5 43.7969C82.5 44.2969 83.4 45.0969 83.8 46.2969C83.8 46.3969 83.8 46.5969 83.8 46.6969C83.2 47.5969 82.5 48.3969 81.6 48.9969C80.7 49.5969 79.6 49.8969 78.5 49.8969C77.4 49.7969 76.3 49.3969 75.5 48.7969C74.6 47.9969 73.9 47.2969 73.4 46.3969ZM73.6 46.2969C74.3 46.8969 75.1 47.4969 75.9 47.7969C76.7 48.0969 77.6 48.2969 78.4 48.2969C78.8 48.2969 79.2 48.2969 79.6 48.0969C80 47.9969 80.4 47.8969 80.8 47.6969C81.6 47.2969 82.3 46.6969 82.8 46.0969L82.7 46.4969C82.5 45.7969 81.8 44.9969 81 44.6969C80.2 44.2969 79.3 44.0969 78.3 44.0969C77.3 44.0969 76.4 44.2969 75.6 44.6969C74.9 44.9969 74.3 45.6969 73.6 46.2969Z" fill="black"/>
    <path d="M97.7999 32.7969C101.7 32.6969 102.4 39.3969 102.2 41.9969C102 44.5969 100.7 47.2969 98.4 47.0969C96.1 46.8969 94.3 44.6969 94.4 40.7969C94.4 36.8969 95.3999 32.7969 97.7999 32.7969Z" stroke="black" stroke-width="0.75" stroke-miterlimit="10" stroke-linecap="round" stroke-linejoin="round"/>
    <path d="M57.4 33.0969C53.5 32.9969 52.7999 39.6969 52.9999 42.2969C53.1999 44.8969 54.4999 47.5969 56.7999 47.3969C59.0999 47.1969 60.8999 44.9969 60.7999 41.0969C60.8999 37.1969 59.9 33.1969 57.4 33.0969Z" stroke="black" stroke-width="0.75" stroke-miterlimit="10" stroke-linecap="round" stroke-linejoin="round"/>
    <path d="M97.3292 37.8738C97.5549 37.1343 96.8815 36.2735 95.8251 35.9511C94.7687 35.6286 93.7293 35.9667 93.5036 36.7062C93.2779 37.4457 93.9514 38.3065 95.0078 38.629C96.0642 38.9514 97.1035 38.6133 97.3292 37.8738Z" fill="#F8F8F9"/>
    <path d="M58.4306 37.7986C58.6563 37.059 57.9828 36.1981 56.9263 35.8756C55.8697 35.5532 54.8303 35.8914 54.6046 36.631C54.3789 37.3705 55.0524 38.2315 56.1089 38.5539C57.1654 38.8763 58.2049 38.5381 58.4306 37.7986Z" fill="#F8F8F9"/>
    <defs>
        <radialGradient id="paint0_radial" cx="0" cy="0" r="1" gradientUnits="userSpaceOnUse" gradientTransform="translate(97.7736 38.3295) scale(9.68037 16.9882)">
            <stop offset="0.2454" stop-color="#006838"/>
            <stop offset="0.439" stop-color="#8DC63F"/>
            <stop offset="0.579" stop-color="#006838"/>
        </radialGradient>
        <radialGradient id="paint1_radial" cx="0" cy="0" r="1" gradientUnits="userSpaceOnUse" gradientTransform="translate(56.669 39.2397) scale(6.65772 15.0399)">
            <stop offset="0.2935" stop-color="#006838"/>
            <stop offset="0.4648" stop-color="#8DC63F"/>
            <stop offset="0.6346" stop-color="#006838"/>
        </radialGradient>
    </defs>
</svg>
