<svg width="157" height="125" viewBox="0 0 157 125" fill="none" xmlns="http://www.w3.org/2000/svg">
    <path d="M57.8302 13.4522C64.4584 10.5014 71.6819 9.13198 78.9302 9.45223C91.1502 9.94223 98.6702 13.4022 98.6702 13.4022C98.6702 13.4022 115.12 -0.597774 133.08 0.762226C136.091 6.31747 137.32 12.6646 136.6 18.9422C135.5 29.7622 131.92 34.6122 131.92 34.6122C131.92 34.6122 137.85 43.0422 137.75 51.8322C137.69 54.9422 137.69 55.8322 137.69 55.8322C137.049 60.0376 136.045 64.1797 134.69 68.2122C134.34 73.6022 134.28 75.4122 134.28 75.4122C115.655 69.5395 96.1167 67.1065 76.6202 68.2322C49.4702 68.2322 34.2602 70.5222 21.6202 76.4922C22.1373 74.6494 22.3368 72.732 22.2102 70.8222C21.8502 68.4822 18.8502 57.9422 18.8102 53.8222C18.7702 49.7022 21.6102 39.9522 24.9302 35.6122L23.4902 32.5422C21.2183 27.569 20.0367 22.1674 20.0246 16.6998C20.0125 11.2323 21.1703 5.82542 23.4202 0.842243C30.9827 0.657652 38.4791 2.28997 45.2802 5.60222C56.6202 11.1022 57.8302 13.4522 57.8302 13.4522Z" fill="#FFCF54"/>
    <path d="M137.69 55.8223C137.69 55.8223 143.55 56.9223 146.69 60.2123C149.83 63.5023 154.24 68.5723 155.47 72.3423C156.7 76.1123 154.23 79.0923 151.29 78.4923C151.29 78.4923 149.29 80.7223 147.45 80.1823C145.61 79.6423 143.66 77.3223 143.67 76.3223L142.67 75.6923C142.67 75.6923 136.49 71.0023 134.52 70.8023C134.565 68.7171 135.01 66.6599 135.83 64.7423C136.809 61.8553 137.434 58.86 137.69 55.8223Z" fill="#FFCF54"/>
    <path d="M19.2903 55.6123C19.2903 55.6123 13.4403 56.7123 10.2903 60.0023C7.14025 63.2923 2.73028 68.3623 1.50028 72.1423C0.270276 75.9223 2.75028 78.8923 5.69028 78.2823C5.69028 78.2823 7.69024 80.5123 9.53024 79.9723C11.3702 79.4323 13.3203 77.1123 13.3103 76.1123L14.3103 75.4923C14.3103 75.4923 20.4902 70.8023 22.4702 70.6023C22.4197 68.5178 21.9752 66.4616 21.1602 64.5423C20.1805 61.6515 19.5527 58.6533 19.2903 55.6123Z" fill="#FFCF54"/>
    <path d="M125.19 102.392C125.19 102.392 127.69 101.912 128.76 103.462C129.83 105.012 127.95 108.532 127.95 108.532C128.334 108.444 128.735 108.471 129.103 108.61C129.471 108.749 129.79 108.993 130.02 109.312C130.71 110.402 130.16 116.622 116.12 121.742C102.08 126.862 91.2403 121.862 90.7103 117.292C90.1803 112.722 98.7103 103.292 106.88 101.292C115.05 99.2923 123.01 97.4823 124.72 99.9123C125.59 101.552 125.19 102.392 125.19 102.392Z" fill="#FFCF54"/>
    <path d="M65.9902 117.242C65.4602 121.812 54.6202 126.822 40.5802 121.692C32.0402 118.572 28.4902 115.052 27.1802 112.522C26.3402 110.902 26.4202 109.692 26.6902 109.262C26.9195 108.945 27.2369 108.702 27.6031 108.563C27.9693 108.424 28.3682 108.396 28.7502 108.482C28.7502 108.482 26.8802 104.962 27.9502 103.412C29.0202 101.862 31.5102 102.352 31.5102 102.352C31.5102 102.352 31.1202 101.552 31.9902 99.8523C33.6902 97.4123 41.7002 99.2223 49.8302 101.222C53.6218 102.329 57.0879 104.34 59.9302 107.082C63.7002 110.542 66.2902 114.672 65.9902 117.242Z" fill="#FFCF54"/>
    <path opacity="0.71" d="M66.1104 28.2823C69.6704 25.9211 73.8387 24.6428 78.1104 24.6023C82.4039 24.6425 86.5947 25.9202 90.1804 28.2823L93.2504 27.7123C93.2504 27.7123 87.7804 34.8923 85.6104 41.8023C84.0904 45.1823 78.7004 45.4523 78.7004 45.4523C78.7004 45.4523 71.4703 44.3123 71.0303 43.0923C70.5903 41.8723 66.8803 29.9823 63.5903 27.7723L66.1104 28.2823Z" fill="#FAA74A"/>
    <path d="M19.3603 49.3923C19.3603 49.3923 17.0903 55.0723 23.7003 58.3923C23.7003 58.3923 20.3503 68.3923 30.1503 72.8323L21.5903 76.5723C21.5903 76.5723 22.6703 71.4723 22.3103 69.1323C21.9503 66.7923 15.8203 55.1323 19.3603 49.3923Z" fill="#FAA74A"/>
    <path d="M11.8004 58.7023C11.6804 58.7923 19.9004 61.6523 16.8004 68.2023C13.7004 74.7523 11.8004 72.3423 11.8004 72.3423L13.2804 76.1123C13.2804 76.1123 19.8104 70.7523 21.6204 70.7423C21.6204 70.7423 20.7404 65.9923 19.9804 62.9223C19.4864 60.5178 19.255 58.0668 19.2904 55.6123C19.2904 55.6123 12.6004 58.0923 11.8004 58.7023Z" fill="#FAA74A"/>
    <path d="M26.8602 6.14219C26.8602 6.14219 22.2502 3.14221 20.7502 24.0622L24.5802 34.6722L30.1802 28.1722L26.8602 6.14219Z" fill="#FAA74A"/>
    <path d="M137.17 49.0222C137.17 49.0222 139.43 54.7022 132.82 57.9722C132.82 57.9722 136.18 67.9722 126.37 72.4122L134.93 76.1622C134.93 76.1622 133.86 71.0522 134.21 68.7222C134.56 66.3922 140.73 54.8022 137.17 49.0222Z" fill="#FAA74A"/>
    <path d="M144.75 58.3922C144.87 58.4822 136.66 61.3422 139.75 67.8922C142.84 74.4422 144.75 72.0323 144.75 72.0323L143.28 75.8022C143.28 75.8022 136.75 70.4423 134.93 70.4323C134.93 70.4323 135.81 65.6822 136.57 62.6122C137.064 60.2077 137.296 57.7567 137.26 55.3022C137.26 55.3022 143.96 57.7622 144.75 58.3922Z" fill="#FAA74A"/>
    <path d="M129.69 5.81236C129.69 5.81236 134.3 2.81235 135.8 23.7323L131.97 34.3923L126.37 27.8923L129.69 5.81236Z" fill="#FAA74A"/>
    <path d="M73.4602 45.2522C74.0468 44.5138 74.7872 43.9122 75.63 43.489C76.4728 43.0659 77.3976 42.8316 78.3402 42.8022C79.2886 42.8523 80.2133 43.1167 81.0447 43.5757C81.8761 44.0348 82.5926 44.6763 83.1403 45.4522C83.1403 45.4522 82.0802 48.1323 78.2502 48.3123C77.2244 48.4126 76.1946 48.1655 75.326 47.6106C74.4575 47.0557 73.8004 46.2252 73.4602 45.2522Z" fill="#231F20"/>
    <path d="M62.4904 27.2722C64.2953 28.5157 65.7322 30.222 66.6503 32.2122C68.5103 35.8522 71.0504 43.0922 71.0504 43.0922L73.7604 44.4722L73.3503 45.5422C73.3503 45.5422 47.0004 46.6722 43.2504 48.1222C43.2504 48.1222 42.1803 39.0122 44.1603 34.6022C45.4315 31.8539 47.1179 29.3176 49.1603 27.0822C49.1603 27.0822 56.3604 25.2222 62.4904 27.2722Z" fill="#F8F8F9"/>
    <path d="M94.0002 27.1824C92.1953 28.4258 90.7584 30.1322 89.8402 32.1224C88.1894 35.6731 86.7175 39.3043 85.4302 43.0023L82.7302 44.3823L83.1403 45.4523C83.1403 45.4523 109.48 46.5824 113.23 48.0324C113.23 48.0324 114.31 38.9223 112.32 34.5123C111.052 31.7627 109.365 29.226 107.32 26.9924C107.32 26.9924 100.11 25.1324 94.0002 27.1824Z" fill="#F8F8F9"/>
    <path d="M30.1803 72.7422C30.1803 72.7422 79.9203 61.7421 125.61 72.8521C125.61 72.8521 132.61 70.6021 133.52 64.2621C134.43 57.9221 134.38 46.5821 83.1403 45.4521C82.7102 46.3675 82.0125 47.1309 81.1394 47.6415C80.2664 48.1521 79.259 48.386 78.2503 48.3122C74.4303 48.3122 73.3503 45.5421 73.3503 45.5421C73.3503 45.5421 37.7503 47.0321 30.9103 51.3521C24.0703 55.6721 22.2903 60.2921 22.8203 63.0721C23.3503 65.8521 25.4803 71.0122 30.1803 72.7422Z" fill="#FDF1CE"/>
    <path opacity="0.61" d="M135.91 90.9222C135.33 94.0894 134.37 97.1751 133.05 100.112C132.257 101.764 131.038 103.175 129.52 104.202C129.52 104.202 127.79 101.452 125.59 102.562C125.631 101.581 125.323 100.617 124.72 99.8422C123.8 99.0122 117.72 96.3622 101.62 103.602C91.9004 108.902 90.7005 115.402 90.7005 115.402C90.7005 115.402 89.7905 115.722 88.2005 116.092C83.9505 117.092 74.8905 118.422 65.6405 114.882C65.6405 114.882 62.2904 104.482 46.0304 100.302C29.1404 95.2322 31.5004 102.302 31.5004 102.302L31.2504 102.562C30.4904 102.341 29.6758 102.405 28.9596 102.742C28.2434 103.079 27.6748 103.666 27.3604 104.392C27.3604 104.392 21.5204 101.742 20.5504 90.6922C19.9104 79.6022 21.6304 76.5122 21.6304 76.5122C21.6304 76.5122 38.4004 67.6222 77.1204 68.2322C115.84 68.8422 134.3 75.4322 134.3 75.4322C134.3 75.4322 137.49 84.0122 135.91 90.9222Z" fill="#AEE0F0"/>
    <path opacity="0.61" d="M133.05 100.112C132.256 101.764 131.038 103.176 129.52 104.202C129.52 104.202 127.79 101.452 125.59 102.562C125.631 101.581 125.323 100.617 124.72 99.8423C123.8 99.0123 117.72 96.3623 101.62 103.602C91.9002 108.902 90.7002 115.402 90.7002 115.402C90.7002 115.402 89.7902 115.722 88.2002 116.092C88.2002 116.092 97.7902 88.6823 123.5 95.0923C128.36 96.3023 131.36 98.0623 133.05 100.112Z" fill="#5086C5"/>
    <path opacity="0.25" d="M21.2802 76.5322C21.2802 76.5322 38.0502 67.6422 76.7802 68.2522C115.51 68.8622 133.96 75.4522 133.96 75.4522C133.96 75.4522 137.16 84.0622 135.58 90.9722C134 97.8822 132.74 101.872 129.19 104.242C129.19 104.242 127.45 101.502 125.25 102.612C125.291 101.631 124.983 100.667 124.38 99.8922C123.46 99.0622 117.44 96.4122 101.28 103.642C91.5602 108.952 90.3602 115.452 90.3602 115.452C90.3602 115.452 78.0202 119.802 65.3002 114.942C65.3002 114.942 61.9503 104.542 45.7003 100.362C28.8003 95.2922 31.1702 102.362 31.1702 102.362L30.9102 102.622C30.1585 102.393 29.3491 102.444 28.632 102.766C27.915 103.088 27.3389 103.658 27.0103 104.372C27.0103 104.372 21.1802 101.722 20.2102 90.6722C19.5602 79.6222 21.2802 76.5322 21.2802 76.5322Z" fill="url(#paint0_radial)"/>
    <path d="M98.1102 33.4523C100.27 33.4023 101.83 37.8223 101.84 39.7723C101.85 41.7223 101.44 45.7723 98.1102 45.8323C94.7802 45.8923 94.2902 41.0823 94.3402 40.3523C94.3902 39.6223 94.4402 33.5423 98.1102 33.4523Z" fill="#8BC14D"/>
    <path d="M58.9504 33.7222C60.1504 33.7722 62.4104 34.8522 62.4904 40.5222C62.5704 46.1922 58.3604 45.8222 58.3604 45.8222C58.3604 45.8222 55.0404 45.4122 54.9404 39.5122C55.4104 33.7222 58.9504 33.7222 58.9504 33.7222Z" fill="#8BC14D"/>
    <path d="M129.5 6.03223C129.5 6.03223 116.43 9.67221 112.4 13.9222C112.4 13.9222 118.67 12.9222 120.95 13.9222C120.95 13.9222 115.76 16.4322 114.75 18.2322C114.75 18.2322 120.6 17.6322 121.88 18.2322C123.16 18.8322 119.46 22.8822 119.46 22.8822C119.46 22.8822 128.64 29.5822 129.21 31.0322C129.78 32.4822 133.76 10.0522 129.5 6.03223Z" fill="#FAE7BE"/>
    <path d="M26.8604 6.14233C26.8604 6.14233 39.9303 9.77235 43.9603 14.0323C43.9603 14.0323 37.6903 13.0323 35.4103 14.0323C35.4103 14.0323 40.6104 16.5323 41.6104 18.3323C41.6104 18.3323 35.7604 17.7323 34.4904 18.3323C33.2204 18.9323 36.9103 22.9823 36.9103 22.9823C36.9103 22.9823 27.7303 29.6823 27.1503 31.1323C26.5703 32.5823 22.6004 10.1523 26.8604 6.14233Z" fill="#FAE7BE"/>
    <path d="M43.4404 4.76221C43.4404 4.76221 51.5004 10.5922 50.9704 14.0122C50.4404 17.4322 54.5604 15.5122 54.9704 15.2622C55.3804 15.0122 57.8604 13.4522 57.8604 13.4522C57.8604 13.4522 48.0104 5.60221 43.4404 4.76221Z" fill="#FAA74A"/>
    <path d="M113.08 5.05225C113.08 5.05225 105.01 10.8722 105.54 14.2922C106.07 17.7122 101.95 15.7922 101.54 15.5522C101.13 15.3122 98.6504 13.7422 98.6504 13.7422C98.6504 13.7422 108.5 5.89225 113.08 5.05225Z" fill="#FAA74A"/>
    <path d="M71.5704 12.4421C71.5704 12.4421 64.4304 17.2522 62.8604 16.3122C62.8604 16.3122 65.6904 18.8722 68.3104 17.8022C69.9546 17.0652 71.3257 15.8304 72.2303 14.2722C72.2303 14.2722 74.9903 17.8021 78.2303 17.6721C81.4703 17.5421 83.8104 13.9221 83.8104 13.9221C83.8104 13.9221 87.0003 17.6921 89.0803 17.6721C90.5607 17.5898 92.0156 17.2514 93.3804 16.6721C93.3804 16.6721 87.1304 15.4122 84.5104 12.4622C84.5104 12.4622 81.5104 15.5122 78.3104 15.4622C75.1104 15.4122 71.5704 12.4421 71.5704 12.4421Z" fill="#FAA74A"/>
    <path d="M65.9902 117.242C65.4602 121.812 54.6201 126.822 40.5801 121.692C32.0401 118.572 28.4902 115.052 27.1802 112.522C27.9102 112.782 58.5902 123.252 59.8802 107.522C59.8802 107.362 59.8802 107.212 59.8802 107.072C63.7002 110.542 66.2902 114.672 65.9902 117.242Z" fill="#FAA74A"/>
    <path d="M90.5302 116.902C91.0602 121.472 101.9 126.482 115.94 121.352C124.48 118.232 128.03 114.712 129.34 112.182C128.61 112.442 97.9302 122.912 96.6402 107.182C96.6402 107.022 96.6402 106.872 96.6402 106.732C92.8202 110.202 90.2302 114.332 90.5302 116.902Z" fill="#FAA74A"/>
    <path opacity="0.61" d="M23.6104 100.112C24.4042 101.764 25.6224 103.176 27.1404 104.202C27.1404 104.202 28.8704 101.452 31.0704 102.562C31.0295 101.581 31.3377 100.617 31.9404 99.8423C32.8604 99.0123 38.8903 96.3623 55.0403 103.602C64.7603 108.902 65.9603 115.402 65.9603 115.402C65.9603 115.402 66.8703 115.722 68.4603 116.092C68.4603 116.092 58.8703 88.6823 33.1603 95.0923C28.3603 96.3023 25.3604 98.0623 23.6104 100.112Z" fill="#5086C5"/>
    <path d="M129.46 104.102C130.364 103.292 131.179 102.387 131.89 101.402C132.568 100.418 133.128 99.3571 133.56 98.2424C134.385 95.9429 134.948 93.5579 135.24 91.1324C135.603 88.7165 135.677 86.2659 135.46 83.8324C135.271 81.3862 134.873 78.9607 134.27 76.5824L134.33 76.7324C134.162 76.3624 134.041 75.9727 133.97 75.5724C133.89 75.2224 133.84 74.8624 133.79 74.5124C133.7 73.8124 133.65 73.1124 133.63 72.4224C133.557 71.0016 133.685 69.5775 134.01 68.1924C134.65 65.4524 135.69 62.9424 136.27 60.3424C137.367 55.124 137.05 49.7069 135.35 44.6524C134.971 43.384 134.51 42.1414 133.97 40.9324C133.71 40.3224 133.37 39.7524 133.07 39.1524C132.77 38.557 132.436 37.9794 132.07 37.4224C130.72 35.1192 129.164 32.9436 127.42 30.9224C123.853 26.8754 119.752 23.3328 115.23 20.3924C115.217 20.3803 115.207 20.3656 115.199 20.3492C115.192 20.3329 115.189 20.3153 115.189 20.2974C115.189 20.2796 115.192 20.262 115.199 20.2456C115.207 20.2293 115.217 20.2146 115.23 20.2024C115.249 20.1771 115.276 20.1586 115.307 20.1496C115.337 20.1407 115.37 20.1416 115.4 20.1524C120.388 22.5447 124.904 25.8171 128.73 29.8125C129.21 30.3125 129.66 30.8124 130.12 31.3624L130.81 32.1524L131.45 32.9824C131.87 33.5324 132.32 34.0724 132.72 34.6524C133.12 35.2324 133.49 35.8124 133.86 36.4124C134.228 37.0062 134.562 37.6205 134.86 38.2524C135.17 38.8824 135.54 39.4824 135.8 40.1324C136.383 41.4244 136.858 42.7623 137.22 44.1324C138.859 49.5241 139.021 55.2567 137.69 60.7324C137.05 63.4424 135.97 65.9924 135.35 68.5524C135.035 69.8171 134.904 71.1204 134.96 72.4224C134.96 73.0924 135.02 73.7524 135.09 74.4224C135.13 74.7558 135.18 75.0891 135.24 75.4224C135.288 75.6955 135.361 75.9634 135.46 76.2224V76.3424C136.042 78.799 136.436 81.2962 136.64 83.8125C136.875 86.3409 136.814 88.888 136.46 91.4025C136.121 93.915 135.497 96.3808 134.6 98.7524C134.124 99.9635 133.448 101.086 132.6 102.072C131.752 103.044 130.709 103.828 129.54 104.372C129.526 104.379 129.511 104.383 129.496 104.383C129.481 104.384 129.466 104.381 129.452 104.375C129.438 104.37 129.425 104.361 129.414 104.35C129.404 104.34 129.395 104.327 129.39 104.312C129.362 104.303 129.339 104.283 129.326 104.257C129.313 104.231 129.311 104.2 129.32 104.172C129.329 104.145 129.349 104.122 129.375 104.108C129.402 104.095 129.432 104.093 129.46 104.102Z" fill="#231F20"/>
    <path d="M98.5998 13.3024C100.6 10.7924 103.36 9.16237 106.04 7.52237C108.76 5.9312 111.61 4.57303 114.56 3.46237C116.02 2.86237 117.56 2.40237 119.04 1.92237C119.8 1.70237 120.57 1.53237 121.33 1.33237L122.48 1.04236L123.65 0.842379C126.765 0.252426 129.93 -0.0289621 133.1 0.00235243H133.17C133.388 0.0481932 133.587 0.159891 133.74 0.32236L133.88 0.502352L134.07 0.782382C134.17 0.962382 134.28 1.13237 134.36 1.30237C134.55 1.65237 134.71 2.00236 134.87 2.35236C135.17 3.04236 135.45 3.75237 135.69 4.46237C136.189 5.88666 136.59 7.34338 136.89 8.82236C137.507 11.78 137.736 14.8055 137.57 17.8224C137.378 20.8231 136.817 23.7887 135.9 26.6524C135.426 28.0678 134.869 29.4535 134.23 30.8024C133.567 32.1323 132.836 33.4274 132.04 34.6824C132.014 34.7063 131.98 34.7195 131.945 34.7195C131.91 34.7195 131.876 34.7063 131.85 34.6824C131.832 34.6595 131.822 34.6314 131.822 34.6024C131.822 34.5734 131.832 34.5452 131.85 34.5224C132.39 33.1424 132.97 31.8024 133.39 30.4124C133.867 29.0459 134.268 27.6537 134.59 26.2424C134.87 24.8224 135.17 23.4224 135.35 21.9924C135.53 20.5724 135.63 19.1435 135.65 17.7124C135.717 14.854 135.523 11.9955 135.07 9.17237C134.843 7.75676 134.526 6.35719 134.12 4.98236C133.92 4.30236 133.69 3.62236 133.44 2.98236C133.31 2.65236 133.17 2.33236 133.03 1.98236C132.96 1.82236 132.88 1.68238 132.81 1.53238L132.7 1.35236C132.61 1.26236 132.88 1.54235 133.07 1.50235H133.14C132.37 1.50235 131.6 1.50235 130.84 1.50235H129.69C129.3 1.50235 128.92 1.56238 128.54 1.59238L126.25 1.79236L123.97 2.16236L122.83 2.34238L121.71 2.61237C120.96 2.79237 120.21 2.95236 119.47 3.16236C118 3.61236 116.47 4.03236 115.08 4.60236C112.198 5.71969 109.407 7.05696 106.73 8.60236C104.02 10.1024 101.59 11.9724 98.8298 13.4824C98.8095 13.5013 98.7827 13.5119 98.7549 13.5119C98.727 13.5119 98.7002 13.5013 98.6799 13.4824C98.6609 13.4787 98.643 13.4705 98.6279 13.4585C98.6127 13.4465 98.6007 13.431 98.5928 13.4133C98.585 13.3956 98.5815 13.3763 98.5828 13.357C98.584 13.3377 98.5898 13.3189 98.5998 13.3024Z" fill="#231F20"/>
    <path d="M82.7298 44.3225C83.4398 43.7025 84.3099 43.5425 84.8199 43.0725C84.8724 43.025 84.9224 42.9749 84.9698 42.9225C85.0052 42.8632 85.0322 42.7992 85.0499 42.7325L85.2499 42.1425L85.6598 40.9025C86.1598 39.2325 86.7098 37.5725 87.3398 35.9025C87.8851 34.2133 88.6233 32.5925 89.5398 31.0725C89.7864 30.6954 90.0569 30.3347 90.3498 29.9925C90.6194 29.6268 90.9278 29.2915 91.2698 28.9925C91.9201 28.3442 92.7205 27.8667 93.5998 27.6025C93.6128 27.5959 93.6271 27.5926 93.6416 27.5928C93.6561 27.593 93.6703 27.5967 93.6831 27.6036C93.6959 27.6104 93.7068 27.6203 93.715 27.6323C93.7231 27.6443 93.7282 27.6581 93.7298 27.6725C93.7386 27.6877 93.7433 27.7049 93.7433 27.7225C93.7433 27.74 93.7386 27.7573 93.7298 27.7725C92.5513 28.9583 91.5811 30.3342 90.8599 31.8425C90.0899 33.3225 89.0999 34.7425 88.3899 36.3125C87.6799 37.8825 87.1199 39.5125 86.5599 41.1525L86.1899 42.3925C86.1199 42.6125 86.0698 42.8025 85.9798 43.0425C85.9315 43.1824 85.8678 43.3166 85.7898 43.4425C85.6898 43.5525 85.5899 43.6725 85.4899 43.7625C85.1019 44.0622 84.6608 44.2861 84.1899 44.4225C83.735 44.5476 83.2547 44.5476 82.7999 44.4225C82.7876 44.4191 82.7763 44.4133 82.7665 44.4053C82.7567 44.3972 82.7487 44.3872 82.743 44.3759C82.7374 44.3646 82.7342 44.3522 82.7336 44.3395C82.7331 44.3269 82.7352 44.3142 82.7399 44.3025C82.7399 44.3025 82.7198 44.3925 82.7298 44.3225Z" fill="#231F20"/>
    <path d="M113.2 47.3025C112.993 46.3805 112.949 45.4296 113.07 44.4925C113.07 43.5725 113.17 42.6424 113.16 41.7224C113.137 39.8807 112.936 38.0455 112.56 36.2425C112.092 34.518 111.349 32.8804 110.36 31.3925C109.403 29.838 108.254 28.4101 106.94 27.1425C106.923 27.1212 106.914 27.0947 106.914 27.0674C106.914 27.0402 106.923 27.0137 106.94 26.9925C106.958 26.9828 106.979 26.9778 107 26.9778C107.021 26.9778 107.041 26.9828 107.06 26.9925C108.888 27.7351 110.469 28.9796 111.62 30.5825C112.713 32.2315 113.398 34.1166 113.62 36.0825C113.945 37.9611 114.093 39.8662 114.06 41.7725C114.06 42.7225 114.06 43.6625 114.01 44.6125C114.026 45.5786 113.803 46.5337 113.36 47.3925C113.352 47.4012 113.341 47.4082 113.33 47.413C113.319 47.4177 113.307 47.4202 113.295 47.4202C113.283 47.4202 113.271 47.4177 113.26 47.413C113.248 47.4082 113.238 47.4012 113.23 47.3925C113.218 47.3811 113.209 47.3669 113.204 47.3512C113.198 47.3355 113.197 47.3188 113.2 47.3025Z" fill="#231F20"/>
    <path d="M89.83 28.3223C90.7242 27.6729 91.7472 27.2228 92.83 27.0023C93.89 26.7223 94.9701 26.4923 96.0601 26.3023C98.2311 25.8393 100.441 25.5815 102.66 25.5323C104.926 25.386 107.197 25.7269 109.32 26.5323C111.449 27.3931 113.235 28.9328 114.4 30.9123C114.408 30.9323 114.41 30.9545 114.404 30.9755C114.399 30.9964 114.387 31.0151 114.37 31.0286C114.353 31.0422 114.332 31.0498 114.311 31.0505C114.289 31.0512 114.268 31.0448 114.25 31.0323C112.647 29.6626 110.797 28.6105 108.8 27.9323C106.832 27.194 104.767 26.7427 102.67 26.5923C100.517 26.583 98.3678 26.7738 96.2501 27.1623C95.1901 27.3623 94.14 27.6223 93.09 27.8923C92.0458 28.2329 90.958 28.4215 89.86 28.4523C89.8353 28.4498 89.8124 28.4382 89.7957 28.4197C89.7791 28.4012 89.7699 28.3772 89.77 28.3523C89.7854 28.3349 89.8069 28.3242 89.83 28.3223Z" fill="#231F20"/>
    <path d="M82.7499 45.3925C85.7463 45.1652 88.7562 45.1819 91.7499 45.4425C94.7499 45.6025 97.7499 45.8525 100.75 46.1225C103.75 46.3925 106.75 46.6625 109.75 47.0525C112.75 47.4425 115.75 47.8825 118.69 48.5225C120.182 48.8214 121.657 49.1986 123.11 49.6525L125.28 50.4525C125.98 50.7725 126.66 51.1525 127.35 51.5025C130.13 53.0485 132.321 55.4711 133.58 58.3925C134.127 59.8865 134.349 61.4804 134.23 63.0671C134.111 64.6539 133.654 66.1968 132.89 67.5925C132.5 68.2732 132.033 68.9072 131.5 69.4825C131.24 69.7625 130.98 70.0625 130.7 70.3325L129.78 71.0425C129.155 71.4948 128.485 71.8803 127.78 72.1925C127.09 72.5125 126.33 72.6925 125.62 72.9425C125.608 72.9471 125.596 72.9493 125.583 72.9487C125.57 72.9482 125.558 72.945 125.546 72.9393C125.535 72.9337 125.525 72.9256 125.517 72.9158C125.509 72.9061 125.503 72.8947 125.5 72.8825C125.495 72.8713 125.492 72.8593 125.492 72.8472C125.492 72.835 125.495 72.823 125.499 72.8118C125.504 72.8006 125.511 72.7904 125.52 72.782C125.528 72.7735 125.539 72.7668 125.55 72.7625C126.22 72.4325 126.92 72.1725 127.55 71.7625C128.176 71.3862 128.762 70.9473 129.3 70.4525L130.1 69.7225C130.34 69.4525 130.55 69.1625 130.78 68.8825C131.218 68.3198 131.597 67.7132 131.91 67.0725C132.511 65.8027 132.843 64.4226 132.886 63.0185C132.929 61.6145 132.682 60.2166 132.16 58.9125C131.859 58.2789 131.525 57.6615 131.16 57.0625L130.54 56.2125L130.23 55.7825C130.12 55.6525 129.98 55.5325 129.86 55.4025C128.893 54.3566 127.789 53.4452 126.58 52.6925C124.037 51.215 121.271 50.1612 118.39 49.5725C115.49 48.9125 112.53 48.4225 109.56 48.0225C106.59 47.6225 103.62 47.2925 100.63 47.0225C97.6399 46.7525 94.6299 46.5825 91.6299 46.3625C88.6175 46.2609 85.613 45.9938 82.6299 45.5625C82.6089 45.5559 82.5905 45.5425 82.5779 45.5244C82.5652 45.5063 82.5589 45.4845 82.5599 45.4625C82.561 45.4409 82.5683 45.4201 82.5811 45.4027C82.5939 45.3853 82.6115 45.3721 82.6318 45.3646C82.652 45.3571 82.674 45.3558 82.695 45.3608C82.716 45.3657 82.7351 45.3767 82.7499 45.3925Z" fill="#231F20"/>
    <path d="M137.71 55.7324C139.182 55.7292 140.635 56.0717 141.95 56.7324C143.292 57.3122 144.566 58.0365 145.75 58.8924C146.947 59.7314 148.047 60.7007 149.03 61.7825C150.03 62.8325 151.03 63.9025 151.89 65.0325C152.835 66.1411 153.707 67.3103 154.5 68.5325C155.344 69.7845 155.951 71.181 156.29 72.6525C156.356 73.0427 156.396 73.4369 156.41 73.8325C156.4 74.2326 156.354 74.631 156.27 75.0225C156.134 75.7953 155.838 76.5311 155.4 77.1825C154.958 77.8554 154.314 78.3703 153.56 78.6525C152.824 78.9036 152.022 78.8823 151.3 78.5925C151.288 78.588 151.276 78.5811 151.266 78.5721C151.256 78.5631 151.248 78.5522 151.243 78.5401C151.237 78.528 151.234 78.5149 151.234 78.5015C151.233 78.4882 151.235 78.4749 151.24 78.4625C151.247 78.4375 151.264 78.4163 151.286 78.4032C151.308 78.3902 151.335 78.3863 151.36 78.3924C152.003 78.4721 152.654 78.3418 153.216 78.021C153.778 77.7002 154.222 77.2061 154.48 76.6124C154.741 76.0357 154.91 75.4215 154.98 74.7924C155.005 74.4863 155.005 74.1786 154.98 73.8725C154.944 73.5616 154.884 73.2539 154.8 72.9524C154.649 72.3141 154.438 71.6913 154.17 71.0925C153.89 70.4725 153.61 69.8525 153.27 69.2425C152.617 68.0007 151.864 66.8135 151.02 65.6924C150.16 64.5824 149.23 63.5025 148.28 62.4625C147.366 61.4039 146.336 60.4512 145.21 59.6225C144.059 58.8364 142.833 58.1664 141.55 57.6225C140.27 57.0225 138.93 56.6225 137.66 55.9325C137.646 55.9176 137.638 55.8979 137.638 55.8774C137.638 55.857 137.646 55.8373 137.66 55.8224C137.661 55.8047 137.666 55.7874 137.675 55.7718C137.684 55.7562 137.696 55.7428 137.71 55.7324Z" fill="#231F20"/>
    <path d="M149.45 72.3923C149.834 72.5454 150.183 72.7764 150.474 73.0706C150.765 73.3649 150.991 73.7162 151.14 74.1023C151.522 74.8444 151.721 75.6674 151.72 76.5023C151.75 77.3575 151.546 78.2046 151.13 78.9523C150.705 79.7404 149.986 80.3295 149.13 80.5923C148.297 80.848 147.412 80.8859 146.56 80.7023C146.108 80.6246 145.672 80.4726 145.27 80.2523C144.885 79.9752 144.547 79.6375 144.27 79.2523C143.785 78.5649 143.484 77.7651 143.394 76.9286C143.305 76.092 143.431 75.2466 143.76 74.4723C143.78 74.4561 143.804 74.4472 143.83 74.4472C143.855 74.4472 143.88 74.4561 143.9 74.4723C143.93 74.4938 143.952 74.5259 143.96 74.5623C144.034 75.9661 144.564 77.3072 145.47 78.3823C145.811 78.8679 146.309 79.221 146.88 79.3823C147.495 79.6315 148.167 79.7008 148.82 79.5823C149.433 79.3666 149.96 78.9574 150.321 78.4163C150.682 77.8752 150.857 77.2316 150.82 76.5823C150.799 75.8851 150.621 75.2016 150.3 74.5823C149.914 73.9506 149.596 73.2803 149.35 72.5823C149.334 72.5718 149.321 72.5572 149.312 72.54C149.303 72.5229 149.299 72.5037 149.3 72.4845C149.301 72.4652 149.307 72.4466 149.318 72.4304C149.328 72.4143 149.343 72.4011 149.36 72.3923H149.45Z" fill="#231F20"/>
    <path d="M134.36 70.6623C134.93 70.3423 135.36 70.5923 135.79 70.7123C136.221 70.8776 136.641 71.0679 137.05 71.2823C137.89 71.6508 138.708 72.0682 139.5 72.5323C140.331 72.9291 141.11 73.4261 141.82 74.0123C142.512 74.6412 143.076 75.3986 143.48 76.2423C143.487 76.2554 143.491 76.2697 143.492 76.2844C143.493 76.2991 143.491 76.3139 143.487 76.3279C143.482 76.3419 143.475 76.3548 143.465 76.3658C143.455 76.3769 143.443 76.3859 143.43 76.3923H143.34C142.468 76.1134 141.642 75.7056 140.89 75.1823C140.15 74.7223 139.62 73.9723 138.89 73.4523C138.181 72.9377 137.428 72.4859 136.64 72.1023C136.24 71.9223 135.83 71.7623 135.43 71.6023C135.03 71.4423 134.61 71.3623 134.31 70.8223C134.301 70.8088 134.296 70.7936 134.294 70.7778C134.292 70.762 134.293 70.7459 134.298 70.7307C134.303 70.7155 134.311 70.7015 134.321 70.6897C134.332 70.6778 134.345 70.6685 134.36 70.6623Z" fill="#231F20"/>
    <path d="M122.72 53.5423C126.22 55.0823 125.72 56.9123 125.3 57.5423C124.88 58.1723 123.23 58.7623 121.07 57.5423C118.91 56.3223 117.98 54.7823 118.6 53.5423C119.22 52.3023 122.72 53.5423 122.72 53.5423Z" fill="#F7C080"/>
    <path d="M120.3 61.1525C121.78 61.7725 122.05 62.9925 121.79 63.5525C121.53 64.1125 120.14 64.4224 118.9 64.0124C117.66 63.6024 116.79 62.5325 117.1 61.5625C117.41 60.5925 118.7 60.4925 120.3 61.1525Z" fill="#F7C080"/>
    <path d="M104.5 19.3025C104.489 19.0556 104.544 18.8103 104.66 18.5922C104.776 18.3741 104.949 18.1912 105.16 18.0625C105.596 17.8037 106.108 17.7014 106.61 17.7725C107.485 17.9172 108.316 18.2592 109.04 18.7725C109.774 19.2395 110.426 19.824 110.97 20.5025C111.267 20.8716 111.494 21.2918 111.64 21.7425C111.815 22.241 111.815 22.784 111.64 23.2825C111.544 23.5514 111.392 23.7967 111.194 24.002C110.995 24.2073 110.755 24.3677 110.49 24.4725C110.015 24.6524 109.504 24.7142 109 24.6525C108.091 24.552 107.217 24.2404 106.45 23.7425C105.713 23.2407 105.078 22.6026 104.58 21.8625C104.317 21.4669 104.169 21.0069 104.15 20.5325C104.147 20.0776 104.279 19.6322 104.53 19.2525L104.5 19.3025ZM104.67 19.3825C104.558 19.7407 104.558 20.1243 104.67 20.4825C104.806 20.7973 105.011 21.0775 105.27 21.3025C105.842 21.7689 106.467 22.1682 107.13 22.4925C107.449 22.6755 107.784 22.8294 108.13 22.9525C108.452 23.0975 108.787 23.2113 109.13 23.2925C109.421 23.3848 109.73 23.4054 110.03 23.3525C110.151 23.3315 110.265 23.2801 110.362 23.2032C110.458 23.1263 110.533 23.0262 110.58 22.9125C110.673 22.6074 110.684 22.2833 110.612 21.9726C110.54 21.662 110.387 21.3757 110.17 21.1425C109.715 20.5342 109.165 20.0039 108.54 19.5725C107.939 19.1538 107.258 18.8643 106.54 18.7225C105.81 18.6125 105.43 18.8625 104.69 19.3725L104.67 19.3825Z" fill="#231F20"/>
    <path d="M95.7399 12.3923C96.1699 12.0823 96.3999 12.2823 96.6799 12.3423L97.4699 12.6923C98.0099 12.8823 98.5499 13.0923 99.0799 13.3023C99.6497 13.4359 100.198 13.648 100.71 13.9323C101.245 14.2772 101.663 14.7757 101.91 15.3623C101.915 15.3761 101.917 15.3906 101.916 15.4052C101.915 15.4197 101.911 15.4339 101.904 15.4469C101.898 15.4599 101.889 15.4715 101.878 15.481C101.867 15.4905 101.854 15.4978 101.84 15.5023H101.78C101.179 15.535 100.578 15.45 100.01 15.2523C99.4899 15.0823 99.1199 14.5623 98.6299 14.2523C98.1399 13.9423 97.6299 13.7223 97.1199 13.4923L96.3199 13.1923C96.0799 13.0423 95.7799 13.0323 95.6799 12.5123C95.6813 12.4893 95.6873 12.4668 95.6976 12.4461C95.7079 12.4255 95.7223 12.4072 95.7399 12.3923Z" fill="#231F20"/>
    <path d="M85.81 10.0623C86.6145 9.81137 87.4616 9.72632 88.3 9.81226C89.12 9.81226 89.94 9.95224 90.76 10.0722C91.58 10.1922 92.4 10.3422 93.23 10.5422C94.1342 10.7133 94.9785 11.1165 95.68 11.7123C95.752 11.8064 95.8093 11.9109 95.85 12.0223C95.8583 12.0887 95.8583 12.1558 95.85 12.2222C95.8641 12.3318 95.8641 12.4427 95.85 12.5523C95.8701 12.7451 95.8701 12.9394 95.85 13.1322C95.809 13.4957 95.732 13.8541 95.62 14.2022C95.387 14.9145 95.05 15.5885 94.62 16.2022C94.1744 16.8243 93.606 17.3484 92.95 17.7423C92.2831 18.1219 91.5437 18.357 90.78 18.4323C90.4077 18.4723 90.0322 18.4723 89.66 18.4323C89.2837 18.4296 88.9098 18.3723 88.55 18.2622C87.8373 18.0579 87.1621 17.7405 86.55 17.3222C85.3842 16.4913 84.4873 15.3371 83.97 14.0022C83.9652 13.9898 83.963 13.9765 83.9634 13.9632C83.9639 13.9498 83.967 13.9367 83.9726 13.9246C83.9782 13.9125 83.9861 13.9016 83.996 13.8926C84.0058 13.8836 84.0174 13.8767 84.03 13.8723C84.0457 13.8601 84.0651 13.8535 84.085 13.8535C84.1049 13.8535 84.1243 13.8601 84.14 13.8723C84.9824 14.8436 86.0001 15.6476 87.14 16.2423C88.2041 16.7838 89.4031 17.0027 90.59 16.8723C91.1721 16.8607 91.7454 16.7286 92.2739 16.4841C92.8023 16.2397 93.2743 15.8884 93.66 15.4522C94.0496 14.9795 94.345 14.4363 94.53 13.8522C94.6314 13.5598 94.7051 13.2585 94.75 12.9522C94.7644 12.8093 94.7644 12.6652 94.75 12.5223C94.7609 12.4627 94.7609 12.4018 94.75 12.3423C94.754 12.3604 94.7624 12.3773 94.7747 12.3913C94.7869 12.4053 94.8025 12.4159 94.82 12.4222C94.2559 11.9714 93.5955 11.6566 92.89 11.5022C92.1184 11.2966 91.333 11.1462 90.54 11.0523C89.74 10.9523 88.93 10.8922 88.13 10.7922C87.3017 10.7571 86.4844 10.5883 85.71 10.2922C85.6986 10.2879 85.6883 10.2813 85.6796 10.2728C85.6709 10.2643 85.664 10.2541 85.6594 10.2429C85.6547 10.2317 85.6524 10.2197 85.6525 10.2075C85.6526 10.1954 85.6551 10.1834 85.66 10.1722C85.6609 10.1545 85.6657 10.1371 85.6742 10.1214C85.6826 10.1058 85.6945 10.0922 85.7089 10.0816C85.7232 10.0711 85.7398 10.0639 85.7573 10.0606C85.7747 10.0572 85.7928 10.0578 85.81 10.0623Z" fill="#231F20"/>
    <path d="M129.23 6.09247C127.766 6.74785 126.267 7.32205 124.74 7.81248C123.24 8.36248 121.74 8.92247 120.28 9.55247C118.822 10.1873 117.4 10.9017 116.02 11.6924C114.643 12.4399 113.397 13.4058 112.33 14.5525L111.95 13.9525C112.77 13.7125 113.58 13.5225 114.41 13.3625C115.24 13.2037 116.078 13.0902 116.92 13.0225C118.634 12.8319 120.37 13.0092 122.01 13.5425C122.113 13.5827 122.196 13.662 122.241 13.7631C122.286 13.8642 122.289 13.979 122.25 14.0825C122.23 14.1401 122.197 14.1925 122.153 14.2358C122.11 14.279 122.058 14.3121 122 14.3325C120.696 14.7891 119.423 15.3302 118.19 15.9525C117.571 16.2506 116.97 16.5845 116.39 16.9525C115.793 17.2965 115.253 17.7318 114.79 18.2425C114.776 18.2538 114.758 18.26 114.74 18.26C114.722 18.26 114.704 18.2538 114.69 18.2425C114.679 18.2299 114.674 18.2139 114.674 18.1975C114.674 18.181 114.679 18.1651 114.69 18.1525C115.095 17.5621 115.584 17.0333 116.14 16.5825C116.69 16.1344 117.271 15.7267 117.88 15.3625C119.093 14.6185 120.364 13.973 121.68 13.4325V14.4325C120.925 14.2206 120.151 14.08 119.37 14.0125C118.58 13.9625 117.77 13.9625 116.96 14.0125C115.332 14.0879 113.714 14.319 112.13 14.7025C112.083 14.7144 112.033 14.7169 111.985 14.7098C111.937 14.7027 111.891 14.6861 111.849 14.661C111.807 14.636 111.771 14.6028 111.742 14.5636C111.713 14.5244 111.692 14.4798 111.68 14.4325C111.665 14.3735 111.665 14.3119 111.679 14.2527C111.692 14.1936 111.72 14.1386 111.76 14.0925C112.908 12.9097 114.234 11.9143 115.69 11.1425C117.097 10.3499 118.549 9.64199 120.04 9.02247C121.52 8.39247 123.04 7.77246 124.54 7.26246C126.041 6.67015 127.604 6.25078 129.2 6.01246C129.214 6.01226 129.228 6.0172 129.239 6.02637C129.25 6.03554 129.258 6.04835 129.26 6.06248C129.254 6.0758 129.243 6.08646 129.23 6.09247Z" fill="#231F20"/>
    <path d="M121.96 106.782C122.796 106.22 123.49 105.471 123.988 104.595C124.486 103.718 124.774 102.739 124.83 101.732C124.84 101.508 124.823 101.283 124.78 101.062C124.765 100.968 124.735 100.877 124.69 100.792C124.626 100.666 124.569 100.536 124.52 100.402C124.362 100.002 124.053 99.6785 123.66 99.5023C122.742 99.1387 121.755 98.9849 120.77 99.0523C118.694 99.1281 116.627 99.3722 114.59 99.7823C112.531 100.153 110.491 100.627 108.48 101.202C104.48 102.367 100.76 104.337 97.5499 106.992C95.9631 108.309 94.5636 109.837 93.39 111.532C92.8067 112.371 92.3076 113.265 91.8999 114.202C91.4938 115.091 91.2759 116.055 91.2599 117.032C91.3643 117.96 91.7762 118.826 92.4299 119.492C93.1034 120.209 93.9079 120.789 94.7999 121.202C96.6521 122.037 98.6417 122.525 100.67 122.642C102.736 122.817 104.814 122.817 106.88 122.642C107.88 122.582 108.95 122.442 109.99 122.332C111.03 122.222 111.99 122.032 112.99 121.802C117.086 121.022 120.965 119.364 124.36 116.942C126.052 115.743 127.566 114.313 128.86 112.692C129.183 112.298 129.47 111.876 129.72 111.432C129.946 111.005 130.049 110.524 130.02 110.042C130.025 109.807 129.973 109.574 129.868 109.364C129.764 109.153 129.61 108.971 129.42 108.832C128.981 108.592 128.474 108.504 127.98 108.582C127.967 108.585 127.953 108.585 127.939 108.582C127.926 108.579 127.914 108.573 127.903 108.564C127.892 108.555 127.884 108.545 127.878 108.532C127.872 108.52 127.87 108.506 127.87 108.492C127.867 108.467 127.874 108.442 127.888 108.422C127.903 108.401 127.925 108.387 127.95 108.382C128.499 108.246 129.078 108.303 129.59 108.542C129.845 108.694 130.06 108.905 130.217 109.157C130.374 109.41 130.467 109.696 130.49 109.992C130.573 110.569 130.493 111.158 130.26 111.692C130.032 112.192 129.761 112.67 129.45 113.122C128.193 114.877 126.691 116.443 124.99 117.772C121.567 120.44 117.595 122.316 113.36 123.262C112.36 123.492 111.23 123.642 110.17 123.792C109.11 123.942 108.05 124.042 106.98 124.092C104.836 124.261 102.681 124.244 100.54 124.042C98.3475 123.862 96.2078 123.275 94.2299 122.312C93.2131 121.808 92.3032 121.112 91.5499 120.262C90.7397 119.387 90.2528 118.262 90.1699 117.072C90.1874 115.935 90.4429 114.815 90.9199 113.782C91.3614 112.785 91.9007 111.833 92.5299 110.942C93.7707 109.179 95.244 107.591 96.9099 106.222C100.242 103.514 104.09 101.51 108.22 100.332C110.261 99.7387 112.33 99.2481 114.42 98.8623C116.513 98.4235 118.642 98.1758 120.78 98.1223C121.907 98.072 123.031 98.2736 124.07 98.7123C124.638 98.9934 125.083 99.474 125.32 100.062C125.36 100.172 125.406 100.279 125.46 100.382C125.536 100.538 125.593 100.703 125.63 100.872C125.684 101.169 125.704 101.471 125.69 101.772C125.62 102.885 125.242 103.956 124.597 104.866C123.952 105.776 123.067 106.488 122.04 106.922C122.025 106.936 122.005 106.944 121.985 106.944C121.964 106.944 121.945 106.936 121.93 106.922C121.918 106.913 121.909 106.901 121.904 106.887C121.899 106.873 121.898 106.858 121.902 106.843C121.905 106.828 121.912 106.815 121.922 106.804C121.932 106.794 121.945 106.786 121.96 106.782Z" fill="#231F20"/>
    <path d="M125.36 110.452C125.57 109.822 126.02 109.632 126.36 109.282C126.752 108.974 127.122 108.64 127.47 108.282C128.113 107.596 128.543 106.738 128.71 105.812C128.73 105.599 128.73 105.385 128.71 105.172C128.662 104.962 128.602 104.755 128.53 104.552C128.379 104.17 128.188 103.804 127.96 103.462C127.729 103.161 127.412 102.937 127.05 102.822C126.584 102.693 126.103 102.629 125.62 102.632C125.591 102.632 125.563 102.621 125.542 102.6C125.522 102.579 125.51 102.551 125.51 102.522C125.5 102.497 125.5 102.468 125.51 102.442C125.956 102.028 126.532 101.781 127.14 101.742C127.489 101.721 127.838 101.774 128.165 101.896C128.492 102.018 128.79 102.208 129.04 102.452C129.473 102.93 129.755 103.525 129.85 104.162C129.935 104.769 129.908 105.386 129.77 105.982C129.509 107.093 128.936 108.106 128.12 108.902C127.756 109.303 127.362 109.674 126.94 110.012C126.49 110.292 126.09 110.692 125.4 110.572C125.373 110.567 125.348 110.552 125.331 110.53C125.315 110.508 125.307 110.48 125.31 110.452H125.36Z" fill="#231F20"/>
    <path d="M26.9201 104.392C25.7498 103.849 24.7046 103.069 23.8501 102.102C22.9978 101.119 22.3213 99.9955 21.8501 98.7823C20.0796 94.0133 19.3963 88.9091 19.8501 83.8423C20.0544 81.3228 20.4488 78.8223 21.0301 76.3623L21.08 76.2423C21.1774 75.9828 21.2511 75.715 21.3001 75.4423C21.3601 75.1323 21.4101 74.8023 21.4501 74.4423C21.5201 73.7923 21.56 73.1323 21.58 72.4423C21.6414 71.1368 21.51 69.8294 21.1901 68.5623C20.5701 66.0123 19.4901 63.4523 18.8501 60.7423C18.1628 58.0255 17.8864 55.221 18.0301 52.4223C18.2536 48.227 19.2256 44.1054 20.9001 40.2523C21.1701 39.6023 21.53 39.0023 21.83 38.3723C22.1319 37.7456 22.4657 37.1348 22.83 36.5423C23.19 35.9423 23.5801 35.3623 23.9601 34.7823C24.3401 34.2023 24.8001 33.6723 25.2201 33.1223L25.8501 32.2923L26.5301 31.5123C27.0001 30.9923 27.4401 30.4523 27.9201 29.9523C31.7308 25.9635 36.2036 22.6647 41.1401 20.2023C41.1736 20.1873 41.2115 20.1851 41.2465 20.1962C41.2815 20.2072 41.3112 20.2307 41.33 20.2623C41.3448 20.2917 41.3478 20.3256 41.3385 20.3571C41.3293 20.3887 41.3083 20.4155 41.2801 20.4323C36.7934 23.4314 32.7246 27.0127 29.1801 31.0823C27.4373 33.0926 25.8871 35.2621 24.5501 37.5623C24.1853 38.1202 23.8514 38.6977 23.5501 39.2923C23.2601 39.8823 22.9201 40.4523 22.6701 41.0623C22.2101 42.2923 21.6001 43.4723 21.2601 44.7423C19.506 49.7694 19.1499 55.1786 20.2301 60.3923C20.8101 62.9923 21.8501 65.4923 22.4901 68.2423C22.8245 69.6259 22.9559 71.0508 22.8801 72.4723C22.8801 73.1623 22.8001 73.8623 22.7101 74.5623C22.7101 74.9123 22.6101 75.2623 22.5401 75.6223C22.4629 76.0177 22.3422 76.4034 22.1801 76.7723V76.6323C21.587 79.0092 21.189 81.4306 20.9901 83.8723C20.7727 86.3057 20.8465 88.7564 21.2101 91.1723C21.4993 93.5992 22.0664 95.9848 22.9001 98.2823C23.3306 99.3957 23.8876 100.456 24.5601 101.442C25.2688 102.432 26.0837 103.34 26.9901 104.152C27.001 104.163 27.0097 104.175 27.0156 104.189C27.0215 104.202 27.0246 104.217 27.0246 104.232C27.0246 104.247 27.0215 104.262 27.0156 104.276C27.0097 104.29 27.001 104.302 26.9901 104.312C26.9847 104.33 26.9757 104.346 26.9637 104.36C26.9516 104.374 26.9367 104.385 26.9201 104.392Z" fill="#231F20"/>
    <path d="M57.7601 13.5424C54.9901 12.0324 52.56 10.1524 49.85 8.65244C47.1714 7.11085 44.3801 5.77372 41.5001 4.65244C40.0701 4.08244 38.5901 3.65243 37.1101 3.20243C36.3701 2.99243 35.6201 2.84244 34.8701 2.65244L33.7501 2.39243L32.6101 2.20243L30.34 1.83243L28.04 1.64243C27.66 1.64243 27.28 1.56242 26.9 1.54242H23.52C23.7 1.54242 23.9601 1.30243 23.8701 1.39243L23.7501 1.57242L23.52 2.01242C23.37 2.32242 23.23 2.65242 23.1 3.01242C22.84 3.66242 22.61 4.34242 22.4 5.01242C21.9821 6.38415 21.6481 7.78006 21.4 9.19242C20.9123 12.0219 20.698 14.8918 20.7601 17.7624C20.8196 20.6442 21.1918 23.511 21.8701 26.3124C22.2027 27.7252 22.6167 29.1175 23.1101 30.4824C23.5685 31.872 24.1061 33.2342 24.72 34.5624C24.7337 34.5957 24.7341 34.6329 24.7211 34.6664C24.708 34.7 24.6826 34.7272 24.65 34.7424C24.6206 34.7571 24.5868 34.7602 24.5552 34.7509C24.5237 34.7416 24.4968 34.7207 24.4801 34.6924C23.6477 33.4606 22.8929 32.1781 22.22 30.8524C21.5698 29.5035 20.9989 28.1178 20.5101 26.7024C19.5651 23.834 18.9904 20.8565 18.8001 17.8424C18.6285 14.8231 18.8741 11.7946 19.53 8.84244C19.8519 7.36685 20.2694 5.91377 20.78 4.49243C21.03 3.78243 21.3101 3.07242 21.6301 2.38242C21.7801 2.03242 21.9501 1.69242 22.1401 1.38242C22.2301 1.21242 22.3401 1.03243 22.4401 0.86243L22.6301 0.582431L22.78 0.402438C22.931 0.235773 23.1303 0.120389 23.35 0.072421H23.3601C26.5296 0.0510504 29.694 0.332323 32.8101 0.912417L33.9801 1.12244L35.1301 1.41242C35.9001 1.61242 36.6701 1.78241 37.4201 2.00241C38.9301 2.48241 40.42 2.94242 41.9 3.54242C44.8524 4.6496 47.706 6.00445 50.4301 7.59244C53.1001 9.24244 55.8601 10.8624 57.8601 13.3824C57.8709 13.3927 57.8796 13.4051 57.8856 13.4189C57.8915 13.4326 57.8945 13.4475 57.8945 13.4624C57.8945 13.4774 57.8915 13.4922 57.8856 13.506C57.8796 13.5197 57.8709 13.5321 57.8601 13.5424C57.8407 13.5549 57.8181 13.5616 57.7951 13.5616C57.772 13.5616 57.7494 13.5549 57.73 13.5424H57.7601Z" fill="#231F20"/>
    <path d="M73.7401 44.5524C73.2901 44.6881 72.81 44.6881 72.36 44.5524C71.8842 44.4287 71.4407 44.2036 71.0601 43.8924C70.9453 43.8006 70.8443 43.6929 70.7601 43.5724C70.6735 43.45 70.6061 43.3151 70.5601 43.1724C70.4801 42.9324 70.43 42.7424 70.36 42.5324L69.98 41.2824C69.42 39.6424 68.82 38.0324 68.15 36.4424C67.48 34.8524 66.58 33.3924 65.79 31.9224C65.0583 30.4075 64.0394 29.0491 62.79 27.9224C62.7796 27.914 62.7712 27.9033 62.7654 27.8912C62.7596 27.8791 62.7566 27.8658 62.7566 27.8524C62.7566 27.839 62.7596 27.8257 62.7654 27.8136C62.7712 27.8015 62.7796 27.7909 62.79 27.7824C62.8052 27.7737 62.8225 27.769 62.84 27.769C62.8576 27.769 62.8749 27.7737 62.8901 27.7824C63.7956 28.0062 64.6244 28.469 65.29 29.1224C65.6441 29.4181 65.9629 29.7537 66.2401 30.1224C66.5331 30.467 66.8068 30.8276 67.0601 31.2024C67.9469 32.7444 68.6484 34.3858 69.15 36.0924C69.78 37.7324 70.33 39.3924 70.83 41.0924L71.2401 42.3324L71.4401 42.9224C71.4624 42.9875 71.4891 43.051 71.52 43.1124C71.5649 43.1673 71.6152 43.2176 71.67 43.2624C72.18 43.7324 73.0601 43.9024 73.7601 44.5224C73.7688 44.5308 73.7758 44.5409 73.7806 44.5521C73.7853 44.5633 73.7878 44.5753 73.7878 44.5874C73.7878 44.5996 73.7853 44.6116 73.7806 44.6228C73.7758 44.6339 73.7688 44.644 73.7601 44.6524C73.747 44.6397 73.7381 44.6234 73.7345 44.6055C73.7309 44.5877 73.7329 44.5692 73.7401 44.5524Z" fill="#231F20"/>
    <path d="M43.1401 47.3924C42.6994 46.5324 42.473 45.5787 42.4801 44.6124C42.4201 43.6724 42.4201 42.7224 42.4801 41.7724C42.4462 39.8657 42.5969 37.9601 42.9301 36.0824C43.1877 34.1327 43.9039 32.2718 45.02 30.6524C46.1577 29.0627 47.6967 27.8031 49.4801 27.0024C49.504 26.9922 49.5309 26.9917 49.5552 27.0011C49.5795 27.0104 49.5991 27.0288 49.6101 27.0524C49.6222 27.0682 49.6288 27.0875 49.6288 27.1074C49.6288 27.1273 49.6222 27.1466 49.6101 27.1624C48.3586 28.4851 47.2461 29.9326 46.2901 31.4824C45.2851 32.955 44.5221 34.5788 44.03 36.2924C43.651 38.0952 43.4467 39.9304 43.4201 41.7724C43.4201 42.7024 43.42 43.6224 43.52 44.5524C43.637 45.4901 43.5897 46.441 43.3801 47.3624C43.378 47.3743 43.3733 47.3855 43.3663 47.3953C43.3593 47.4051 43.3501 47.4132 43.3396 47.419C43.329 47.4247 43.3172 47.428 43.3052 47.4286C43.2932 47.4292 43.2811 47.4271 43.27 47.4224C43.2485 47.4343 43.2233 47.4378 43.1994 47.4323C43.1754 47.4267 43.1543 47.4125 43.1401 47.3924Z" fill="#231F20"/>
    <path d="M66.6201 28.5423C65.5226 28.5148 64.4348 28.3296 63.3901 27.9924C62.3901 27.7224 61.29 27.4623 60.22 27.2523C58.1021 26.8667 55.9528 26.6792 53.8 26.6923C51.6943 26.7909 49.6149 27.202 47.6301 27.9123C45.6245 28.5974 43.7824 29.6904 42.22 31.1224C42.2116 31.1328 42.201 31.1412 42.1888 31.147C42.1767 31.1528 42.1634 31.1558 42.15 31.1558C42.1366 31.1558 42.1234 31.1528 42.1113 31.147C42.0992 31.1412 42.0885 31.1328 42.08 31.1224C42.0679 31.1066 42.0613 31.0872 42.0613 31.0673C42.0613 31.0474 42.0679 31.0281 42.08 31.0123C43.1788 28.9837 44.9453 27.3974 47.08 26.5224C49.2272 25.7335 51.5199 25.4196 53.8 25.6023C56.0066 25.6606 58.2028 25.9251 60.36 26.3923C61.45 26.5923 62.53 26.8123 63.6 27.1023C64.6852 27.3155 65.7098 27.7663 66.6 28.4223C66.6085 28.4299 66.6154 28.4391 66.6201 28.4494C66.6247 28.4598 66.6271 28.471 66.6271 28.4823C66.6271 28.4937 66.6247 28.5049 66.6201 28.5153C66.6154 28.5256 66.6085 28.5348 66.6 28.5423C66.6067 28.5414 66.6134 28.5414 66.6201 28.5423Z" fill="#231F20"/>
    <path d="M73.76 45.6324C70.7764 46.0591 67.7721 46.3262 64.76 46.4324C61.76 46.6524 58.76 46.8224 55.76 47.0924C52.76 47.3624 49.76 47.6924 46.83 48.0924C43.9 48.4924 40.91 48.9724 38 49.6324C35.1109 50.2007 32.3343 51.2377 29.78 52.7024C27.2696 54.1039 25.2909 56.2934 24.15 58.9324C23.6258 60.2527 23.3801 61.667 23.4283 63.0867C23.4765 64.5063 23.8175 65.9008 24.43 67.1824C25.7915 69.8022 28.0968 71.8073 30.88 72.7924C30.8926 72.7969 30.9042 72.8038 30.914 72.8128C30.9239 72.8218 30.9318 72.8327 30.9374 72.8448C30.943 72.8569 30.9461 72.87 30.9465 72.8833C30.947 72.8967 30.9448 72.91 30.94 72.9224C30.9356 72.935 30.9286 72.9466 30.9196 72.9564C30.9106 72.9663 30.8998 72.9742 30.8876 72.9798C30.8755 72.9854 30.8624 72.9885 30.8491 72.989C30.8357 72.9894 30.8225 72.9872 30.81 72.9824C30.1 72.7424 29.34 72.5724 28.64 72.2624C27.9369 71.9503 27.2669 71.5684 26.64 71.1224L25.71 70.4124C25.43 70.1424 25.17 69.8524 24.9 69.5624C24.3633 68.9851 23.8905 68.3514 23.49 67.6724C22.7133 66.2652 22.2472 64.708 22.123 63.1055C21.9988 61.503 22.2194 59.8925 22.77 58.3824C23.0905 57.6463 23.4579 56.9315 23.87 56.2424L24.57 55.2424L24.93 54.7524C25.05 54.6024 25.2 54.4724 25.34 54.3224C26.4385 53.191 27.6949 52.2243 29.07 51.4524C29.77 51.1024 30.45 50.7224 31.16 50.4524L33.34 49.6624C34.7986 49.2168 36.2809 48.8529 37.78 48.5724C40.78 47.9324 43.72 47.4724 46.71 47.1024C49.7 46.7324 52.71 46.4224 55.71 46.1624C58.71 45.9024 61.71 45.6424 64.71 45.4924C67.7034 45.2274 70.7137 45.2106 73.71 45.4424C73.7205 45.4436 73.7307 45.447 73.7399 45.4522C73.7492 45.4574 73.7574 45.4644 73.7639 45.4728C73.7704 45.4812 73.7751 45.4907 73.7779 45.501C73.7807 45.5112 73.7814 45.5219 73.78 45.5324C73.7888 45.5488 73.7916 45.5678 73.788 45.586C73.7843 45.6043 73.7745 45.6207 73.76 45.6324Z" fill="#231F20"/>
    <path d="M18.83 55.9622C17.55 56.7022 16.21 57.0622 14.94 57.6622C13.6557 58.2038 12.4294 58.8739 11.28 59.6622C10.1539 60.4914 9.12419 61.444 8.20996 62.5022C7.20996 63.5522 6.32996 64.6222 5.45996 65.7422C3.73239 67.8959 2.41092 70.3457 1.56 72.9722C1.48007 73.2809 1.42326 73.5951 1.39001 73.9122C1.3605 74.2249 1.3605 74.5396 1.39001 74.8522C1.45626 75.4985 1.63562 76.1281 1.91998 76.7122C2.19292 77.2883 2.63628 77.7665 3.19 78.0822C3.77286 78.4203 4.45553 78.5441 5.12 78.4322C5.13314 78.4309 5.1464 78.4321 5.15906 78.4359C5.17172 78.4397 5.18356 78.4459 5.19379 78.4543C5.20402 78.4627 5.21247 78.473 5.21869 78.4846C5.22491 78.4963 5.22873 78.5091 5.22998 78.5222C5.24214 78.538 5.24872 78.5573 5.24872 78.5772C5.24872 78.5971 5.24214 78.6165 5.22998 78.6322C4.50746 78.9528 3.69207 78.9955 2.94 78.7522C2.16966 78.4658 1.50623 77.9491 1.03998 77.2722C0.588708 76.6103 0.282077 75.8607 0.140015 75.0722C0.0609641 74.6733 0.0141317 74.2687 0 73.8622C0.00427518 73.4595 0.0444291 73.0579 0.119995 72.6622C0.285844 71.9086 0.530505 71.1746 0.849976 70.4722C1.18034 69.8037 1.55101 69.1558 1.95996 68.5323C2.79141 67.3317 3.68257 66.1736 4.63 65.0623C5.54334 63.9423 6.5 62.8622 7.5 61.8222C8.47918 60.7374 9.57587 59.7648 10.77 58.9222C11.9602 58.0699 13.2373 57.3459 14.58 56.7622C15.8918 56.1012 17.341 55.7587 18.81 55.7622C18.8214 55.7621 18.8327 55.7645 18.8431 55.7691C18.8535 55.7738 18.8628 55.7806 18.8704 55.7891C18.878 55.7976 18.8836 55.8076 18.887 55.8185C18.8904 55.8294 18.8914 55.8409 18.89 55.8522C18.8953 55.8631 18.8981 55.8751 18.8981 55.8872C18.8981 55.8994 18.8953 55.9113 18.89 55.9222L18.83 55.9622Z" fill="#231F20"/>
    <path d="M7.16985 72.5625C6.91287 73.2559 6.59495 73.9252 6.21984 74.5625C5.89774 75.1819 5.71678 75.8649 5.68987 76.5625C5.65305 77.2117 5.82818 77.8554 6.1889 78.3964C6.54962 78.9375 7.0764 79.3468 7.68987 79.5625C8.35677 79.6896 9.04504 79.6448 9.68987 79.4325C10.2924 79.2933 10.8227 78.9373 11.1799 78.4325C12.0953 77.3389 12.5978 75.9587 12.5998 74.5325C12.5998 74.5185 12.6027 74.5046 12.6083 74.4917C12.614 74.4789 12.6222 74.4674 12.6326 74.458C12.6429 74.4485 12.6552 74.4414 12.6685 74.437C12.6818 74.4326 12.6959 74.4311 12.7098 74.4325C12.7223 74.4263 12.736 74.4231 12.7499 74.4231C12.7637 74.4231 12.7774 74.4263 12.7898 74.4325C13.1797 75.2192 13.3457 76.098 13.2699 76.9727C13.1941 77.8475 12.8792 78.6845 12.3599 79.3925C12.0981 79.7918 11.7503 80.1275 11.3419 80.3749C10.9336 80.6224 10.475 80.7753 9.99987 80.8225C9.13675 80.9595 8.25359 80.8945 7.41985 80.6325C6.56595 80.3711 5.84814 79.7861 5.41985 79.0025C5.01075 78.252 4.80718 77.4069 4.82983 76.5525C4.8333 75.715 5.03191 74.8898 5.40984 74.1425C5.55839 73.7563 5.78521 73.405 6.07604 73.1108C6.36688 72.8165 6.71546 72.5856 7.09985 72.4325C7.12485 72.4286 7.15044 72.4334 7.1723 72.4461C7.19416 72.4589 7.21094 72.4788 7.21984 72.5025L7.16985 72.5625Z" fill="#231F20"/>
    <path d="M22.2301 70.8924C21.9201 71.4324 21.5001 71.4724 21.1001 71.6724C20.7001 71.8724 20.2901 71.9824 19.8901 72.1624C19.1176 72.5739 18.3667 73.0245 17.6401 73.5124C16.9301 74.0324 16.3201 74.6824 15.6401 75.1524C15.2601 75.3824 14.9101 75.6424 14.5101 75.8424C14.1118 76.0815 13.6936 76.2855 13.2601 76.4524C13.2335 76.4624 13.2041 76.4617 13.178 76.4506C13.1519 76.4394 13.1312 76.4186 13.1201 76.3924C13.11 76.3667 13.11 76.3382 13.1201 76.3124C13.4574 75.4205 14.0024 74.6217 14.71 73.9824C15.4432 73.4123 16.2507 72.9447 17.1101 72.5924C17.9101 72.1524 18.7201 71.7324 19.5501 71.3424C19.9701 71.1424 20.3801 70.9424 20.8101 70.7824C21.2401 70.6224 21.6801 70.4024 22.2401 70.7224C22.2598 70.7444 22.2707 70.7729 22.2707 70.8024C22.2707 70.8319 22.2598 70.8604 22.2401 70.8824L22.2301 70.8924Z" fill="#231F20"/>
    <path d="M33.7799 53.6124C30.2799 55.1424 30.7799 56.9824 31.2099 57.6124C31.6399 58.2424 33.2699 58.8424 35.4299 57.6124C37.5899 56.3824 38.5299 54.8624 37.9099 53.6124C37.2899 52.3624 33.7799 53.6124 33.7799 53.6124Z" fill="#F7C080"/>
    <path d="M36.2099 61.2224C34.7199 61.8424 34.4499 63.0624 34.7099 63.6224C34.9699 64.1824 36.3599 64.4924 37.5999 64.0824C38.8399 63.6724 39.7099 62.6024 39.3999 61.6324C39.0899 60.6624 37.8099 60.5524 36.2099 61.2224Z" fill="#F7C080"/>
    <path d="M51.8501 19.3924C51.1101 18.8824 50.7401 18.6424 50.0101 18.7524C49.2911 18.8863 48.6092 19.1728 48.0101 19.5924C47.3809 20.0261 46.8269 20.5598 46.3701 21.1724C46.1527 21.4057 46.0004 21.692 45.9285 22.0026C45.8565 22.3132 45.8674 22.6373 45.9601 22.9424C46.008 23.0559 46.0818 23.1566 46.1756 23.2364C46.2694 23.3163 46.3805 23.3732 46.5001 23.4024C46.8026 23.4739 47.1176 23.4739 47.4201 23.4024C47.7623 23.3302 48.0971 23.2264 48.4201 23.0924C48.767 22.9704 49.1017 22.8164 49.4201 22.6324C50.0844 22.3003 50.7029 21.8835 51.2601 21.3924C51.5144 21.1519 51.7123 20.8583 51.8401 20.5324C51.9448 20.1698 51.9448 19.785 51.8401 19.4224L51.8501 19.3924ZM52.0201 19.3224C52.285 19.6981 52.4345 20.143 52.4501 20.6024C52.437 21.0904 52.2956 21.5664 52.0401 21.9824C51.5459 22.7427 50.9072 23.3985 50.1601 23.9124C49.3835 24.4153 48.4928 24.7145 47.5701 24.7824C47.0524 24.8261 46.5317 24.7473 46.0501 24.5524C45.7855 24.4454 45.5468 24.2829 45.3502 24.0759C45.1535 23.8689 45.0035 23.6222 44.9101 23.3524C44.7409 22.8496 44.7409 22.3052 44.9101 21.8024C45.0594 21.3562 45.2861 20.9398 45.5801 20.5724C46.1241 19.8937 46.7762 19.3092 47.5101 18.8424C48.2316 18.325 49.0635 17.9827 49.9401 17.8424C50.4411 17.7731 50.951 17.8715 51.3901 18.1224C51.6034 18.2511 51.7775 18.4355 51.8938 18.6557C52.0101 18.876 52.0641 19.1238 52.0501 19.3724L52.0201 19.3224Z" fill="#231F20"/>
    <path d="M60.8201 12.5924C60.7201 13.1024 60.4201 13.1224 60.1801 13.2624L59.3901 13.5624L57.8701 14.3224C57.4184 14.654 56.9363 14.942 56.4301 15.1824C55.879 15.3808 55.3039 15.5052 54.7201 15.5524C54.6893 15.5509 54.66 15.5393 54.6365 15.5194C54.613 15.4995 54.5966 15.4724 54.5901 15.4423C54.5839 15.4262 54.5839 15.4085 54.5901 15.3924C54.7661 14.7609 55.1684 14.2164 55.7201 13.8624C56.2508 13.5949 56.8216 13.4159 57.4101 13.3324C57.9501 13.139 58.4901 12.939 59.0301 12.7324C59.2901 12.6124 59.5501 12.4824 59.8101 12.3824C60.0701 12.2824 60.3301 12.1124 60.7601 12.4324C60.7842 12.4506 60.8026 12.4754 60.8132 12.5037C60.8238 12.532 60.8263 12.5628 60.8201 12.5924Z" fill="#231F20"/>
    <path d="M70.6901 10.2924C69.9193 10.5907 69.1055 10.7629 68.28 10.8024C67.47 10.8924 66.67 10.9524 65.87 11.0624C65.0746 11.157 64.2862 11.304 63.5101 11.5024C62.8053 11.6555 62.1471 11.9743 61.59 12.4324C61.606 12.4264 61.6206 12.417 61.6326 12.405C61.6447 12.3929 61.654 12.3784 61.66 12.3624C61.66 12.3124 61.66 12.3624 61.66 12.3624C61.66 12.3624 61.66 12.4624 61.66 12.5324C61.6506 12.679 61.6506 12.8259 61.66 12.9724C61.7085 13.2747 61.7821 13.5724 61.8801 13.8624C62.073 14.4461 62.3675 14.9912 62.7501 15.4724C63.1276 15.9232 63.5943 16.291 64.121 16.5526C64.6476 16.8142 65.2227 16.964 65.8101 16.9924C67.0268 17.1542 68.264 16.945 69.36 16.3924C70.5188 15.7834 71.5399 14.9427 72.36 13.9224C72.3813 13.9054 72.4078 13.8961 72.4351 13.8961C72.4623 13.8961 72.4888 13.9054 72.5101 13.9224C72.5197 13.941 72.5247 13.9615 72.5247 13.9824C72.5247 14.0033 72.5197 14.0239 72.5101 14.0424C72.0428 15.4123 71.1624 16.6036 69.99 17.4524C69.3797 17.8882 68.7048 18.2256 67.99 18.4524C67.6222 18.557 67.2424 18.6141 66.86 18.6224C66.4808 18.6574 66.0992 18.6574 65.72 18.6224C64.9458 18.5277 64.1998 18.2722 63.53 17.8724C62.889 17.4458 62.3301 16.9072 61.8801 16.2824C61.4556 15.6653 61.1191 14.9922 60.8801 14.2824C60.7775 13.9284 60.7006 13.5675 60.65 13.2024C60.6346 13.0127 60.6346 12.8221 60.65 12.6324C60.6406 12.5226 60.6406 12.4122 60.65 12.3024C60.6591 12.2308 60.6759 12.1604 60.7001 12.0924C60.7407 11.9811 60.798 11.8766 60.87 11.7824C61.5692 11.1832 62.4145 10.7795 63.3201 10.6124C64.1401 10.4224 64.96 10.2724 65.78 10.1424C66.5982 10.0141 67.4228 9.93066 68.2501 9.89243C69.0851 9.79695 69.9309 9.88221 70.73 10.1424C70.7441 10.1573 70.7519 10.177 70.7519 10.1974C70.7519 10.2179 70.7441 10.2376 70.73 10.2524C70.722 10.2702 70.7078 10.2844 70.6901 10.2924Z" fill="#231F20"/>
    <path d="M27.3 6.05235C28.8996 6.2825 30.4669 6.69864 31.97 7.29234C33.49 7.81234 34.97 8.43236 36.46 9.06236C37.9541 9.68185 39.41 10.3898 40.82 11.1824C42.2753 11.9509 43.5986 12.9467 44.74 14.1323C44.8061 14.2028 44.8428 14.2958 44.8428 14.3923C44.8428 14.4889 44.8061 14.5819 44.74 14.6524C44.6934 14.6912 44.6385 14.7186 44.5795 14.7325C44.5204 14.7464 44.4589 14.7464 44.4 14.7323C42.819 14.3382 41.2059 14.0872 39.5799 13.9823C37.9837 13.8464 36.3759 13.992 34.8299 14.4123V13.6123C36.129 14.1686 37.3916 14.8065 38.61 15.5223C39.2261 15.8736 39.8145 16.2715 40.37 16.7124C40.9364 17.1469 41.4322 17.6663 41.84 18.2523C41.8505 18.2649 41.8564 18.2809 41.8564 18.2973C41.8564 18.3138 41.8505 18.3297 41.84 18.3424C41.8343 18.3487 41.8274 18.3538 41.8196 18.3573C41.8119 18.3608 41.8035 18.3626 41.795 18.3626C41.7865 18.3626 41.7781 18.3608 41.7703 18.3573C41.7626 18.3538 41.7556 18.3487 41.75 18.3424C41.2784 17.8411 40.7319 17.416 40.13 17.0823C39.54 16.7323 38.94 16.3923 38.32 16.0823C37.07 15.5023 35.8 14.9323 34.51 14.4723C34.3852 14.427 34.2829 14.3348 34.225 14.2153C34.1671 14.0958 34.1582 13.9584 34.2 13.8323C34.2266 13.7616 34.2679 13.6972 34.3214 13.6438C34.3749 13.5903 34.4392 13.5489 34.51 13.5223C36.158 12.9759 37.9074 12.8051 39.63 13.0223C41.3245 13.1972 42.9986 13.532 44.63 14.0223L44.24 14.6323C43.1787 13.4792 41.9314 12.5124 40.55 11.7723C39.1744 10.9737 37.7518 10.2591 36.29 9.63233C34.83 8.99233 33.2899 8.44233 31.8299 7.88233C30.2997 7.40073 28.8003 6.82633 27.34 6.16233C27.3326 6.15213 27.3287 6.13989 27.3287 6.12733C27.3287 6.11477 27.3326 6.10256 27.34 6.09236C27.34 6.09236 27.28 6.04235 27.3 6.05235Z" fill="#231F20"/>
    <path d="M34.4699 106.992C33.4416 106.557 32.5552 105.843 31.9104 104.932C31.2655 104.02 30.8879 102.947 30.8199 101.832C30.801 101.531 30.8212 101.228 30.8799 100.932C30.909 100.765 30.9629 100.603 31.0399 100.452C31.0399 100.372 31.1299 100.252 31.1799 100.122C31.4165 99.534 31.8615 99.0534 32.4299 98.7723C33.4729 98.3356 34.6004 98.1374 35.7299 98.1923C37.8679 98.2381 39.997 98.4825 42.0899 98.9223C44.1699 99.3223 46.2299 99.7823 48.2799 100.392C52.4111 101.571 56.2592 103.579 59.5899 106.292C61.2588 107.661 62.7354 109.249 63.9799 111.012C64.6116 111.9 65.1479 112.852 65.5798 113.852C66.0661 114.878 66.3221 115.997 66.3298 117.132C66.2452 118.32 65.7544 119.443 64.9399 120.312C64.1842 121.15 63.2699 121.83 62.2499 122.312C60.2785 123.267 58.1443 123.841 55.9599 124.002C53.8205 124.187 51.6692 124.187 49.5299 124.002C48.4599 123.942 47.4099 123.802 46.3499 123.692C45.2899 123.582 44.2199 123.382 43.1699 123.152C38.9646 122.177 35.0185 120.308 31.5999 117.672C29.8967 116.366 28.3883 114.824 27.1199 113.092C26.8046 112.646 26.527 112.175 26.2899 111.682C26.063 111.153 25.9802 110.574 26.0499 110.002C26.0718 109.71 26.1631 109.427 26.3161 109.176C26.4691 108.926 26.6795 108.715 26.9299 108.562C27.436 108.314 28.0136 108.254 28.5599 108.392C28.573 108.394 28.5858 108.397 28.5975 108.404C28.6092 108.41 28.6195 108.418 28.6278 108.429C28.6362 108.439 28.6425 108.451 28.6463 108.463C28.65 108.476 28.6512 108.489 28.6499 108.502C28.645 108.53 28.6299 108.554 28.6076 108.571C28.5854 108.588 28.5575 108.595 28.5299 108.592C28.0387 108.514 27.5353 108.602 27.0999 108.842C26.9155 108.983 26.7669 109.164 26.6661 109.373C26.5653 109.581 26.5152 109.811 26.5199 110.042C26.4973 110.522 26.6043 110.999 26.8299 111.422C27.089 111.856 27.3798 112.271 27.6999 112.662C29.0082 114.26 30.5329 115.666 32.2299 116.842C33.9166 118.022 35.7193 119.028 37.6099 119.842C39.505 120.639 41.4747 121.245 43.4899 121.652C44.4899 121.882 45.4899 122.032 46.4899 122.202C47.4899 122.372 48.5599 122.462 49.5899 122.522C51.6493 122.702 53.7205 122.702 55.7799 122.522C57.8066 122.425 59.7974 121.95 61.6499 121.122C62.5429 120.72 63.3481 120.145 64.0199 119.432C64.6783 118.771 65.0971 117.909 65.2099 116.982C65.1893 116.004 64.9681 115.041 64.5599 114.152C64.1574 113.218 63.6615 112.327 63.0798 111.492C61.8999 109.796 60.4974 108.265 58.9099 106.942C55.6946 104.294 51.9766 102.325 47.9799 101.152C45.9799 100.572 43.9799 100.152 41.8699 99.7323C39.8323 99.3266 37.7659 99.0825 35.6899 99.0023C34.7056 98.9471 33.7208 99.1005 32.7999 99.4523C32.4111 99.6315 32.1066 99.9539 31.9499 100.352C31.9499 100.472 31.8499 100.592 31.7699 100.752C31.7339 100.837 31.7039 100.924 31.6799 101.012C31.6373 101.233 31.6206 101.458 31.6299 101.682C31.6899 102.688 31.9799 103.666 32.4775 104.541C32.9751 105.417 33.667 106.166 34.4999 106.732C34.5129 106.75 34.5199 106.771 34.5199 106.792C34.5199 106.814 34.5129 106.835 34.4999 106.852C34.5073 106.863 34.5124 106.876 34.5148 106.889C34.5173 106.902 34.5172 106.916 34.5144 106.929C34.5116 106.942 34.5062 106.954 34.4986 106.965C34.4909 106.976 34.4812 106.985 34.4699 106.992Z" fill="#231F20"/>
    <path d="M31.0599 110.662C30.7795 110.686 30.4974 110.648 30.2332 110.551C29.969 110.454 29.729 110.301 29.5298 110.102C29.1094 109.766 28.718 109.395 28.3599 108.992C27.5355 108.206 26.9615 107.194 26.7098 106.082C26.6464 105.787 26.6129 105.485 26.6099 105.182C26.6099 104.882 26.6099 104.582 26.6999 104.272C26.7899 103.962 26.8799 103.712 26.9899 103.432L27.2198 103.022C27.3198 102.892 27.4199 102.752 27.5399 102.622C27.7798 102.39 28.0654 102.209 28.3786 102.092C28.6918 101.975 29.026 101.924 29.3599 101.942C29.9457 101.962 30.5098 102.169 30.9698 102.532C30.9888 102.553 30.9994 102.58 30.9994 102.607C30.9994 102.635 30.9888 102.662 30.9698 102.682C30.944 102.692 30.9158 102.692 30.8899 102.682C30.4028 102.724 29.9225 102.825 29.4598 102.982C29.1269 103.101 28.8376 103.317 28.6299 103.602C28.4499 103.832 28.2699 104.242 28.0399 104.602C27.9561 104.798 27.8827 104.999 27.8199 105.202C27.7947 105.418 27.7947 105.637 27.8199 105.852C27.9613 106.783 28.3956 107.645 29.0599 108.312C29.4045 108.669 29.7719 109.003 30.1599 109.312C30.5299 109.652 30.9799 109.842 31.1599 110.482C31.1643 110.509 31.1599 110.536 31.1472 110.56C31.1345 110.583 31.1143 110.602 31.0898 110.612L31.0599 110.662Z" fill="#231F20"/>
    <path d="M71.14 9.7524C71.1879 9.71594 71.2421 9.68882 71.3 9.67241H71.41L71.63 9.60241C71.77 9.55241 71.92 9.52241 72.06 9.48241C72.3459 9.40654 72.6366 9.34977 72.93 9.31243C73.52 9.21243 74.11 9.20242 74.7 9.15242C75.88 9.08242 77.06 9.02242 78.24 9.02242C80.6109 8.98949 82.9817 9.09635 85.34 9.34243C85.4045 9.34984 85.467 9.36999 85.5236 9.40175C85.5803 9.43351 85.6301 9.47624 85.6701 9.52742C85.7101 9.57861 85.7396 9.63722 85.7567 9.69988C85.7739 9.76254 85.7784 9.82799 85.77 9.89241C85.4395 11.878 84.6821 13.7681 83.55 15.4324C82.9419 16.2866 82.1661 17.0079 81.27 17.5524C80.333 18.0773 79.2834 18.3688 78.21 18.4024C77.1294 18.4076 76.0655 18.1356 75.12 17.6124C74.2344 17.0465 73.4779 16.3003 72.9 15.4224C72.3671 14.5765 71.9532 13.6612 71.67 12.7024C71.52 12.2324 71.41 11.7524 71.31 11.2824C71.26 11.0424 71.23 10.8024 71.19 10.5624L71.14 10.2024V10.0224V9.92241C71.1252 9.86672 71.1252 9.80809 71.14 9.7524ZM71.31 9.86242C71.8437 11.6246 72.7055 13.2701 73.85 14.7124C74.4092 15.3703 75.0878 15.9166 75.85 16.3224C76.6005 16.6546 77.4094 16.8348 78.23 16.8524C79.0662 16.8496 79.8919 16.6654 80.65 16.3124C81.4189 15.9125 82.0991 15.3615 82.65 14.6924C83.7649 13.2245 84.5093 11.5093 84.82 9.6924L85.25 10.2624C82.9299 9.95664 80.5894 9.83294 78.25 9.89241L74.74 9.9724C74.16 9.9724 73.57 10.0424 72.99 9.9724C72.6935 9.98736 72.3965 9.98736 72.1 9.9724C71.96 9.9724 71.81 9.97241 71.66 9.92241H71.44H71.32C71.32 9.92241 71.36 9.88242 71.36 9.86242H71.31Z" fill="#231F20"/>
    <path d="M21.56 76.3924C25.56 73.5424 30.34 72.3924 34.96 71.2324C39.6252 70.144 44.3547 69.3525 49.12 68.8624C58.6298 67.7815 68.2008 67.3338 77.77 67.5224L84.93 67.6324C87.32 67.6824 89.71 67.7924 92.1 67.8724C94.49 67.9524 96.87 68.1624 99.25 68.3124C101.63 68.4624 104.02 68.6924 106.4 68.9524C111.15 69.5124 115.89 70.2224 120.59 71.1824C125.312 72.0527 129.928 73.4238 134.36 75.2724C134.393 75.2877 134.418 75.3149 134.431 75.3484C134.444 75.3819 134.444 75.4191 134.43 75.4524C134.417 75.4844 134.392 75.5104 134.36 75.5251C134.329 75.5399 134.293 75.5425 134.26 75.5324C132.003 74.7986 129.697 74.2238 127.36 73.8124C125.04 73.3524 122.7 72.9224 120.36 72.6024C115.66 71.9324 110.96 71.3224 106.22 70.9524C96.78 70.0524 87.29 69.3124 77.77 68.9524C68.2627 68.6884 58.7485 69.0559 49.29 70.0524C44.5846 70.5846 39.9112 71.369 35.29 72.4024C32.97 72.9124 30.69 73.5424 28.43 74.2424C26.17 74.9424 23.93 75.6824 21.73 76.5624C21.7163 76.5689 21.7014 76.5725 21.6862 76.573C21.6711 76.5735 21.6559 76.5708 21.6419 76.5652C21.6278 76.5596 21.615 76.5511 21.6044 76.5403C21.5937 76.5295 21.5854 76.5165 21.58 76.5024C21.5671 76.4875 21.5585 76.4695 21.555 76.4501C21.5515 76.4308 21.5532 76.4108 21.56 76.3924Z" fill="#231F20"/>
    <path d="M20.36 85.0725C25.0057 83.575 29.7692 82.4711 34.6 81.7725C39.41 80.9325 44.24 80.2925 49.09 79.7725C58.783 78.6879 68.5266 78.1171 78.28 78.0625C83.16 78.0625 88.04 78.1125 92.91 78.3625C97.78 78.6125 102.65 79.0325 107.5 79.5325C112.35 80.0325 117.17 80.8925 121.97 81.7725C124.36 82.2025 126.75 82.6925 129.14 83.2125C131.53 83.7325 133.87 84.3725 136.22 85.0525C136.246 85.0616 136.267 85.08 136.28 85.104C136.293 85.128 136.297 85.156 136.29 85.1825C136.279 85.207 136.261 85.2272 136.237 85.2398C136.213 85.2525 136.186 85.257 136.16 85.2525C133.79 84.7425 131.39 84.3225 128.99 83.9325C126.59 83.5425 124.2 83.1325 121.79 82.8025C116.98 82.1225 112.17 81.4725 107.34 81.0225C102.51 80.5725 97.68 80.0225 92.84 79.7625C88 79.5025 83.14 79.2525 78.28 79.1525C68.5634 79.1489 58.8534 79.6563 49.19 80.6725C44.36 81.1925 39.55 81.9125 34.75 82.6725C29.95 83.4325 25.22 84.4825 20.4 85.2325C20.3888 85.2354 20.3771 85.2359 20.3656 85.2339C20.3542 85.2318 20.3433 85.2273 20.3338 85.2206C20.3243 85.214 20.3164 85.2053 20.3105 85.1953C20.3047 85.1852 20.3011 85.174 20.3 85.1625C20.2969 85.1427 20.3014 85.1225 20.3125 85.1058C20.3236 85.0891 20.3406 85.0772 20.36 85.0725Z" fill="#231F20"/>
    <path d="M65.41 114.712C66.4849 114.79 67.5445 115.012 68.5601 115.372C69.5601 115.662 70.56 115.932 71.65 116.142C73.7343 116.528 75.8504 116.715 77.97 116.702C80.09 116.622 82.19 116.302 84.3 116.072C86.41 115.842 88.51 115.542 90.67 115.312C90.6832 115.311 90.6965 115.312 90.7092 115.316C90.7218 115.32 90.7336 115.326 90.7438 115.334C90.7541 115.343 90.7625 115.353 90.7687 115.365C90.775 115.376 90.7788 115.389 90.78 115.402C90.7888 115.418 90.7935 115.435 90.7935 115.452C90.7935 115.47 90.7888 115.487 90.78 115.502C88.8214 116.494 86.7246 117.185 84.5601 117.552C82.3946 117.862 80.2024 117.943 78.02 117.792C75.8374 117.746 73.6643 117.491 71.53 117.032C70.4577 116.838 69.3962 116.588 68.35 116.282C67.2496 116.059 66.22 115.572 65.35 114.862C65.3413 114.854 65.3343 114.844 65.3295 114.833C65.3248 114.822 65.3223 114.81 65.3223 114.797C65.3223 114.785 65.3248 114.773 65.3295 114.762C65.3343 114.751 65.3413 114.741 65.35 114.732L65.41 114.712Z" fill="#231F20"/>
    <path d="M46.09 80.6324C45.9645 81.2244 45.6968 81.7769 45.3101 82.2424C44.9801 82.7224 44.6601 83.2424 44.3701 83.7224C43.8318 84.7626 43.3738 85.8424 43.0001 86.9524C42.6301 88.0724 42.5001 89.2424 42.1401 90.3524C41.9501 90.9124 41.81 91.4824 41.59 92.0424C41.4112 92.6228 41.1941 93.1907 40.9401 93.7424C40.9197 93.7614 40.8929 93.7719 40.8651 93.7719C40.8372 93.7719 40.8104 93.7614 40.7901 93.7424C40.7848 93.7315 40.782 93.7195 40.782 93.7074C40.782 93.6952 40.7848 93.6833 40.7901 93.6724C40.5205 92.4524 40.5001 91.1905 40.7301 89.9624C41.0183 88.766 41.455 87.6104 42.0301 86.5224C42.4951 85.3923 43.026 84.2903 43.6201 83.2224C43.9201 82.6924 44.2201 82.1524 44.5701 81.6524C44.9201 81.1524 45.2701 80.6024 46.0301 80.4624C46.0551 80.4594 46.0804 80.4659 46.1008 80.4808C46.1212 80.4956 46.1352 80.5176 46.1401 80.5424L46.09 80.6324Z" fill="#231F20"/>
    <path d="M52.3601 79.9424C52.3709 80.4418 52.2083 80.9294 51.9001 81.3224C51.6601 81.7224 51.4201 82.1224 51.2101 82.5424C50.8028 83.3857 50.4682 84.2622 50.2101 85.1624C49.9701 86.0724 49.9401 87.0024 49.7301 87.9024C49.5297 88.8362 49.2759 89.7577 48.9701 90.6624C48.9656 90.6763 48.9583 90.6891 48.9488 90.7001C48.9393 90.7111 48.9277 90.7202 48.9147 90.7267C48.9017 90.7332 48.8875 90.7371 48.873 90.738C48.8584 90.739 48.8438 90.7371 48.8301 90.7324C48.8034 90.7204 48.7821 90.6991 48.7701 90.6724C48.3372 89.7351 48.158 88.7007 48.2501 87.6724C48.3951 86.6808 48.7061 85.7207 49.1701 84.8324C49.5077 83.9058 49.9017 83.0008 50.3501 82.1224C50.5701 81.6824 50.7901 81.2424 51.0401 80.8224C51.2901 80.4024 51.5301 79.9424 52.1901 79.8224C52.2046 79.8195 52.2195 79.8196 52.2339 79.8226C52.2484 79.8256 52.262 79.8315 52.2742 79.8399C52.2863 79.8483 52.2966 79.859 52.3045 79.8715C52.3124 79.884 52.3177 79.8979 52.3201 79.9124L52.3601 79.9424Z" fill="#231F20"/>
    <path d="M110.44 80.8923C111.2 81.0323 111.51 81.6123 111.89 82.0823C112.258 82.5862 112.592 83.1141 112.89 83.6623C113.503 84.7184 114.038 85.8181 114.49 86.9523C115.007 88.0634 115.402 89.2268 115.67 90.4223C115.88 91.6385 115.9 92.8799 115.73 94.1023C115.728 94.1156 115.723 94.1282 115.715 94.1395C115.708 94.1508 115.698 94.1604 115.687 94.1679C115.676 94.1754 115.663 94.1805 115.65 94.183C115.637 94.1855 115.623 94.1852 115.61 94.1823C115.593 94.1822 115.577 94.1775 115.563 94.1687C115.549 94.1598 115.538 94.1472 115.53 94.1323C115.227 93.596 114.973 93.0338 114.77 92.4523C114.54 91.8923 114.39 91.3323 114.21 90.7723C113.84 89.6723 113.82 88.4623 113.46 87.3423C113.103 86.2278 112.648 85.1469 112.1 84.1123C111.8 83.6023 111.49 83.1123 111.16 82.6323C110.77 82.1675 110.499 81.615 110.37 81.0223C110.37 80.9963 110.378 80.971 110.395 80.9508C110.411 80.9307 110.435 80.9171 110.46 80.9123L110.44 80.8923Z" fill="#231F20"/>
    <path d="M104.21 80.2124C104.87 80.3324 105.07 80.8224 105.36 81.2124C105.614 81.6329 105.844 82.0668 106.05 82.5124C106.522 83.3809 106.92 84.2874 107.24 85.2224C107.646 86.1313 107.915 87.095 108.04 88.0824C108.127 89.0996 107.991 90.1235 107.64 91.0824C107.629 91.1085 107.608 91.1294 107.582 91.1405C107.556 91.1517 107.527 91.1524 107.5 91.1424C107.487 91.1385 107.475 91.1321 107.465 91.1235C107.455 91.1149 107.446 91.1043 107.44 91.0924C107.058 90.2101 106.763 89.2923 106.56 88.3524C106.34 87.4624 106.43 86.5124 106.21 85.5924C105.963 84.6887 105.628 83.8112 105.21 82.9724C104.99 82.5524 104.75 82.1524 104.52 81.7524C104.208 81.3607 104.042 80.873 104.05 80.3724C104.055 80.3442 104.07 80.3185 104.092 80.3002C104.114 80.2819 104.141 80.272 104.17 80.2724L104.21 80.2124Z" fill="#231F20"/>
    <path d="M72.3001 54.1323C72.8275 54.3595 73.3088 54.6815 73.7201 55.0823C74.1421 55.4286 74.6057 55.7208 75.1001 55.9523C76.1278 56.3548 77.2271 56.542 78.3301 56.5023C79.4057 56.3955 80.4601 56.1327 81.4601 55.7223C82.502 55.3384 83.4797 54.7989 84.3601 54.1223C84.3814 54.1052 84.4079 54.0959 84.4351 54.0959C84.4624 54.0959 84.4888 54.1052 84.5101 54.1223C84.5172 54.1362 84.5208 54.1516 84.5208 54.1673C84.5208 54.1829 84.5172 54.1983 84.5101 54.2123C84.3232 54.8332 84.0087 55.4083 83.5869 55.9008C83.165 56.3933 82.645 56.7923 82.0601 57.0723C80.8785 57.5755 79.5832 57.7517 78.3101 57.5823C77.0701 57.5396 75.8489 57.2648 74.7101 56.7723C74.1302 56.5143 73.5884 56.1778 73.1001 55.7723C72.6501 55.3623 72.1001 54.9423 72.1001 54.1623C72.1026 54.1375 72.1142 54.1146 72.1327 54.0979C72.1512 54.0813 72.1753 54.0721 72.2001 54.0723L72.3001 54.1323Z" fill="#231F20"/>
    <path d="M73.27 45.5925C73.3133 45.0315 73.5135 44.4939 73.8477 44.0413C74.1819 43.5886 74.6366 43.239 75.16 43.0325C76.1472 42.6071 77.2092 42.3827 78.284 42.3724C79.3588 42.3621 80.4249 42.5661 81.42 42.9725C81.9471 43.209 82.4208 43.5498 82.8127 43.9743C83.2045 44.3988 83.5064 44.8982 83.7001 45.4425C83.73 45.5031 83.7456 45.5698 83.7456 45.6375C83.7456 45.7051 83.73 45.7719 83.7001 45.8325C83.1258 46.7418 82.3616 47.5161 81.46 48.1025C80.5344 48.7159 79.4397 49.0236 78.33 48.9825C77.2437 48.9103 76.2017 48.5248 75.33 47.8725C74.4858 47.2713 73.7828 46.4932 73.27 45.5925ZM73.4401 45.5225C74.13 46.1436 74.9128 46.6531 75.7601 47.0325C76.5538 47.3768 77.4159 47.5341 78.28 47.4925C78.6892 47.4914 79.0964 47.4341 79.4901 47.3225C79.8996 47.2235 80.2957 47.0758 80.67 46.8825C81.4566 46.501 82.1418 45.939 82.67 45.2425L82.6 45.6725C82.3105 44.8646 81.714 44.2034 80.9401 43.8325C80.1043 43.4314 79.187 43.2295 78.2601 43.2425C77.3271 43.243 76.4055 43.4478 75.5601 43.8425C74.7855 44.311 74.0732 44.8755 73.4401 45.5225Z" fill="#231F20"/>
    <path d="M97.6598 33.3924C98.0123 33.2822 98.3846 33.2501 98.7508 33.2985C99.1169 33.3468 99.4681 33.4745 99.7798 33.6724C100.383 34.0858 100.875 34.6424 101.21 35.2924C101.833 36.5397 102.197 37.9005 102.28 39.2924C102.467 40.6812 102.317 42.0947 101.84 43.4124C101.586 44.1071 101.179 44.7359 100.65 45.2524C100.075 45.803 99.3156 46.1202 98.5198 46.1424C97.7532 46.1691 96.9925 45.9994 96.3099 45.6493C95.6273 45.2993 95.0455 44.7806 94.6198 44.1424C93.828 42.8929 93.476 41.4147 93.6198 39.9424C93.7078 38.5681 94.0185 37.2171 94.5398 35.9424C94.802 35.285 95.1931 34.6866 95.6899 34.1825C95.9385 33.9259 96.2372 33.7234 96.5675 33.5875C96.8979 33.4516 97.2527 33.3852 97.6098 33.3924H97.6598ZM97.6598 33.5724C97.3603 33.6284 97.0757 33.7462 96.8243 33.9184C96.5729 34.0906 96.3603 34.3134 96.1999 34.5724C95.8785 35.094 95.6454 35.665 95.5099 36.2624C95.2476 37.4912 95.1301 38.7464 95.1598 40.0024C95.1215 40.5976 95.1551 41.1953 95.2599 41.7825C95.3447 42.3419 95.5239 42.8829 95.7898 43.3824C96.0557 43.8648 96.4371 44.2737 96.8998 44.5724C97.3777 44.8615 97.9217 45.0233 98.4798 45.0424C99.0382 44.9931 99.5684 44.7755 100.001 44.4184C100.433 44.0613 100.746 43.5815 100.9 43.0424C101.355 41.8763 101.514 40.615 101.36 39.3725C101.09 36.8725 100.21 34.2024 97.6598 33.5824V33.5724Z" fill="#231F20"/>
    <path d="M59.1601 33.8024C56.6101 34.4224 55.7201 37.1024 55.4501 39.6024C55.3022 40.8417 55.4601 42.0983 55.9101 43.2624C56.0686 43.7988 56.3836 44.2756 56.8147 44.6319C57.2459 44.9882 57.7734 45.2078 58.3301 45.2624C58.8892 45.2469 59.4352 45.0891 59.9164 44.8039C60.3975 44.5187 60.798 44.1155 61.0801 43.6324C61.633 42.5819 61.8758 41.3958 61.7801 40.2124C61.8082 38.9472 61.6738 37.6835 61.3801 36.4524C61.2388 35.8503 60.9916 35.2781 60.6501 34.7624C60.485 34.5012 60.2672 34.2774 60.0106 34.1052C59.754 33.933 59.4644 33.8162 59.1601 33.7624V33.8024ZM59.1601 33.6225C59.5274 33.6 59.8954 33.6552 60.24 33.7844C60.5846 33.9136 60.8981 34.114 61.1601 34.3725C61.6746 34.8741 62.0797 35.4767 62.3501 36.1424C62.8991 37.4124 63.2369 38.7635 63.3501 40.1424C63.3957 40.865 63.352 41.5905 63.2201 42.3024C63.0644 43.0463 62.7655 43.7527 62.3401 44.3824C61.8926 45.0225 61.2924 45.5406 60.5939 45.8899C59.8953 46.2392 59.1206 46.4085 58.3401 46.3824C57.5442 46.3519 56.7868 46.0318 56.2101 45.4824C55.6798 44.9706 55.2728 44.3448 55.0201 43.6525C54.5342 42.3368 54.383 40.921 54.5801 39.5325C54.6627 38.1417 55.0232 36.7816 55.6401 35.5325C55.9762 34.8772 56.4712 34.3167 57.0801 33.9025C57.39 33.7047 57.7395 33.5771 58.104 33.5287C58.4686 33.4804 58.8393 33.5124 59.1901 33.6225H59.1601Z" fill="#231F20"/>
    <defs>
        <radialGradient id="paint0_radial" cx="0" cy="0" r="1" gradientUnits="userSpaceOnUse" gradientTransform="translate(78.0402 92.7322) scale(55.81)">
            <stop offset="0.3" stop-color="white"/>
            <stop offset="0.33" stop-color="#E7F1F8"/>
            <stop offset="0.61" stop-color="#1B75BC"/>
        </radialGradient>
    </defs>
</svg>
