<svg width="66" height="66" viewBox="0 0 66 66" fill="none" xmlns="http://www.w3.org/2000/svg">
    <g filter="url(#filter0_d)">
        <circle cx="33" cy="31" r="25" fill="#FFE6B6"/>
        <circle cx="33" cy="31" r="27.55" stroke="#F6F7FA" stroke-width="5.1"/>
    </g>
    <path d="M33.2955 24.8459L32.3357 18.4503C32.2976 18.1903 32.0745 18 31.8134 18C31.8081 18 31.8018 18 31.7955 18C31.5269 18.0085 31.3081 18.2167 31.287 18.4842L30.824 24.0372C30.7954 24.3797 30.1876 24.3797 30.159 24.0372L29.6971 18.4842C29.6738 18.2104 29.4455 18 29.1707 18C28.8958 18 28.6664 18.2104 28.6442 18.4842L28.1812 24.0372C28.1526 24.3797 27.5448 24.3797 27.5162 24.0372L27.0543 18.4842C27.0321 18.2178 26.8132 18.0095 26.5447 18C26.5384 18 26.5331 18 26.5278 18C26.2667 18 26.0436 18.1903 26.0056 18.4503L25.0468 24.8459C24.7645 26.7202 25.7815 28.5131 27.4961 29.2605L26.68 40.6986C26.6314 41.3867 26.8725 42.0707 27.3429 42.576C27.8122 43.0813 28.4772 43.3709 29.1685 43.3709H29.1727C29.8631 43.3709 30.529 43.0813 30.9994 42.576C31.4698 42.0707 31.7109 41.3867 31.6623 40.6985L30.8462 29.2605C32.5608 28.5131 33.5778 26.7202 33.2955 24.8459Z" fill="#434A52"/>
    <path d="M41.1037 18.0964C40.9642 17.9971 40.7845 17.9738 40.6227 18.0298C40.5773 18.0457 36.0422 19.7117 36.0422 24.8705C36.0422 28.5841 37.2505 30.4595 37.9302 31.2206L37.2537 31.8971C37.167 31.9838 37.1131 32.0969 37.1015 32.2185L36.2653 40.5814C36.1934 41.2928 36.427 42.0053 36.9069 42.536C37.3869 43.0667 38.0751 43.3701 38.7897 43.3701C40.1883 43.3701 41.3268 42.2316 41.3268 40.833V18.5277C41.3279 18.3554 41.2444 18.1958 41.1037 18.0964Z" fill="#434A52"/>
    <defs>
        <filter id="filter0_d" x="0.900024" y="0.900024" width="64.2" height="64.2" filterUnits="userSpaceOnUse" color-interpolation-filters="sRGB">
            <feFlood flood-opacity="0" result="BackgroundImageFix"/>
            <feColorMatrix in="SourceAlpha" type="matrix" values="0 0 0 0 0 0 0 0 0 0 0 0 0 0 0 0 0 0 127 0"/>
            <feOffset dy="2"/>
            <feGaussianBlur stdDeviation="1"/>
            <feColorMatrix type="matrix" values="0 0 0 0 0 0 0 0 0 0 0 0 0 0 0 0 0 0 0.25 0"/>
            <feBlend mode="normal" in2="BackgroundImageFix" result="effect1_dropShadow"/>
            <feBlend mode="normal" in="SourceGraphic" in2="effect1_dropShadow" result="shape"/>
        </filter>
    </defs>
</svg>
