<svg width="66" height="66" viewBox="0 0 66 66" fill="none" xmlns="http://www.w3.org/2000/svg">
    <g filter="url(#filter0_d)">
        <circle cx="33" cy="31" r="25" fill="#FFE6B6"/>
        <circle cx="33" cy="31" r="27.55" stroke="#F6F7FA" stroke-width="5.1"/>
    </g>
    <g clip-path="url(#clip0)" transform="translate(17,15)">
        <path d="M31.0625 26.1235H23.5625C23.0447 26.1235 22.625 26.5432 22.625 27.061C22.625 27.5786 23.0447 27.9985 23.5625 27.9985H31.0625C31.5803 27.9985 32 27.5786 32 27.061C32 26.5432 31.5803 26.1235 31.0625 26.1235Z" fill="#434A54"/>
        <path d="M31.0625 22.3735H27.3125C26.7947 22.3735 26.375 22.7932 26.375 23.311C26.375 23.8286 26.7947 24.2485 27.3125 24.2485H31.0625C31.5803 24.2485 32 23.8286 32 23.311C32 22.7932 31.5803 22.3735 31.0625 22.3735Z" fill="#434A54"/>
        <path d="M32 13.624C32 13.384 31.9084 13.1442 31.7253 12.9611L29.7366 10.9724L14.6729 26.0363C14.4968 26.2121 14.2585 26.311 14.0098 26.311H0V26.6235C0 28.5187 1.54199 30.061 3.4375 30.061H14.0098C15.262 30.061 16.439 29.5734 17.3245 28.6879L31.7253 14.287C31.9084 14.1039 32 13.864 32 13.624Z" fill="#434A54"/>
        <path d="M7.92131 14.0686C7.4301 13.905 6.89934 14.1704 6.73552 14.6616C6.5717 15.1528 6.83733 15.6835 7.32854 15.8474L7.7033 15.9724L8.61126 14.2985L7.92131 14.0686Z" fill="#434A54"/>
        <path d="M9.79631 10.9436C9.3051 10.78 8.77434 11.0454 8.61052 11.5366C8.4467 12.0278 8.71233 12.5585 9.20354 12.7224L9.42595 12.7966L10.3339 11.1228L9.79631 10.9436Z" fill="#434A54"/>
        <path d="M28.4109 9.64673L21.5159 2.75171C20.5137 1.74951 18.8828 1.74951 17.8806 2.75171C17.5264 3.10596 17.2842 3.55664 17.1799 4.05518C16.6438 6.62354 14.5381 8.59424 11.9404 8.95898C11.646 9.00024 11.3884 9.17896 11.2466 9.44043L10.334 11.1228L13.5464 12.1936C14.0376 12.3574 14.303 12.8884 14.1394 13.3794C14.0085 13.7722 13.6426 14.0208 13.25 14.0208C13.1519 14.0208 13.0518 14.0051 12.9534 13.9724L9.42603 12.7966L8.61108 14.2986L11.6714 15.3186C12.1626 15.4824 12.428 16.0134 12.2644 16.5044C12.1333 16.8972 11.7676 17.1458 11.375 17.1458C11.2769 17.1458 11.1768 17.1301 11.0784 17.0974L7.70312 15.9724L7.06689 17.1455H5.9375C2.66357 17.1455 0 19.8091 0 23.083V24.4358H13.6216L28.4109 9.64673Z" fill="#434A54"/>
    </g>
    <defs>
        <clipPath id="clip0">
            <rect width="32" height="32" fill="white"/>
        </clipPath>
        <filter id="filter0_d" x="0.900024" y="0.900024" width="64.2" height="64.2" filterUnits="userSpaceOnUse" color-interpolation-filters="sRGB">
            <feFlood flood-opacity="0" result="BackgroundImageFix"/>
            <feColorMatrix in="SourceAlpha" type="matrix" values="0 0 0 0 0 0 0 0 0 0 0 0 0 0 0 0 0 0 127 0"/>
            <feOffset dy="2"/>
            <feGaussianBlur stdDeviation="1"/>
            <feColorMatrix type="matrix" values="0 0 0 0 0 0 0 0 0 0 0 0 0 0 0 0 0 0 0.25 0"/>
            <feBlend mode="normal" in2="BackgroundImageFix" result="effect1_dropShadow"/>
            <feBlend mode="normal" in="SourceGraphic" in2="effect1_dropShadow" result="shape"/>
        </filter>
    </defs>
</svg>
