<svg width="201" height="206" viewBox="0 0 201 206" fill="none" xmlns="http://www.w3.org/2000/svg">
    <path d="M200.15 81.3487C200.15 77.7767 197.273 74.8823 193.725 74.8823H184.636V12.1752C184.636 10.9417 183.642 9.94447 182.419 9.94447H177.655V4.19046C177.655 1.87634 175.786 0 173.479 0H27.8765C25.5693 0 23.6999 1.87634 23.6999 4.19046V23.2385C23.6304 23.2246 23.5609 23.2107 23.4914 23.1968V9.94447H18.7346C17.5081 9.94447 16.5109 10.9452 16.5109 12.1822V74.8823H7.42812C3.87702 74.8823 1 77.7802 1 81.3522V85.5009H10.6873C9.49901 123.854 10.048 163.868 12.2231 205.203H21.8167L22.5046 151.658H30.5346L31.636 200.533H41.3303L42.6229 151.658H158.513L159.816 200.898H169.51L170.619 151.658H178.642L179.33 205.203H188.923C191.099 163.868 191.651 123.854 190.459 85.5009H200.146V81.3487H200.15ZM23.4949 142.322V141.776C24.103 142.124 24.8014 142.322 25.5519 142.322H23.4949ZM177.659 141.884V142.322H175.81C176.474 142.322 177.099 142.162 177.659 141.884Z" fill="#443833"/>
    <path d="M172.544 110.737H28.8633C26.5874 110.737 24.7423 108.892 24.7423 106.616V6.68528C24.7423 4.40938 26.5874 2.5643 28.8633 2.5643H172.544C174.82 2.5643 176.665 4.40938 176.665 6.68528V106.616C176.665 108.892 174.82 110.737 172.544 110.737Z" fill="url(#paint0_linear)" stroke="#787F70" stroke-width="4" stroke-miterlimit="10" stroke-linecap="round"/>
    <path d="M176.14 7.48096V107.409C176.14 109.685 174.295 111.53 172.019 111.53H28.3386C26.0627 111.53 24.2177 109.685 24.2177 107.409V7.48096C24.2177 5.20506 26.0627 3.36002 28.3386 3.36002H172.019C174.295 3.36002 176.14 5.20506 176.14 7.48096Z" fill="#3DBCC9"/>
    <path d="M176.14 51.7134V107.409C176.14 109.685 174.295 111.53 172.019 111.53H28.3386C26.0627 111.53 24.2177 109.685 24.2177 107.409V54.024C33.0294 49.8788 49.0893 45.6675 98.9124 45.6675C139.343 45.6675 162.676 48.4472 176.14 51.7134Z" fill="#8DC050"/>
    <path opacity="0.58" d="M165.292 107.937C158.603 82.7802 157.009 55.0073 158.808 25.4936C148.277 28.1829 137.895 30.3234 127.676 31.8731C127.769 29.7883 127.877 27.693 128.006 25.5909C110.233 30.1322 92.8804 33.1135 76.0074 34.3053C71.7023 34.01 67.4319 33.586 63.2033 33.0127C63.3353 33.6277 63.4604 34.2393 63.589 34.8543C52.9843 35.0419 42.5812 34.4825 32.4005 33.11C37.0322 54.4931 39.3567 76.0603 39.3776 97.8082C39.381 103.712 39.2212 109.625 38.8842 115.553C49.197 113.42 59.5445 111.717 69.9268 110.442C69.8607 112.113 69.7808 113.785 69.687 115.456C89.84 111.283 110.125 108.757 130.539 107.871C131.856 107.919 133.172 107.972 134.489 108.034C134.462 107.93 134.437 107.826 134.409 107.721C144.67 107.377 154.966 107.447 165.292 107.937Z" fill="#686A71"/>
    <path d="M175.438 142.812H27.1642C24.8883 142.812 23.0432 140.967 23.0432 138.691V110.22C23.0432 107.944 24.8883 106.099 27.1642 106.099H175.438C177.714 106.099 179.559 107.944 179.559 110.22V138.691C179.556 140.967 177.714 142.812 175.438 142.812Z" fill="#9DD154"/>
    <path d="M174.841 142.444H26.5665C24.2906 142.444 22.4456 140.599 22.4456 138.323V109.851C22.4456 107.575 24.2906 105.73 26.5665 105.73H174.841C177.116 105.73 178.962 107.575 178.962 109.851V138.323C178.958 140.599 177.116 142.444 174.841 142.444Z" fill="url(#paint1_linear)" stroke="#8F8279" stroke-width="3" stroke-miterlimit="10" stroke-linecap="round" stroke-linejoin="round"/>
    <path d="M183.552 151.266H176.665V12.342H181.359C182.572 12.342 183.552 13.3253 183.552 14.5345V151.266Z" fill="#878B8E" stroke="#4B525A" stroke-miterlimit="10"/>
    <path d="M17.6471 151.266H24.5338V12.342H19.8396C18.6269 12.342 17.6471 13.3253 17.6471 14.5345V151.266Z" fill="#878B8E" stroke="#4B525A" stroke-miterlimit="10"/>
    <path d="M32.5742 199.657H42.1399L43.4255 151.266H31.4797L32.5742 199.657Z" fill="url(#paint2_linear)"/>
    <path d="M168.628 200.015H159.059L157.777 151.624H169.722L168.628 200.015Z" fill="url(#paint3_linear)"/>
    <path d="M178.958 142.444H22.4456V151.62H178.958V142.444Z" fill="#65686B"/>
    <path d="M117.106 107.381C85.1388 103.343 53.172 103.343 21.2051 107.381C22.0043 101.498 22.6297 95.6156 23.0884 89.7296C24.7736 68.0477 24.1447 46.3658 21.2051 24.684C50.8926 31.0912 83.0366 30.5874 117.106 24.684C112.999 53.9649 112.411 81.7761 117.106 107.381Z" fill="white" stroke="#C2B4B4" stroke-width="4" stroke-miterlimit="10" stroke-linecap="round"/>
    <path d="M26.0696 27.4637C26.0696 27.4637 57.689 36.8453 91.0457 29.896C91.0457 29.896 51.0872 39.9725 36.4936 35.8029C21.9 31.6333 26.0696 27.4637 26.0696 27.4637Z" fill="#E0DFD9"/>
    <path d="M117.106 107.381C85.1388 103.343 53.172 103.343 21.2051 107.381C22.0043 101.498 22.6297 95.6156 23.0884 89.7296C23.0884 89.7296 35.7987 101.821 73.6724 102.169C111.546 102.516 117.106 107.381 117.106 107.381Z" fill="#E0DFD9"/>
    <path d="M148.951 105.022C149.35 108.024 149.823 110.998 150.362 113.944C149.952 113.892 149.538 113.84 149.128 113.792C141.487 112.85 133.85 112.141 126.209 111.665C102.293 110.164 78.3771 110.925 54.4611 113.944C54.5618 113.208 54.6591 112.475 54.7529 111.738C54.8433 111.026 54.9336 110.313 55.0205 109.598C55.0239 109.577 55.024 109.556 55.0274 109.532C55.0969 108.965 55.1664 108.395 55.229 107.826C55.2429 107.725 55.2533 107.624 55.2637 107.52C55.3262 106.971 55.3888 106.422 55.4479 105.869C55.5312 105.108 55.6112 104.351 55.6876 103.59C55.7675 102.829 55.8405 102.068 55.91 101.307C55.9552 100.831 56.0003 100.359 56.042 99.8825C56.1011 99.2571 56.1532 98.6282 56.2053 97.9993C56.254 97.4294 56.2991 96.863 56.3443 96.2932C56.3756 95.8901 56.4069 95.4871 56.4347 95.0875C56.7265 91.1507 56.942 87.2139 57.0775 83.2771C57.1887 80.0874 57.2512 76.9011 57.2616 73.7114C57.2755 70.3653 57.2338 67.0192 57.1331 63.6731C57.0149 59.6251 56.8169 55.5806 56.5354 51.5327C56.2922 47.9955 55.9864 44.4583 55.6181 40.9211C55.2846 37.6966 54.8989 34.4721 54.4611 31.2476C77.7586 36.2755 102.568 37.0468 128.631 34.2949C133.979 33.7285 139.382 33.0162 144.833 32.158C146.668 31.8731 148.513 31.5673 150.362 31.2476C149.903 34.5103 149.489 37.7522 149.125 40.9767C148.61 45.452 148.19 49.8857 147.867 54.2811C147.533 58.7356 147.3 63.1485 147.172 67.5161C147.057 71.4737 147.026 75.3931 147.088 79.2778C147.165 84.1875 147.384 89.0381 147.763 93.8192C148.058 97.5962 148.454 101.331 148.951 105.022Z" fill="#F4F0EB" stroke="#ABA19A" stroke-width="2" stroke-miterlimit="10" stroke-linecap="round" stroke-linejoin="round"/>
    <path d="M150.362 31.2476C149.903 34.5103 149.489 37.7522 149.125 40.9767C140.115 43.461 122.811 47.0121 103.554 47.9642C83.9574 48.9336 65.2012 44.0031 55.6181 40.9211C55.2846 37.6966 54.8989 34.4721 54.4611 31.2476C84.1485 37.6549 116.293 37.1511 150.362 31.2476Z" fill="#66D3B4"/>
    <path d="M147.867 54.2811C147.533 58.7356 147.3 63.1484 147.172 67.5161C134.903 70.2333 111.595 73.7739 92.4356 71.5919C76.3618 69.7607 64.336 66.2617 57.1331 63.6731C57.0149 59.6251 56.8169 55.5806 56.5354 51.5327C65.8927 54.3332 87.2201 60.1255 103.554 60.1255C117.759 60.1255 136.651 56.6508 147.867 54.2811Z" fill="#66D3B4"/>
    <path d="M147.763 93.8192C136.348 95.4662 106.956 96.5434 85.4863 90.0075C70.2812 85.3793 61.6084 83.7983 57.0775 83.2771C57.1887 80.0874 57.2512 76.9011 57.2616 73.7114C68.7871 76.4355 100.049 83.4057 118.496 83.4057C129.302 83.4057 139.416 81.4008 147.088 79.2778C147.165 84.1875 147.384 89.0381 147.763 93.8192Z" fill="#66D3B4"/>
    <path d="M150.362 113.944C118.395 109.907 86.4279 109.907 54.4611 113.944C54.5618 113.208 54.6591 112.475 54.7529 111.738C54.8433 111.026 54.9336 110.313 55.0205 109.598C55.0239 109.577 55.024 109.556 55.0274 109.532C55.0969 108.965 55.1629 108.395 55.229 107.826C55.2429 107.725 55.2533 107.624 55.2637 107.52C55.3262 106.971 55.3888 106.422 55.4479 105.869C55.5312 105.108 55.6112 104.351 55.6876 103.59C55.7675 102.829 55.8405 102.068 55.91 101.307C55.9552 100.831 56.0003 100.359 56.042 99.8825C56.1011 99.2571 56.1532 98.6281 56.2053 97.9992C56.254 97.4294 56.2991 96.863 56.3443 96.2932C56.3756 95.8901 56.4069 95.4871 56.4347 95.0875C57.1192 95.4836 57.901 95.9283 58.7314 96.2619C67.974 98.239 80.2743 102.516 92.4356 104.949C104.597 107.381 133.926 108.243 148.951 105.022C149.35 108.024 149.823 110.998 150.362 113.944Z" fill="#66D3B4"/>
    <path opacity="0.16" d="M59.3256 34.0273C59.3256 34.0273 90.945 43.4089 124.302 36.4596C124.302 36.4596 84.3431 46.5361 69.7496 42.3665C55.156 38.1969 59.3256 34.0273 59.3256 34.0273Z" fill="#42454E"/>
    <path opacity="0.16" d="M150.362 113.944C118.395 109.907 86.4279 109.907 54.4611 113.944C54.5618 113.208 54.6591 112.475 54.7529 111.738C54.8433 111.026 54.9336 110.313 55.0205 109.598C55.0239 109.577 55.024 109.556 55.0274 109.532C55.0969 108.965 55.1629 108.395 55.229 107.826C55.2429 107.725 55.2533 107.624 55.2637 107.52C55.3262 106.971 55.3888 106.422 55.4479 105.869C55.5312 105.108 55.6112 104.351 55.6876 103.59C55.7675 102.829 55.8405 102.068 55.91 101.307C55.9586 100.835 56.0003 100.359 56.042 99.8825C56.1011 99.2571 56.1532 98.6282 56.2053 97.9993C56.254 97.4294 56.2991 96.863 56.3443 96.2932C56.3443 96.2932 57.4215 97.3182 59.885 98.781C65.8788 102.339 80.0832 108.486 106.928 108.732C144.802 109.08 150.362 113.944 150.362 113.944Z" fill="#42454E"/>
    <path opacity="0.16" d="M136.508 111.665C137.213 104.403 139.305 82.061 139.149 73.6767C138.958 63.6002 134.694 39.215 137.304 35.7716C137.651 35.313 137.818 34.8126 137.842 34.2949C140.785 33.7285 143.76 33.0162 146.762 32.158C146.397 41.8175 144.621 52.7836 144.899 64.99C145.17 76.7378 148.093 103.899 149.125 113.792C144.92 112.85 140.716 112.141 136.508 111.665Z" fill="#42454E"/>
    <path d="M149.274 104.945C149.674 107.947 150.146 110.922 150.685 113.868C150.275 113.816 149.861 113.764 149.451 113.715C141.81 112.773 134.173 112.065 126.532 111.589C102.616 110.088 78.7003 110.849 54.7842 113.868C54.885 113.131 54.9823 112.398 55.0761 111.662C55.1664 110.949 55.2568 110.237 55.3436 109.521C55.3471 109.5 55.3471 109.479 55.3506 109.455C55.4201 108.889 55.4896 108.319 55.5521 107.749C55.566 107.648 55.5764 107.548 55.5869 107.443C55.6494 106.894 55.712 106.345 55.771 105.793C55.8544 105.032 55.9343 104.274 56.0108 103.514C56.0907 102.753 56.1636 101.992 56.2331 101.231C56.2783 100.755 56.3235 100.282 56.3652 99.8061C56.4242 99.1806 56.4764 98.5517 56.5285 97.9228C56.5771 97.353 56.6223 96.7866 56.6675 96.2167C56.6987 95.8137 56.73 95.4106 56.7578 95.011C57.0497 91.0743 57.2651 87.1375 57.4006 83.2007C57.5118 80.011 57.5744 76.8247 57.5848 73.6349C57.5987 70.2889 57.557 66.9428 57.4562 63.5967C57.3381 59.5487 57.14 55.5042 56.8586 51.4562C56.6153 47.919 56.3096 44.3818 55.9413 40.8446C55.6077 37.6201 55.222 34.3957 54.7842 31.1712C78.0818 36.199 102.891 36.9704 128.954 34.2185C134.302 33.6521 139.705 32.9398 145.157 32.0815C146.991 31.7966 148.836 31.4908 150.685 31.1712C150.226 34.4339 149.813 37.6757 149.448 40.9002C148.934 45.3756 148.513 49.8092 148.19 54.2047C147.856 58.6592 147.624 63.072 147.495 67.4396C147.38 71.3973 147.349 75.3167 147.412 79.2014C147.488 84.111 147.707 88.9617 148.086 93.7428C148.381 97.5197 148.777 101.255 149.274 104.945Z" stroke="#7F7670" stroke-width="2" stroke-miterlimit="10" stroke-linecap="round" stroke-linejoin="round"/>
    <path d="M198.857 86.6024H189.299C190.473 124.295 189.931 163.622 187.784 204.247H178.315L176.8 86.6024H176.665V76.1645H191.62C195.616 76.1645 198.857 79.4029 198.857 83.4022V86.6024Z" fill="url(#paint4_linear)" stroke="#777777" stroke-width="3" stroke-miterlimit="10" stroke-linecap="round" stroke-linejoin="round"/>
    <path d="M24.5373 76.1645V86.6024H24.4018L22.8834 204.247H13.4149C11.2676 163.622 10.7256 124.295 11.9 86.6024H2.3412V83.4057C2.3412 79.4063 5.58305 76.1645 9.58238 76.1645H24.5373Z" fill="url(#paint5_linear)" stroke="#777777" stroke-width="3" stroke-miterlimit="10" stroke-linecap="round" stroke-linejoin="round"/>
    <defs>
        <linearGradient id="paint0_linear" x1="100.703" y1="2.56854" x2="100.703" y2="110.739" gradientUnits="userSpaceOnUse">
            <stop offset="0.4944" stop-color="#B3B3B3"/>
            <stop offset="1" stop-color="#808080"/>
        </linearGradient>
        <linearGradient id="paint1_linear" x1="100.703" y1="105.732" x2="100.703" y2="142.445" gradientUnits="userSpaceOnUse">
            <stop stop-color="#F6F6F6" stop-opacity="0.1"/>
            <stop offset="0.4385" stop-color="#F4F4F4" stop-opacity="0.2"/>
            <stop offset="0.4931" stop-color="#C6C6C6" stop-opacity="0.2097"/>
            <stop offset="0.556" stop-color="#999999" stop-opacity="0.2209"/>
            <stop offset="0.6214" stop-color="#727272" stop-opacity="0.2326"/>
            <stop offset="0.6885" stop-color="#525252" stop-opacity="0.2445"/>
            <stop offset="0.7579" stop-color="#393939" stop-opacity="0.2569"/>
            <stop offset="0.8304" stop-color="#282828" stop-opacity="0.2698"/>
            <stop offset="0.908" stop-color="#1D1D1D" stop-opacity="0.2836"/>
            <stop offset="1" stop-color="#1A1A1A" stop-opacity="0.3"/>
        </linearGradient>
        <linearGradient id="paint2_linear" x1="37.4515" y1="151.265" x2="37.4515" y2="199.659" gradientUnits="userSpaceOnUse">
            <stop offset="0.243" stop-color="#4D4D4D"/>
            <stop offset="0.5609" stop-color="#545454"/>
            <stop offset="1" stop-color="#666666"/>
        </linearGradient>
        <linearGradient id="paint3_linear" x1="163.749" y1="151.623" x2="163.749" y2="200.016" gradientUnits="userSpaceOnUse">
            <stop offset="0.243" stop-color="#4D4D4D"/>
            <stop offset="0.5609" stop-color="#545454"/>
            <stop offset="1" stop-color="#666666"/>
        </linearGradient>
        <linearGradient id="paint4_linear" x1="187.761" y1="76.1645" x2="187.761" y2="204.247" gradientUnits="userSpaceOnUse">
            <stop offset="0.0978" stop-color="#BCBCBC"/>
            <stop offset="0.6306" stop-color="#A4A4A4"/>
            <stop offset="1" stop-color="#999999"/>
        </linearGradient>
        <linearGradient id="paint5_linear" x1="13.4393" y1="76.1645" x2="13.4393" y2="204.247" gradientUnits="userSpaceOnUse">
            <stop offset="0.0978" stop-color="#BCBCBC"/>
            <stop offset="0.6306" stop-color="#A4A4A4"/>
            <stop offset="1" stop-color="#999999"/>
        </linearGradient>
    </defs>
</svg>
