
<svg width="263" height="103" viewBox="0 0 263 103" fill="none" xmlns="http://www.w3.org/2000/svg">
    <path transform="translate(0, -10)" d="M129.922 83.278C131.698 83.278 133.012 83.626 133.864 84.322C134.716 85.006 135.142 85.942 135.142 87.13C135.142 87.886 134.956 88.57 134.584 89.182C134.212 89.794 133.654 90.28 132.91 90.64C132.166 91 131.248 91.18 130.156 91.18C129.256 91.18 128.386 91.054 127.546 90.802C126.706 90.538 125.998 90.178 125.422 89.722L126.412 87.904C126.88 88.288 127.438 88.594 128.086 88.822C128.746 89.038 129.424 89.146 130.12 89.146C130.948 89.146 131.596 88.978 132.064 88.642C132.544 88.294 132.784 87.82 132.784 87.22C132.784 86.572 132.526 86.086 132.01 85.762C131.506 85.426 130.636 85.258 129.4 85.258H126.358L127.006 78.4H134.404V80.362H128.986L128.716 83.278H129.922ZM141.748 91.18C140.74 91.18 139.84 90.928 139.048 90.424C138.256 89.908 137.632 89.164 137.176 88.192C136.72 87.208 136.492 86.044 136.492 84.7C136.492 83.356 136.72 82.198 137.176 81.226C137.632 80.242 138.256 79.498 139.048 78.994C139.84 78.478 140.74 78.22 141.748 78.22C142.756 78.22 143.656 78.478 144.448 78.994C145.252 79.498 145.882 80.242 146.338 81.226C146.794 82.198 147.022 83.356 147.022 84.7C147.022 86.044 146.794 87.208 146.338 88.192C145.882 89.164 145.252 89.908 144.448 90.424C143.656 90.928 142.756 91.18 141.748 91.18ZM141.748 89.146C142.648 89.146 143.356 88.774 143.872 88.03C144.4 87.286 144.664 86.176 144.664 84.7C144.664 83.224 144.4 82.114 143.872 81.37C143.356 80.626 142.648 80.254 141.748 80.254C140.86 80.254 140.152 80.626 139.624 81.37C139.108 82.114 138.85 83.224 138.85 84.7C138.85 86.176 139.108 87.286 139.624 88.03C140.152 88.774 140.86 89.146 141.748 89.146Z" fill="black"/>
    <path transform="translate(0, -10)" d="M27.4923 91.18C26.4843 91.18 25.5843 90.928 24.7923 90.424C24.0003 89.908 23.3763 89.164 22.9203 88.192C22.4643 87.208 22.2363 86.044 22.2363 84.7C22.2363 83.356 22.4643 82.198 22.9203 81.226C23.3763 80.242 24.0003 79.498 24.7923 78.994C25.5843 78.478 26.4843 78.22 27.4923 78.22C28.5003 78.22 29.4003 78.478 30.1923 78.994C30.9963 79.498 31.6263 80.242 32.0823 81.226C32.5383 82.198 32.7663 83.356 32.7663 84.7C32.7663 86.044 32.5383 87.208 32.0823 88.192C31.6263 89.164 30.9963 89.908 30.1923 90.424C29.4003 90.928 28.5003 91.18 27.4923 91.18ZM27.4923 89.146C28.3923 89.146 29.1003 88.774 29.6163 88.03C30.1443 87.286 30.4083 86.176 30.4083 84.7C30.4083 83.224 30.1443 82.114 29.6163 81.37C29.1003 80.626 28.3923 80.254 27.4923 80.254C26.6043 80.254 25.8963 80.626 25.3683 81.37C24.8523 82.114 24.5943 83.224 24.5943 84.7C24.5943 86.176 24.8523 87.286 25.3683 88.03C25.8963 88.774 26.6043 89.146 27.4923 89.146Z" fill="black"/>
    <path transform="translate(-4, -10)" d="M225.109 78.4V91H222.769V80.362H220.105V78.4H225.109ZM232.864 91.18C231.856 91.18 230.956 90.928 230.164 90.424C229.372 89.908 228.748 89.164 228.292 88.192C227.836 87.208 227.608 86.044 227.608 84.7C227.608 83.356 227.836 82.198 228.292 81.226C228.748 80.242 229.372 79.498 230.164 78.994C230.956 78.478 231.856 78.22 232.864 78.22C233.872 78.22 234.772 78.478 235.564 78.994C236.368 79.498 236.998 80.242 237.454 81.226C237.91 82.198 238.138 83.356 238.138 84.7C238.138 86.044 237.91 87.208 237.454 88.192C236.998 89.164 236.368 89.908 235.564 90.424C234.772 90.928 233.872 91.18 232.864 91.18ZM232.864 89.146C233.764 89.146 234.472 88.774 234.988 88.03C235.516 87.286 235.78 86.176 235.78 84.7C235.78 83.224 235.516 82.114 234.988 81.37C234.472 80.626 233.764 80.254 232.864 80.254C231.976 80.254 231.268 80.626 230.74 81.37C230.224 82.114 229.966 83.224 229.966 84.7C229.966 86.176 230.224 87.286 230.74 88.03C231.268 88.774 231.976 89.146 232.864 89.146ZM244.976 91.18C243.968 91.18 243.068 90.928 242.276 90.424C241.484 89.908 240.86 89.164 240.404 88.192C239.948 87.208 239.72 86.044 239.72 84.7C239.72 83.356 239.948 82.198 240.404 81.226C240.86 80.242 241.484 79.498 242.276 78.994C243.068 78.478 243.968 78.22 244.976 78.22C245.984 78.22 246.884 78.478 247.676 78.994C248.48 79.498 249.11 80.242 249.566 81.226C250.022 82.198 250.25 83.356 250.25 84.7C250.25 86.044 250.022 87.208 249.566 88.192C249.11 89.164 248.48 89.908 247.676 90.424C246.884 90.928 245.984 91.18 244.976 91.18ZM244.976 89.146C245.876 89.146 246.584 88.774 247.1 88.03C247.628 87.286 247.892 86.176 247.892 84.7C247.892 83.224 247.628 82.114 247.1 81.37C246.584 80.626 245.876 80.254 244.976 80.254C244.088 80.254 243.38 80.626 242.852 81.37C242.336 82.114 242.078 83.224 242.078 84.7C242.078 86.176 242.336 87.286 242.852 88.03C243.38 88.774 244.088 89.146 244.976 89.146Z" fill="black"/>
    <path d="M44.8399 26.6929C45.7964 26.4009 45.7964 26.4011 45.7965 26.4013L45.7966 26.4017L45.7969 26.4026L45.7975 26.4047L45.7992 26.4103L45.804 26.4266C45.8078 26.4397 45.8128 26.4573 45.8188 26.4788C45.8306 26.5217 45.8462 26.581 45.8633 26.6526C45.897 26.794 45.9387 26.993 45.967 27.2156C45.9947 27.4331 46.0138 27.7049 45.9874 27.9825C45.9624 28.2445 45.8871 28.6209 45.6349 28.9514C45.2989 29.3917 44.8063 29.5033 44.5249 29.5368C44.2142 29.5738 43.9019 29.5465 43.6603 29.5113C43.4091 29.4747 43.1793 29.4212 43.0163 29.3784C42.9334 29.3567 42.8647 29.337 42.8153 29.3222C42.8004 29.3178 42.7872 29.3138 42.7759 29.3103C42.7757 29.3661 42.7753 29.4231 42.7746 29.4811C42.7628 30.481 42.669 31.8339 42.328 33.1902C41.9413 34.7287 40.6809 36.3789 39.1859 37.6293C37.6842 38.8853 35.7401 39.9107 33.822 39.9636C32.0107 40.0135 30.8425 39.5119 30.1167 38.8522C29.9233 38.6764 29.7699 38.497 29.6486 38.3267C29.5925 38.3368 29.534 38.347 29.4734 38.3572C28.9222 38.4501 28.1705 38.5481 27.4314 38.5481C26.69 38.5481 25.9661 38.4496 25.4396 38.3555C25.3935 38.3473 25.3488 38.339 25.3055 38.3309C25.208 38.4497 25.0921 38.5705 24.9546 38.69C24.299 39.2597 23.2126 39.7514 21.4227 39.9574C19.4133 40.1887 17.8337 39.4574 16.5782 38.3338C15.3605 37.2439 14.4153 35.7573 13.6065 34.4031C12.6743 32.8424 12.3893 31.0006 12.3183 29.6203C12.3104 29.4681 12.3052 29.3202 12.302 29.1775C12.1184 29.2563 11.9233 29.3253 11.7216 29.3744C11.2864 29.4804 10.7122 29.5183 10.1616 29.2318C9.15831 28.7099 8.99016 27.7232 9.00047 27.1255C9.00583 26.8146 9.05589 26.5391 9.10133 26.3472C9.12453 26.2492 9.1478 26.1678 9.16623 26.1081C9.17548 26.0782 9.18362 26.0534 9.19007 26.0344L9.19843 26.0102L9.20156 26.0014L9.20283 25.9979L9.2034 25.9963L9.20366 25.9956C9.20379 25.9953 9.20391 25.9949 10.1429 26.3389M44.8399 26.6929L45.7964 26.4009L45.7748 26.3305L45.7433 26.2639L44.8399 26.6929ZM44.8399 26.6929C45.7433 26.2639 45.7432 26.2638 45.7431 26.2637L45.743 26.2634L45.7426 26.2626L45.7416 26.2604L45.7384 26.2537L45.7275 26.2311C45.7182 26.212 45.705 26.1852 45.6883 26.1514C45.6547 26.0841 45.6066 25.9891 45.5462 25.8747C45.4261 25.6469 45.2545 25.3361 45.0504 25.0092C44.8486 24.6859 44.6025 24.3265 44.3313 24.0118C44.0793 23.7192 43.7223 23.365 43.2808 23.177C42.8463 22.992 42.4769 22.8211 42.217 22.697C42.2107 22.694 42.2045 22.691 42.1984 22.688C42.1575 22.548 42.108 22.3809 42.052 22.1975C41.8922 21.6738 41.6728 20.9943 41.4476 20.4253C41.1978 19.7939 40.8756 19.3247 40.6012 19.0029C40.7144 18.6851 40.8557 18.266 40.9933 17.7969C41.284 16.8066 41.6062 15.4399 41.5143 14.3386C41.4365 13.4057 41.3126 12.5237 41.2087 11.8775C41.1567 11.5535 41.1094 11.2867 41.0748 11.0999C41.0576 11.0065 41.0435 10.9329 41.0336 10.8821L41.022 10.8233L41.0188 10.8073L41.0179 10.8028L41.0176 10.8014L41.0175 10.8009L41.0175 10.8007C41.0175 10.8007 41.0175 10.8006 40.0376 11M40.0376 11L41.0175 10.8006L40.8546 10H40.0376V11ZM40.0376 11C40.0376 10 40.0374 10 40.0372 10L40.0369 10L40.0358 10L40.0329 10L40.0233 10L39.9899 10.0003C39.9614 10.0005 39.9207 10.001 39.869 10.002C39.7656 10.004 39.618 10.0079 39.4357 10.0156C39.0718 10.0311 38.5662 10.0619 37.9972 10.1239C36.8932 10.244 35.4221 10.4933 34.3083 11.0492L34.7519 11.9377L34.3083 11.0492C33.2856 11.5597 32.4754 12.1331 31.9188 12.5803C31.7961 12.6788 31.6854 12.7716 31.587 12.8565C31.4111 12.7809 31.2038 12.701 30.9641 12.6229C30.1111 12.3449 28.8594 12.0924 27.1725 12.124C25.5045 12.1552 24.2976 12.4058 23.4844 12.6652C23.2596 12.737 23.0654 12.8092 22.9005 12.8773C22.7572 12.766 22.5863 12.641 22.387 12.5073C21.6907 12.0402 20.6492 11.4676 19.2217 10.9947C17.8342 10.535 16.8072 10.3211 16.1077 10.2235C15.758 10.1746 15.4903 10.1549 15.3005 10.1481C15.2056 10.1447 15.1303 10.1446 15.074 10.1456C15.0458 10.1461 15.0224 10.1469 15.0038 10.1478L14.9793 10.149L14.9697 10.1496L14.9655 10.1499L14.9636 10.1501L14.9627 10.1501C14.9623 10.1502 14.9618 10.1502 15.0353 11.1475M15.0353 11.1475L14.9618 10.1502L14.4473 10.1881L14.18 10.6294L15.0353 11.1475ZM15.0353 11.1475C14.18 10.6294 14.1797 10.6298 14.1795 10.6302L14.179 10.6311L14.1779 10.6329L14.1756 10.6368L14.1701 10.646L14.1562 10.6702C14.1457 10.6889 14.1326 10.7126 14.1175 10.7415C14.0872 10.7992 14.0485 10.8774 14.0044 10.9765C13.9162 11.1747 13.8067 11.4559 13.6999 11.8233C13.486 12.5592 13.285 13.634 13.285 15.0707C13.285 16.5887 13.6761 17.7845 14.0755 18.6081C14.1841 18.8319 14.2934 19.0285 14.3957 19.1969C14.1721 19.4729 13.9011 19.8301 13.629 20.2445C13.2619 20.8038 12.9598 21.5445 12.7602 22.0913C12.7034 22.2471 12.6526 22.3935 12.6088 22.524C12.5082 22.5484 12.3996 22.5768 12.2867 22.6097C12.0315 22.6841 11.7347 22.7869 11.4493 22.9272C11.1736 23.0626 10.8474 23.2624 10.5899 23.5577C10.2302 23.9701 9.88185 24.6024 9.65079 25.0529C9.52742 25.2934 9.42246 25.5124 9.34835 25.6712C9.31119 25.7508 9.2815 25.8159 9.26084 25.8617L9.23674 25.9154L9.23009 25.9305L9.22817 25.9348L9.22757 25.9362L9.22736 25.9366L9.22728 25.9368C9.22724 25.9369 9.22721 25.937 10.1429 26.3389M10.1429 26.3389L9.22721 25.937L9.21466 25.9656L9.20391 25.9949L10.1429 26.3389ZM42.7756 29.1491C42.7756 29.149 42.7756 29.1489 42.7756 29.1488L43.039 28.3447C42.8944 28.7861 42.8171 29.0225 42.7756 29.1491Z" fill="#434A52" stroke="#FEFEFE" stroke-width="2"/>
    <mask id="path-7-outside-1" maskUnits="userSpaceOnUse" x="121" y="6" width="29" height="49" fill="black">
        <rect fill="white" x="121" y="6" width="29" height="49"/>
        <path d="M123.071 18.2366C122.938 19.1285 122.938 20.4887 123.56 20.3549C124.182 20.2211 124.116 20.2211 124.116 20.2211C124.019 21.0982 123.827 22.8746 123.827 22.9638C123.827 23.053 124.005 24.3909 124.427 24.7253C124.849 25.0598 125.249 25.2159 125.65 24.9706C126.05 24.7253 126.05 24.2348 126.05 24.2348C126.05 24.2348 127.361 25.8848 127.939 26.1747C128.517 26.4646 130.406 27.1335 130.495 27.1335C130.584 27.1335 129.517 27.4011 128.85 27.8917C128.184 28.3822 126.516 31.6601 126.516 31.6601L126.939 32.3067C126.939 32.3067 126.805 33.1763 126.672 33.9122C126.539 34.648 126.672 36.7663 126.516 37.6805C126.361 38.5948 126.072 38.6394 126.05 39.3083C126.027 39.9772 126.672 40.2671 127.072 40.5793C127.472 40.8915 128.072 41.0921 128.339 40.9584C128.606 40.8246 128.984 39.9104 128.984 39.9104C128.984 39.9104 129.117 38.84 128.984 38.6394C128.851 38.4387 128.606 38.2826 128.606 38.2826V37.9481C128.606 37.6805 128.139 37.4799 128.139 37.4799V36.7663C128.139 36.142 129.517 33.6892 129.517 33.6892V38.84L130.473 44.0801L131.296 44.5261C131.429 45.0092 131.696 45.9977 131.696 46.0869C131.696 46.1761 130.829 46.5775 130.584 46.7782C130.34 46.9788 130.984 48.0937 130.984 48.0937C130.984 48.0937 130.473 49.2087 130.14 49.4316C129.806 49.6546 129.073 49.8107 128.539 50.1452C128.006 50.4796 127.872 51.2378 128.295 51.7506C128.717 52.2635 129.251 52.754 130.384 52.7986C131.518 52.8432 132.496 51.8621 132.829 51.7506C133.163 51.6391 132.741 51.1932 133.163 51.0148C133.585 50.8364 133.941 50.9925 134.363 50.881C134.785 50.7695 134.897 50.4127 135.074 49.8107C135.252 49.2087 134.919 48.2498 134.919 48.2498C134.919 48.2498 135.297 47.0234 134.785 46.5775C134.274 46.1315 134.141 46.2207 134.141 46.2207V44.7267L134.785 44.3254L135.074 41.6273H135.764L136.186 44.3254L136.875 44.5261V46.2207C136.875 46.2207 136.186 46.3545 136.03 46.7782C135.875 47.2018 136.03 47.7816 136.03 48.2498C136.03 48.7181 135.764 49.2087 135.764 49.2087C135.764 49.2087 135.83 49.8776 136.186 50.3459C136.542 50.8141 137.697 50.6134 137.897 51.0148C138.097 51.4162 138.164 52.0851 138.32 52.2858C138.475 52.4865 139.72 53.0216 140.365 52.9993C141.009 52.977 142.743 52.2189 142.943 51.7506C143.143 51.2824 143.188 50.5242 142.943 50.1452C142.699 49.7661 142.076 49.8107 141.521 49.6992C140.965 49.5877 140.365 48.0937 140.365 48.0937C140.365 48.0937 140.543 47.3579 140.365 47.0234C140.187 46.689 139.565 46.5775 139.565 46.5775V44.5261L140.365 44.0801L141.521 36.7663V33.5554L142.232 35.5176L142.943 37.4799C142.943 37.4799 142.743 37.9927 142.476 38.2603C142.21 38.5279 142.121 39.4867 142.121 39.4867C142.121 39.4867 141.899 40.78 142.943 40.9584C143.988 41.1367 144.988 39.9326 144.81 39.4867C144.633 39.0407 144.299 37.5022 144.299 37.0562V34.3804C144.299 33.7338 143.832 32.3067 143.832 32.3067L144.633 31.504C144.633 31.504 142.943 28.962 142.232 28.1147C141.521 27.2673 140.365 26.866 140.365 26.866L142.232 25.8848L144.633 24.4578C144.633 24.4578 145.344 25.3051 146.055 24.9929C146.767 24.6808 147.078 24.3017 147.122 23.0307C147.167 21.7597 146.767 19.9982 146.767 19.9982C146.767 19.9982 147.278 20.7117 147.656 20.3549C148.034 19.9982 148.189 18.3035 147.656 17.2332C147.122 16.1629 146.055 15.0926 146.055 15.0926L147.478 10.789C147.478 10.789 148.256 9.0275 147.122 8.22476C145.989 7.42203 142.943 9.0275 142.943 9.0275L140.632 10.3877C140.632 10.3877 139.253 10.1201 138.498 9.91942C137.742 9.71874 136.453 9.91942 136.453 9.91942C136.453 9.91942 136.141 9.47346 135.586 9.47346C135.03 9.47346 134.674 9.91942 134.674 9.91942C134.674 9.91942 134.23 9.69644 133.963 9.69644C133.696 9.69644 132.362 10.0532 131.918 10.187C131.473 10.3208 130.429 10.187 130.429 10.187C130.429 10.187 129.006 9.0275 127.117 8.51464C125.227 8.00179 123.56 8.22476 123.56 8.22476C123.56 8.22476 123.071 10.3654 123.56 12.06C124.049 13.7547 124.716 15.0926 124.716 15.0926C124.716 15.0926 123.204 17.3447 123.071 18.2366Z"/>
    </mask>
    <path d="M123.071 18.2366C122.938 19.1285 122.938 20.4887 123.56 20.3549C124.182 20.2211 124.116 20.2211 124.116 20.2211C124.019 21.0982 123.827 22.8746 123.827 22.9638C123.827 23.053 124.005 24.3909 124.427 24.7253C124.849 25.0598 125.249 25.2159 125.65 24.9706C126.05 24.7253 126.05 24.2348 126.05 24.2348C126.05 24.2348 127.361 25.8848 127.939 26.1747C128.517 26.4646 130.406 27.1335 130.495 27.1335C130.584 27.1335 129.517 27.4011 128.85 27.8917C128.184 28.3822 126.516 31.6601 126.516 31.6601L126.939 32.3067C126.939 32.3067 126.805 33.1763 126.672 33.9122C126.539 34.648 126.672 36.7663 126.516 37.6805C126.361 38.5948 126.072 38.6394 126.05 39.3083C126.027 39.9772 126.672 40.2671 127.072 40.5793C127.472 40.8915 128.072 41.0921 128.339 40.9584C128.606 40.8246 128.984 39.9104 128.984 39.9104C128.984 39.9104 129.117 38.84 128.984 38.6394C128.851 38.4387 128.606 38.2826 128.606 38.2826V37.9481C128.606 37.6805 128.139 37.4799 128.139 37.4799V36.7663C128.139 36.142 129.517 33.6892 129.517 33.6892V38.84L130.473 44.0801L131.296 44.5261C131.429 45.0092 131.696 45.9977 131.696 46.0869C131.696 46.1761 130.829 46.5775 130.584 46.7782C130.34 46.9788 130.984 48.0937 130.984 48.0937C130.984 48.0937 130.473 49.2087 130.14 49.4316C129.806 49.6546 129.073 49.8107 128.539 50.1452C128.006 50.4796 127.872 51.2378 128.295 51.7506C128.717 52.2635 129.251 52.754 130.384 52.7986C131.518 52.8432 132.496 51.8621 132.829 51.7506C133.163 51.6391 132.741 51.1932 133.163 51.0148C133.585 50.8364 133.941 50.9925 134.363 50.881C134.785 50.7695 134.897 50.4127 135.074 49.8107C135.252 49.2087 134.919 48.2498 134.919 48.2498C134.919 48.2498 135.297 47.0234 134.785 46.5775C134.274 46.1315 134.141 46.2207 134.141 46.2207V44.7267L134.785 44.3254L135.074 41.6273H135.764L136.186 44.3254L136.875 44.5261V46.2207C136.875 46.2207 136.186 46.3545 136.03 46.7782C135.875 47.2018 136.03 47.7816 136.03 48.2498C136.03 48.7181 135.764 49.2087 135.764 49.2087C135.764 49.2087 135.83 49.8776 136.186 50.3459C136.542 50.8141 137.697 50.6134 137.897 51.0148C138.097 51.4162 138.164 52.0851 138.32 52.2858C138.475 52.4865 139.72 53.0216 140.365 52.9993C141.009 52.977 142.743 52.2189 142.943 51.7506C143.143 51.2824 143.188 50.5242 142.943 50.1452C142.699 49.7661 142.076 49.8107 141.521 49.6992C140.965 49.5877 140.365 48.0937 140.365 48.0937C140.365 48.0937 140.543 47.3579 140.365 47.0234C140.187 46.689 139.565 46.5775 139.565 46.5775V44.5261L140.365 44.0801L141.521 36.7663V33.5554L142.232 35.5176L142.943 37.4799C142.943 37.4799 142.743 37.9927 142.476 38.2603C142.21 38.5279 142.121 39.4867 142.121 39.4867C142.121 39.4867 141.899 40.78 142.943 40.9584C143.988 41.1367 144.988 39.9326 144.81 39.4867C144.633 39.0407 144.299 37.5022 144.299 37.0562V34.3804C144.299 33.7338 143.832 32.3067 143.832 32.3067L144.633 31.504C144.633 31.504 142.943 28.962 142.232 28.1147C141.521 27.2673 140.365 26.866 140.365 26.866L142.232 25.8848L144.633 24.4578C144.633 24.4578 145.344 25.3051 146.055 24.9929C146.767 24.6808 147.078 24.3017 147.122 23.0307C147.167 21.7597 146.767 19.9982 146.767 19.9982C146.767 19.9982 147.278 20.7117 147.656 20.3549C148.034 19.9982 148.189 18.3035 147.656 17.2332C147.122 16.1629 146.055 15.0926 146.055 15.0926L147.478 10.789C147.478 10.789 148.256 9.0275 147.122 8.22476C145.989 7.42203 142.943 9.0275 142.943 9.0275L140.632 10.3877C140.632 10.3877 139.253 10.1201 138.498 9.91942C137.742 9.71874 136.453 9.91942 136.453 9.91942C136.453 9.91942 136.141 9.47346 135.586 9.47346C135.03 9.47346 134.674 9.91942 134.674 9.91942C134.674 9.91942 134.23 9.69644 133.963 9.69644C133.696 9.69644 132.362 10.0532 131.918 10.187C131.473 10.3208 130.429 10.187 130.429 10.187C130.429 10.187 129.006 9.0275 127.117 8.51464C125.227 8.00179 123.56 8.22476 123.56 8.22476C123.56 8.22476 123.071 10.3654 123.56 12.06C124.049 13.7547 124.716 15.0926 124.716 15.0926C124.716 15.0926 123.204 17.3447 123.071 18.2366Z" fill="#434A52"/>
    <path d="M123.071 18.2366C122.938 19.1285 122.938 20.4887 123.56 20.3549C124.182 20.2211 124.116 20.2211 124.116 20.2211C124.019 21.0982 123.827 22.8746 123.827 22.9638C123.827 23.053 124.005 24.3909 124.427 24.7253C124.849 25.0598 125.249 25.2159 125.65 24.9706C126.05 24.7253 126.05 24.2348 126.05 24.2348C126.05 24.2348 127.361 25.8848 127.939 26.1747C128.517 26.4646 130.406 27.1335 130.495 27.1335C130.584 27.1335 129.517 27.4011 128.85 27.8917C128.184 28.3822 126.516 31.6601 126.516 31.6601L126.939 32.3067C126.939 32.3067 126.805 33.1763 126.672 33.9122C126.539 34.648 126.672 36.7663 126.516 37.6805C126.361 38.5948 126.072 38.6394 126.05 39.3083C126.027 39.9772 126.672 40.2671 127.072 40.5793C127.472 40.8915 128.072 41.0921 128.339 40.9584C128.606 40.8246 128.984 39.9104 128.984 39.9104C128.984 39.9104 129.117 38.84 128.984 38.6394C128.851 38.4387 128.606 38.2826 128.606 38.2826V37.9481C128.606 37.6805 128.139 37.4799 128.139 37.4799V36.7663C128.139 36.142 129.517 33.6892 129.517 33.6892V38.84L130.473 44.0801L131.296 44.5261C131.429 45.0092 131.696 45.9977 131.696 46.0869C131.696 46.1761 130.829 46.5775 130.584 46.7782C130.34 46.9788 130.984 48.0937 130.984 48.0937C130.984 48.0937 130.473 49.2087 130.14 49.4316C129.806 49.6546 129.073 49.8107 128.539 50.1452C128.006 50.4796 127.872 51.2378 128.295 51.7506C128.717 52.2635 129.251 52.754 130.384 52.7986C131.518 52.8432 132.496 51.8621 132.829 51.7506C133.163 51.6391 132.741 51.1932 133.163 51.0148C133.585 50.8364 133.941 50.9925 134.363 50.881C134.785 50.7695 134.897 50.4127 135.074 49.8107C135.252 49.2087 134.919 48.2498 134.919 48.2498C134.919 48.2498 135.297 47.0234 134.785 46.5775C134.274 46.1315 134.141 46.2207 134.141 46.2207V44.7267L134.785 44.3254L135.074 41.6273H135.764L136.186 44.3254L136.875 44.5261V46.2207C136.875 46.2207 136.186 46.3545 136.03 46.7782C135.875 47.2018 136.03 47.7816 136.03 48.2498C136.03 48.7181 135.764 49.2087 135.764 49.2087C135.764 49.2087 135.83 49.8776 136.186 50.3459C136.542 50.8141 137.697 50.6134 137.897 51.0148C138.097 51.4162 138.164 52.0851 138.32 52.2858C138.475 52.4865 139.72 53.0216 140.365 52.9993C141.009 52.977 142.743 52.2189 142.943 51.7506C143.143 51.2824 143.188 50.5242 142.943 50.1452C142.699 49.7661 142.076 49.8107 141.521 49.6992C140.965 49.5877 140.365 48.0937 140.365 48.0937C140.365 48.0937 140.543 47.3579 140.365 47.0234C140.187 46.689 139.565 46.5775 139.565 46.5775V44.5261L140.365 44.0801L141.521 36.7663V33.5554L142.232 35.5176L142.943 37.4799C142.943 37.4799 142.743 37.9927 142.476 38.2603C142.21 38.5279 142.121 39.4867 142.121 39.4867C142.121 39.4867 141.899 40.78 142.943 40.9584C143.988 41.1367 144.988 39.9326 144.81 39.4867C144.633 39.0407 144.299 37.5022 144.299 37.0562V34.3804C144.299 33.7338 143.832 32.3067 143.832 32.3067L144.633 31.504C144.633 31.504 142.943 28.962 142.232 28.1147C141.521 27.2673 140.365 26.866 140.365 26.866L142.232 25.8848L144.633 24.4578C144.633 24.4578 145.344 25.3051 146.055 24.9929C146.767 24.6808 147.078 24.3017 147.122 23.0307C147.167 21.7597 146.767 19.9982 146.767 19.9982C146.767 19.9982 147.278 20.7117 147.656 20.3549C148.034 19.9982 148.189 18.3035 147.656 17.2332C147.122 16.1629 146.055 15.0926 146.055 15.0926L147.478 10.789C147.478 10.789 148.256 9.0275 147.122 8.22476C145.989 7.42203 142.943 9.0275 142.943 9.0275L140.632 10.3877C140.632 10.3877 139.253 10.1201 138.498 9.91942C137.742 9.71874 136.453 9.91942 136.453 9.91942C136.453 9.91942 136.141 9.47346 135.586 9.47346C135.03 9.47346 134.674 9.91942 134.674 9.91942C134.674 9.91942 134.23 9.69644 133.963 9.69644C133.696 9.69644 132.362 10.0532 131.918 10.187C131.473 10.3208 130.429 10.187 130.429 10.187C130.429 10.187 129.006 9.0275 127.117 8.51464C125.227 8.00179 123.56 8.22476 123.56 8.22476C123.56 8.22476 123.071 10.3654 123.56 12.06C124.049 13.7547 124.716 15.0926 124.716 15.0926C124.716 15.0926 123.204 17.3447 123.071 18.2366Z" stroke="white" stroke-width="4" mask="url(#path-7-outside-1)"/>
    <path d="M217.472 16.8917L218.03 16.4232L217.472 16.8917C217.578 17.0177 217.759 17.181 218.033 17.2563C218.067 17.2656 218.101 17.2731 218.134 17.279C218.266 18.129 218.505 19.0941 218.934 20.0211C219.547 21.3447 220.349 22.1864 221.086 22.6948C221.451 22.9468 221.8 23.1167 222.101 23.2225C222.25 23.2752 222.396 23.3148 222.532 23.3394C222.647 23.3602 222.828 23.3842 223.021 23.3568C223.632 23.2702 223.842 22.7865 223.909 22.5588C224.009 22.593 224.133 22.6271 224.273 22.6604C223.967 23.0089 223.631 23.4487 223.305 23.9281C222.616 24.9401 221.885 26.2528 221.578 27.3852C221.284 28.4696 221.043 30.8012 220.897 32.8338C220.822 33.8709 220.77 34.8682 220.748 35.6447C220.738 36.0316 220.734 36.3736 220.74 36.6423C220.743 36.7758 220.749 36.903 220.759 37.0143C220.766 37.0932 220.783 37.269 220.843 37.4369C220.925 37.6604 221.038 37.8548 221.158 38.0188C220.937 38.426 220.784 38.9574 220.784 39.6311C220.784 40.3026 221.104 40.819 221.463 41.1742C221.811 41.5185 222.237 41.7561 222.598 41.9183C222.802 42.0102 223.004 42.0857 223.188 42.1467C223.187 42.1745 223.186 42.2029 223.185 42.2316C223.169 42.7451 223.166 43.4358 223.239 44.0277C223.303 44.5437 223.52 46.2688 223.751 47.8884C223.866 48.6967 223.986 49.4884 224.093 50.0929C224.146 50.3927 224.199 50.6623 224.248 50.8699C224.273 50.9709 224.301 51.08 224.336 51.1785C224.352 51.2263 224.378 51.2957 224.416 51.3695L224.418 51.3726C224.44 51.4165 224.537 51.6068 224.744 51.7559C224.916 51.8803 225.112 51.9751 225.327 52.0239L225.346 52.0761C225.13 52.2689 224.859 52.5094 224.562 52.7676C223.837 53.3982 223.001 54.0957 222.443 54.478C221.504 55.121 221.253 55.9907 221.321 56.7155C221.351 57.0449 221.443 57.32 221.523 57.5079C221.563 57.6039 221.603 57.6827 221.635 57.7412C221.651 57.7706 221.665 57.7952 221.677 57.8147L221.693 57.8403L221.693 57.841L221.699 57.8502L221.711 57.8697L221.711 57.87L221.721 57.8868C221.897 58.171 222.18 58.6282 222.766 59.0067C223.344 59.3793 224.125 59.6223 225.229 59.7342C226.058 59.8182 226.8 59.5089 227.383 59.1273C227.97 58.743 228.482 58.2295 228.892 57.7485C229.307 57.262 229.646 56.7742 229.88 56.4115C229.997 56.229 230.09 56.0754 230.155 55.9657C230.187 55.9108 230.212 55.8668 230.23 55.8354L230.251 55.7981L230.257 55.787L230.259 55.7834L230.26 55.7821L230.26 55.7816C230.26 55.7814 230.26 55.7812 229.382 55.3032L230.26 55.7812L230.408 55.5102L230.377 55.2032C230.274 54.1843 230.121 53.5545 229.888 53.0362C229.774 52.7842 229.652 52.5807 229.548 52.4102C229.537 52.3935 229.527 52.3771 229.517 52.3609C229.444 52.2411 229.378 52.1342 229.312 52.0131L229.187 51.4876L229.32 51.4218L229.819 51.1739L229.871 50.6186L230.114 48.0066L230.773 50.7591L230.957 51.5261H231.746H231.843V51.729C231.78 51.8278 231.706 51.9488 231.631 52.0831C231.532 52.2611 231.423 52.4782 231.337 52.709C231.255 52.9277 231.168 53.2244 231.168 53.5432V55.3032V55.5282L231.264 55.7315L232.168 55.3032C231.264 55.7315 231.264 55.7316 231.264 55.7317L231.264 55.732L231.265 55.7328L231.266 55.7351L231.269 55.7427L231.282 55.7699C231.294 55.7931 231.31 55.8264 231.33 55.8683C231.372 55.9523 231.431 56.0715 231.506 56.2158C231.654 56.5036 231.864 56.8959 232.109 57.31C232.352 57.7211 232.639 58.1704 232.942 58.5648C233.227 58.9346 233.6 59.3552 234.03 59.6046C234.82 60.0621 235.659 60.0377 236.214 59.9459C236.502 59.8983 236.746 59.8274 236.92 59.7684C236.995 59.7428 237.058 59.7189 237.108 59.6992C237.166 59.686 237.242 59.6673 237.33 59.6417C237.519 59.5866 237.78 59.495 238.054 59.348C238.583 59.0641 239.335 58.4658 239.412 57.3863C239.477 56.4911 239.121 55.7645 238.809 55.3057C238.649 55.0708 238.486 54.8855 238.362 54.7575C238.311 54.7044 238.265 54.6601 238.228 54.6251L236.233 51.9587L236.056 50.9956L236.265 50.8572L236.713 50.5606V50.0233V40.6311H236.811C237.332 40.6311 237.742 40.3559 237.985 40.151C238.253 39.925 238.486 39.6428 238.673 39.372C238.863 39.0969 239.03 38.7991 239.155 38.5172C239.271 38.2578 239.389 37.9276 239.412 37.6077C239.443 37.179 239.288 36.8206 239.151 36.5868C239.008 36.3436 238.83 36.1384 238.679 35.9855C238.657 35.9633 238.635 35.9417 238.614 35.9207L238.757 35.7503L237.993 35.1055C238.757 35.7503 238.757 35.7502 238.757 35.7501L238.758 35.7498L238.758 35.749L238.76 35.7465L238.768 35.7378L238.794 35.7065C238.816 35.6795 238.848 35.6406 238.889 35.591C238.97 35.4919 239.084 35.3499 239.221 35.1754C239.493 34.8276 239.856 34.3455 240.218 33.8137C240.577 33.2861 240.949 32.6873 241.227 32.1091C241.483 31.5775 241.748 30.8869 241.691 30.2399C241.644 29.7157 241.402 29.0185 241.124 28.3482C240.831 27.6411 240.446 26.8409 240.03 26.0643C239.615 25.2879 239.161 24.519 238.728 23.8768C238.317 23.2671 237.859 22.6699 237.426 22.3325C237.219 22.1711 236.992 22.0213 236.755 21.8833C237.167 21.6962 237.543 21.4644 237.877 21.2199C237.945 21.3944 238.068 21.6249 238.3 21.8089C238.625 22.067 238.993 22.0982 239.263 22.0592C239.515 22.0228 239.729 21.9219 239.884 21.8327C240.196 21.6519 240.495 21.3823 240.748 21.1137C241.254 20.5749 241.78 19.8188 242.049 19.1243C242.2 18.736 242.29 18.2398 242.352 17.7812C242.374 17.6167 242.393 17.4477 242.41 17.2776C242.635 17.2863 242.869 17.2311 243.086 17.0942C243.458 16.8591 243.667 16.4922 243.786 16.1743C243.91 15.8413 243.975 15.4564 243.994 15.043C244.032 14.214 243.891 13.1457 243.511 11.859C243.12 10.5368 242.608 9.60084 242.173 8.98052C242.066 8.82825 241.964 8.69542 241.87 8.5809C241.93 8.43268 241.994 8.26441 242.059 8.0834C242.273 7.48291 242.539 6.60856 242.539 5.85662V2.67193V1.67193H241.539H238.922C238.194 1.67193 237.557 1.82579 237.109 1.97398C237.046 1.9949 236.986 2.01588 236.929 2.03653C236.824 1.97096 236.705 1.90112 236.574 1.83124C236.069 1.56208 235.31 1.25289 234.447 1.25289C233.736 1.25289 232.787 1.36756 232.057 1.4726C231.683 1.52638 231.351 1.58007 231.111 1.62032C231.071 1.62702 231.034 1.63337 231 1.63928C230.926 1.61283 230.84 1.58282 230.742 1.5506C230.414 1.44269 229.953 1.30812 229.41 1.1991C228.345 0.985453 226.863 0.848592 225.447 1.30021C224.168 1.70844 223.2 2.23278 222.544 2.66335C222.349 2.79111 222.181 2.91071 222.041 3.01672C221.843 2.9336 221.605 2.83766 221.349 2.74135C220.996 2.60918 220.596 2.47181 220.204 2.3663C219.827 2.26477 219.394 2.17478 218.998 2.17478C218.153 2.17478 217.708 2.79535 217.516 3.22563C217.324 3.65676 217.247 4.16341 217.21 4.57886C217.171 5.01385 217.169 5.44993 217.172 5.78364C217.173 5.87595 217.175 5.97999 217.177 6.06744C217.177 6.12297 217.178 6.17182 217.179 6.20672C217.18 6.30802 217.179 6.34332 217.179 6.34335C217.179 6.34336 217.18 6.33917 217.181 6.33204C217.163 6.48687 217.175 6.65218 217.184 6.75763C217.195 6.88605 217.214 7.03369 217.236 7.19011C217.282 7.50425 217.35 7.8869 217.433 8.28502C217.561 8.90714 217.735 9.62483 217.927 10.1978C217.872 10.3363 217.806 10.5068 217.736 10.6955C217.557 11.1757 217.334 11.8126 217.203 12.3431C217.058 12.9339 216.995 13.853 217 14.6346C217.003 15.0354 217.024 15.4391 217.071 15.7834C217.094 15.9544 217.126 16.1322 217.173 16.2972C217.213 16.4351 217.294 16.6794 217.472 16.8917ZM221.96 22.1658C221.96 22.1658 221.96 22.1643 221.96 22.1617C221.96 22.1645 221.96 22.1658 221.96 22.1658ZM223.912 22.5468C223.912 22.5468 223.912 22.5468 223.912 22.5467L224.232 21.6125L223.912 22.5468ZM242.973 15.4793C242.972 15.4784 242.972 15.4774 242.971 15.4764C242.974 15.4801 242.976 15.4822 242.976 15.4822C242.976 15.4821 242.975 15.4812 242.973 15.4793Z" fill="#434A52" stroke="white" stroke-width="2"/>
</svg>